<?xml version="1.0" encoding="UTF-8"?>
<svg id="Layer_2" data-name="Layer 2" xmlns="http://www.w3.org/2000/svg" viewBox="0 0 125.46 291.27">
  <defs>
    <style>
      .cls-1 {
        fill: #1f1f1f;
      }
    </style>
  </defs>
  <g id="Layer_1-2" data-name="Layer 1">
    <g>
      <path class="cls-1" d="M124.36.05c-.84,0-1.68-.02-2.52-.05h-39.05c.1.49-.04.81-.71,1,.11-.31.22-.61.36-1h-6.17c.15.57.49,1.14.57,1.91-.74-.53-1.12-.81-1.52-1.09v-.82h-.39c-.02.14-.04.29-.06.47h-1.09c.17-.19.29-.34.4-.47h-.72s.01.06.02.1c-.28.05-.5.1-.78.15,0-.09-.02-.16-.03-.25h-27.51c-.27.08-.55.1-.85,0h-.86c.03.07.05.15.08.22-.9.63-1.69,1.19-2.48,1.76.95-.03,1.66.51,2.53,1-.2.29-.36.51-.59.82-.57-.26-1.09-.5-1.61-.74h0c-.12.38-.25.75-.43,1.27,1.07-.11,2.07.49,2.81-.59.37.17.68.32,1.04.49-.17.19-.31.34-.49.53.29.39.58.79.92,1.24-.19.37-.36.72-.57,1.12-.95-.49-1.94-.52-2.92-.53-.08.2-.12.45-.26.6-.08.09-.32.05-.59.08-.11-.38-.22-.75-.31-1.02-.72-.43-1.38-.83-2.12-1.27.36-.76.86-1.21,1.48-1.56h.01c-.14-.83.73-.91,1.04-1.39-.25-.16-.5-.32-.93-.59.76-.55,1.38-1,1.96-1.43h-1.73c0,.08,0,.16,0,.23-.31,0-.5-.09-.64-.23h-2.62c0,.15.02.29.03.45-.43-.1-.74-.25-.99-.45H0v22.99c.07.08.12.18.18.26-.06.03-.12.07-.18.1v179.1c.15-.08.3-.16.46-.24.36.38.69.74,1.23,1.32-.72-.03-1.21-.06-1.69-.08v1.67c1.23-.82,1.36-.82,3.29-.48-.08.16-.15.31-.24.45-.13.19-.27.38-.35.49-.91-.12-1.67-.22-2.7-.35v.79c.57-.22,1.18-.16,1.85.12-.59.22-1.19.45-1.85.69v22.8s.04.1.05.14c-.02.04-.03.06-.05.09v14.63c.08-.06.14-.13.24-.18.56-.29.2-.68.33-1,1.14-.54,2.28-1.11,3.66-.74.27.38.56.81.86,1.24.56.16,1.12.32,1.66.47.15.31.27.56.37.76-.19.31-.32.52-.47.76.64.2,1.14.35,1.78.55,1.37-1.2,2.74-2.41,4.13-3.63-.25-.38-.46-.71-.61-.94.68-.47,1.31-.91,1.95-1.36.24.17.48.34.75.52.58-.23,1.18-.47,1.92-.76.43.4.87.81,1.27,1.19.44-.11.99-.25,1.54-.39-.24-.35-.47-.7-.71-1.06.47-.47.95-.94,1.42-1.4-.33.06-.66.12-1.16.21-.06-.36-.25-.75-.16-1.05.14-.48.58-.66,1.22-.45.04.41.07.84.11,1.28.24,0,.47,0,.71,0,.45-.7.51-1.41,0-2.09.26-.27.45-.48.63-.68-.07-.32-.15-.63-.27-1.18.42.19.75.25.77.36.14,1.04.23,2.09.35,3.31-.61.12-1.05.2-1.48.28.02.28.04.57.07.91.67.17,1.32.32,1.84-.19.35-.34.63-.14.94-.02q.21-.74,1.07-.35c-.21-.38-.41-.75-.64-1.17.19-.29.41-.61.63-.94-.11-.14-.22-.28-.34-.41.08-.04.15-.08.23-.12.04.17.08.35.12.52.24-.29.47-.59.71-.88.24-.29.47-.58.71-.87.16.29.33.58.42.75.72-.38,1.4-.74,2.09-1.1l.02-.02c-.93-.55.5-1.44-.39-2.09-.18.15-.42.29-.59.5-.52.64-1.02,1.29-1.53,1.94-.29-.09-.65-.33-.85-.24-.48.24-.87.63-1.3.96-.16.2-.32.4-.48.6-.07-.08-.13-.16-.2-.24.22-.12.45-.24.67-.36-.32-.77.11-1.48.27-2.19.08-.35.63-.59.99-.9.06-.41.13-.88.21-1.46.83.13,1.4.31,1.47,1.43.25-.58.39-.9.56-1.27.57-.13,1.13-.25,1.69-.37q.42.73,1.64,1.22c-.41.26-.74.48-1.24.8.85.34,1.47.42,2.03-.04.45-.37.91-.52,1.53-.23.09.34.18.72.28,1.1.61.24,1.42.04,1.65.86.11.01.25,0,.33.05.12.09.21.22.28.35.02.03-.17.22-.2.2-.14-.06-.27-.16-.36-.27-.06-.08-.04-.22-.05-.33-.43.08-.85.17-1.51.3.77.54,1.52.74,1.39,1.61-.63.19-1.26.38-2.16.66-.12-.18-.42-.6-.72-1.03.05-.05.18-.16.3-.28-.33-.38-.66-.76-1.11-1.27-.53.11-1.13.24-1.88.4,1.29.75,1.34.85,1.35,2.53-.26.13-.55.28-.93.47.06.3.13.62.18.85-.11.9-1.36.84-1.35,1.76h0c.82-.16.58.74,1,.97.23-.02.45-.04.78-.08-.06.27-.04.61-.15.66-.3.14-.67.23-.99.2-.46-.04-.9-.21-1.35-.33-.19-.53-.37-1.06-.56-1.59q-.72,1.05.56,1.59c-.54.73-1.09,1.45-1.56,2.09-.96.04-1.34-.45-1.65-1.03-.45.4-.83,1-1.48.64.26-.7.51-1.37.77-2.05h0s0,0,0,0c0,0,0,0,0,0-.29-.47-.59-.94-.94-1.49-1.06-.14-2.37-.62-3,1.03-.29-.1-.5-.17-.71-.24-.34.6-.69,1.2-1.03,1.79.18.31.35.59.52.88-.32.13-.58.24-.8.34.11,1.18-.3,2.05-1.25,2.68-.12.08-.17.27-.3.5.42.33.81.64,1.33,1.05.57-.56,1.04-1.04,1.6-1.59.19.29.37.57.5.77-.2.5-.38.91-.55,1.33.06.07.13.14.38.41-.28-.25-.35-.32-.42-.38-.34.06-.89,0-.99.19-.4.76-1.48,1.1-1.39,2.17-.33.07-.67.14-.97.2q-.46,1.01-1.44,1.27c-.29.59-.6,1.21-.93,1.85.37.44.71.84,1.11,1.31-.43,1.69,1.3,2.53,1.69,3.96-.31.67-.52,1.33.42,1.72,0,.23,0,.47,0,.7-.31.12-.3.23,0,.36.43.2.85.4,1.49.7-.12-.51-.18-.75-.24-.99-.48.11-.87.2-1.25.28,0-.12,0-.23,0-.35.42-.24.42-.47,0-.71v-1.3c.27.2.42.3.65.46.15-.44.29-.86.42-1.28-.21.1-.41.19-.77.36-.21-.38-.43-.76-.66-1.17.25-.1.37-.2.44-.17.46.19,1.03.28.99.97.33.05.66.09,1.23.17-.44.48-.73.79-1.06,1.15.14.37.24.83.48,1.2.24.38,1.07.43.67,1.15-.2.05-.38.09-.65.15.3.31.49.51.72.75-.18.41-.35.83-.59,1.37.89.11,1.72.21,2.6.32.16-.3.33-.6.52-.95-.21-.41-.45-.81-.6-1.24-.05-.14.16-.35.24-.54h0c.11-.26.22-.51.34-.79-.73-.1-1.49.41-2.1-.27.95-.29,1.82-.55,3.04-.93-.9-.36-1.43-.57-1.96-.79l.07-.24h2.06c1.17-1.34,3.28-1.81,3.38-4.06-.23-.4-.52-.9-.8-1.38h-.8c-.03.16-.06.33-.16.86-.12-.52-.17-.69-.21-.87-.16-.03-.33-.05-.49-.08.02-.05.03-.1.05-.15.15.07.3.15.45.22.12,0,.23,0,.35,0,.08-.51.16-1.01.25-1.57-.14-.22-.32-.5-.53-.83.42-.36.79-.69,1.1-.95.32.21.52.34.77.5.06-.26.11-.37.11-.47,0-.15-.04-.3-.07-.44.59-.22.69.11.93.5.88,1.4,1.49,1.61,2.8,1.15.24.24.48.49.73.72.6.55.9,1.18.54,1.85.35.37.61.65.91.97-.55.32-.99.57-1.42.82.09.41.16.74.24,1.08-.3.13-.56.24-.77.34.02.37.2.85.04,1.01-.86.9-.71,1.88-.23,3.07-.61-.06-1.02-.11-1.55-.16.27-.99.72-1.83.07-2.64h0c-.39-.09-.79-.18-1.19-.27-.24.28-.48.56-.76.88.53.07.99.14,1.49.21.15.65.22,1.2-.44,1.56-.37-.05-.74-.11-1.14-.17v1.14c.34-.03.6-.06,1.01-.1-.12.61-.21,1.04-.3,1.46,1.03.83,2.1.66,3.21.24.51.29,1.01.59,1.52.88.31-.33.61-.66.94-1.01-.25-.39-.47-.73-.78-1.22.86-.06,1.49-.27,2,.33-.05,1.25-1.23,2.35-.32,3.71.1-.43.19-.81.28-1.16.74-.23,1.14,1.1,1.91.31-.06-.33-.11-.65-.16-.93,1.12-.71,1.42.63,2.26.71.36-.27.77-.57,1.2-.88-.13-.21-.23-.49-.3-.48-.86.11-1.35-.61-1.56-1.08-.37-.83-1.08-.95-1.71-1.3,0,0,0,0,0,0,0,0-.01.01-.02.02,0,0,0,0,.01-.01.05-.21.1-.42.17-.69.46.06.83.11,1.21.16.26-.29.51-.58.77-.87h0s0,0,0,0h0c-.17-.5-.58-.66-1.06-.76-.12-.02-.21-.21-.3-.31.33-.38.63-.71.98-1.11.66.41,1.23.77,1.81,1.14l.02-.02c.05-.21.1-.42.17-.71.36.15.62.25.89.36-.07.65-.14,1.3-.22,2.06-.34.3-.78.7-1.38,1.24.46.12.68.17.89.23.17.2.33.39.53.62.28-.52.26-1.26,1.03-.86.11.55.21,1.07.36,1.89.97-1.08,2.39-.88,3.11-2.01-.29-.13-.51-.23-.9-.4.55-.63,1.04-1.19,1.79-2.05-.12,2.09,1.23,2.09,2.43,2.4.4-.2.85-.42,1.3-.65-.18-.04-.36-.08-.54-.12.04-.07.09-.15.13-.22.14.11.28.22.42.33.08-.07.25-.19.24-.2-.42-.64-.59-1.49-1.5-1.72.7-.54.09-1,.03-1.36-.37-.24-.64-.41-.92-.59-.33-.05-.66-.1-1.07-.16q.68-.65,1.07.15h1.54c-.48-.42-.72-.63-.92-.81.46-1.13,1-2.24.61-3.56-.75-.04-1.41-.07-2.19-.12v-2.48c-.35.19-.54.29-.85.46.07-.35.11-.56.18-.87.58.05,1.09.1,1.7.15.29-.24.63-.55,1-.81.11-.08.33,0,.58.02v.98c.38.27.76.53,1.03.72.21.86.38,1.58.55,2.28.38-.05.61-.08.84-.11.31.77.61,1.51.98,2.42.25.08.68.21,1.06.33,1.03-.65.87-2.3,2.32-2.24.56-1.32.27-2.45-.69-3.23-.73-.6-1.37-1.21-1.88-1.99-.28-.42-.7-.75-1.06-1.12v-1.57c.5-.56.88-.99,1.34-1.52-1.16-.88-1.39-2.43-2.88-2.99.53-.61.96-1.1,1.49-1.72-.65-.25-1.12-.42-1.62-.61-.4.51-.72.92-1.04,1.34-.62.15-1.24.29-2.01.47-.25-.24-.55-.52-1-.95,1.03-.68.28-1.14-.04-1.66.78-.97.58-2.6,2.15-2.98.73.18,1.47.35,2.2.53.26-.35.5-.68.68-.93-.17-.57-.32-1.08-.49-1.69-.7-.45-1.52-.98-2.38-1.53.33-.35.63-.67.91-.96.4.05.72.09,1.14.14-.12-.55-.21-.97-.31-1.42.39-.19.69-.35.97-.48.41.49.75.91,1.01,1.22,1.22-.43,1.94-1.54,3.34-1.37-.29.52-.51.9-.76,1.34.25-.01,1.55.28,1.7.36-.55.59-.82,1.26-.48,2.14.38.12.8.26,1.19.38.38-.31.68-.57.98-.82.45.32.83.6,1.06.77.36.79.69,1.41.93,2.07.1.28,0,.63-.02.95.96-.07,1.01.76,1.27,1.33.51-.09.94-.16,1.57-.27.02.67.08,1.21.05,1.74-.03.73-.08,1.45.73,2.05.36-.64.69-1.23,1.02-1.83.47-.18.95-.37,1.43-.56h0c.58-1.78.91-2.03,2.73-2.12.3-.01.61.04.88-.05.23-.08.4-.31.85-.69-.7-.06-1.05-.09-1.64-.14,1.2-1.39.98-3.57,3.03-4.25.28.45.53.86.8,1.28.85-.92,1.57-1.7,2.29-2.48h0c-.3-.2-.6-.4-.74-.49.12-1.19.23-2.28.34-3.35.17-.01.28-.02.4-.03h0c.1-.27.21-.54.33-.85-.5-.15-.93-.28-1.42-.43.04-.51.07-.94.13-1.67.93,1,1.97.94,2.97,1.04.01,1.07.24,2.23-1.24,2.48v1.02c.52.26,1.02.51,1.52.76.05-.06.1-.12.15-.18-.19-.25-.38-.49-.67-.85.68-.49,1.36-.99,2.16-1.56-.47-.34-.05-1.01-.89-1.39-.61-.27-.87-1.31-1.24-2.04-.05-.1.2-.36.32-.54,0,0,.01-.01.01-.01.31-.4.63-.81.99-1.28.08-.47.16-1.02.27-1.7-.42.04-.74.07-1.25.12-.22-.41-.48-.88-.74-1.36-.69.31-1.38.63-2.13.97-.09.38-.2.8-.32,1.3-.46-.02-.94-.05-1.57-.08.43-.53.78-.97,1.14-1.42-.6-.75-1.17-1.46-1.75-2.19h-1.44c-.03-1.13.91-1.01,1.55-1.14.26-.48.47-.88.69-1.29.53.12.97.22,1.4.32.08-.28.14-.48.23-.76.4.1.76.19,1.34.34-.53,1.06-.98,1.96-1.44,2.89.09.16.2.36.3.54.3-.32.57-.61.76-.81.69-.2,1.36.64,1.87-.44.14.85.69.69,1.15.7v-1.06c.4-.35.77-.68,1.36-1.2-.08,1.2-.54,1.83-1.33,2.28.34.36.84.67,1,1.1.27.74.81.89,1.45,1,.33.06.65.1.84.13.5-.44.92-.82,1.35-1.19-.34-.37-.68-.74-1.12-1.22.43-.03.74-.06,1.16-.09.07-.57.15-1.15.26-1.98-.78.32-1.33.54-2.05.83.05-.59.08-1.02.12-1.43-.51-.39-1.25-.54-1.23-1.31.4-.13.73-.24,1.25-.42-.83-.49-1.03-.05-1.31.44,0,0,0,0,0,0-.23.39-.45.78-.72,1.25-.34-.18-.61-.33-.85-.46.16-.55.29-.99.46-1.56-.34-.72-.73-1.55-1.11-2.36.16-.37.33-.79.5-1.2-.62-.03-1.25-.06-1.98-.1.08-.56.13-.94.19-1.31-.44-.04-.88-.07-1.32-.11-.03-.09-.07-.19-.1-.28.37-.23.74-.46,1.27-.79.07.53.11.85.15,1.17.17-.13.34-.27.58-.45.55.13,1.23.29,1.92.45-.23-.23-.45-.47-.68-.7,1.07.28,1.93-1.09,3.13-.29-.74.48-1.76.6-1.72,1.68.16.03.33.06.49.09-.02.05-.03.1-.05.15-.15-.07-.31-.15-.46-.22-.23-.24-.47-.48-.7-.71l-.36.7c-.14-.11-.28-.22-.42-.33-.04.07-.08.14-.11.22.18.04.35.08.52.12l-.35.7c1.15.07,2.37-.33,3.56.89-.05-1.13-.44-2.03.37-2.65-.13-.37-.26-.74-.37-1.04.9-.63,1.69-1.19,2.48-1.76-.95.03-1.66-.51-2.53-1,.2-.29.36-.51.59-.82.57.26,1.09.5,1.61.74h0c.12-.38.25-.75.43-1.27-1.07.11-2.07-.49-2.81.59-.37-.17-.68-.32-1.04-.49.17-.19.31-.34.49-.53-.29-.39-.58-.79-.92-1.24.19-.37.36-.72.57-1.12.95.49,1.94.52,2.92.53.08-.2.12-.45.26-.6.08-.09.32-.05.59-.08.11.38.22.75.31,1.02.72.43,1.38.83,2.12,1.27-.36.76-.86,1.21-1.48,1.56h-.01c.14.83-.73.91-1.04,1.39.25.16.5.32.93.59-.86.62-1.54,1.12-2.19,1.59.19.36.35.68.52,1.01-.48-.12-.95-.23-1.43-.35-.15,1.08.57,1.7,1.3,2.2-.24.63-.44,1.16-.73,1.92,1.55-.06,1.67,1.14,2.34,2.01-.53.15-.89.25-1.42.4.48.24.74.38,1,.51,0,0-.01.01-.02.02.01-.01.01-.01.02-.02-.24.46-.35.88.37.96.54.09.38-1.28,1.26-.58-.32.49-.61.93-.88,1.35-.45-.04-.82-.08-1.25-.12-.15.56-.28,1.02-.41,1.48.82-.51,1.51-.9,2.34-.26.12-.31.24-.32.36,0-.12,0-.24,0-.36,0h0c-.19.4-.39.81-.58,1.2.52.4.99.77,1.42,1.09.23-.34.4-.6.58-.87.3.54.59,1.07.87,1.57-.04.45-.08.89-.11,1.17.55.44.97.78,1.4,1.12.12.26.24.52.49,1.06-.98-.35-1.64-.58-2.29-.81-.81.58-1.84.54-3.18.85,1.45.31,2.46.53,3.53.76-.13.51-.23.89-.35,1.35.66.37.95,1.44,2.02.84v-.81c.38.07.7.13,1.05.19.12-.44.22-.8.36-1.31.71.66,1.3,1.22,1.97,1.84-.08.44-.18.94-.28,1.48.54-.1,1.04-.18,1.53-.27.17-.48.32-.91.43-1.25-.22-.38-.4-.69-.6-1.02.71-.28,1.27-.5,1.98-.78.64.39,1.36.83,2.24,1.37.28-.05.79-.13,1.34-.22.1.42.19.78.29,1.19.29-.13.5-.23.6-.28-.12-.85-.24-1.65-.37-2.51-.52-.21-1.12-.45-1.76-.7-.31.55-.79.51-1.4.28-.13-.33-.27-.67-.5-1.24.81.13,1.39.23,1.98.32.03-.08.06-.15.08-.23-.41-.25-.82-.49-1.18-.71.31-.63.59-1.21.93-1.9.27.22.48.39.69.55-.09.38-.16.69-.22.92.5.12.92.22,1.34.33h0c.16-.21.32-.42.46-.61.71.24.4.62.26.96.32.03.64.07.91.1.19.87.36,1.62.52,2.37.59.16,1.18.3,1.66-.28.08-.09.32-.05.48-.08-.3-.56-.92-1-.71-1.76h0c-.44.15-.59,1.21-1.38.39.2-.26.4-.51.53-.68-.46-.65-.88-1.24-1.3-1.83-.11-.01-.25,0-.33-.05-.12-.09-.21-.22-.28-.36-.02-.03.17-.22.21-.2.14.06.27.16.36.27.06.08.03.22.05.33.45-.31.9-.62,1.37-.94.02-.28.04-.55.05-.82-1.33.71-2.85.02-4.21.57-.57-.53-1.11-1.04-1.65-1.53-.35.23-.64.42-.94.61.12-.75-.23-1.23-.88-1.55-.02,0,.05-.18.1-.35.14,0,.31-.04.44.01.19.08.34.23.72.51.04-.85.07-1.45.11-2.21-.42.36-.67.58-.95.82-.67-.24-1.18-.52-1.27-1.37.68-.07,1.27-.13,1.89-.19-.21-.33-.4-.55-.5-.81-.12-.31-.17-.66-.21-.81-.82-.8-1.51-.59-2.22-.16.09.39.18.78.27,1.17,0,0,0,0-.02-.01,0,0,0,.01.01.02-.54.09-1.08.17-1.69.27-.14-.19-.29-.41-.45-.63-.39.18-.78.37-.71-.35.24,0,.47,0,.71,0,0,.12,0,.23,0,.35.31-.12.3-.23,0-.35,0-.48-.22-.72-.71-.71-.28-.09-.57-.26-.85-.26-.31,0-.63.17-.94.26l-.36.35c-.06.07-.12.13.05-.05-.03.02-.04.03-.05.05.12-.12.24-.23.36-.35-.18-.09-.39-.27-.55-.24-.61.11-1.21.29-1.95.48v-.94c.89-.53,1.78-1.05,2.62-1.55-.65-.61-1.24-1.16-1.87-1.76.38-.17.64-.29.8-.37-.03-.5-.06-.95-.1-1.48,2.11.47,1.61,2.4,2.25,3.6.41-.12.75-.22,1.1-.33.31-.43.2-1.22,1.21-1.23.3.43.66.93,1,1.42.19-.2.46-.48.7-.75,1.08.46,1.82,1.19,2.47,2.05.08.11.27.14.44.23.09-.57.16-1.08.27-1.74,1.1-.46,2.22-.93,3.19-1.34,1.89,1,3.66,1.94,5.5,2.91.05.75.11,1.49.16,2.23,1.39.03,1.46.15,1.07,1.79,1.08.22,1.73.9,2.03,2.05-.17.28-.38.61-.56.92-.64.08-1-.16-1.19-.66h0c-.29-.06-.58-.11-.78-.15-.45.58-.88,1.14-1.31,1.7.49.56.94,1.09,1.4,1.62.31-.03.59-.05.83-.08.2-.58.36-1.06.51-1.5.59-.19,1.09-.37,1.6-.5.14-.04.32.08.53.14-.07.36-.13.69-.19,1.01.35.2.69.38,1.08.6-.53,1.02-1,1.93-1.51,2.91.18.15.36.29.59.47-.24.36-.47.72-.67,1.03.42.27.84.53,1.43.91.1-.51.18-.9.27-1.38.47-.05.99-.11,1.38-.15.91-.77,1.71-1.46,2.61-2.21.05-.28.13-.67.26-1.31.22.72.37,1.18.56,1.79-.27.06-.49.12-.96.23.63.31.83.4,1.2.58.03-.59.15-1.05.07-1.47-.16-.83-.44-1.64-.66-2.46h0c-.2.17-.39.34-.72.62.14-1.49-.4-2.91.52-4.23-.16-.2-.33-.42-.51-.63h-.02c-.04.2-.09.39-.17.72-.36-.39-.58-.64-.8-.88.17-.32.31-.57.47-.87.7.04,1.42.33,1.87-.4.8.38,1.5.71,2.37,1.12-.49.22-.75.34-1.12.5.61.2,1.13.37,1.8.59-.02-.37-.11-.65-.02-.87.1-.26.35-.46.63-.79-.46.04-.72.05-.81.06-.12-.72-.22-1.29-.32-1.89.17-.2.44-.51.71-.83.63.14,1.32-.28,1.83.36h.01c.19-.19.37-.4.54-.58.44.16.81.3,1.15.42v.98c-.46.42-1.39,0-1.35.93-.28.03-.57.05-.81.07-.85,1.56-.85,1.56.39,2.71.36-.36.73-.71,1.01-1-.23-.69-.4-1.23-.58-1.76.44.29.89.59,1.39.92.24-.3.5-.61.75-.93.29-.04.58-.07.99-.12v-.21c-.24-.31-.41-.55-.58-.78.19-.21.38-.35.58-.42v-1.05s-.07,0-.11,0v-.86s.07,0,.11-.01v-26.37c-.07-.08-.12-.18-.18-.26.06-.03.12-.07.18-.1V3.52c-.15.08-.3.16-.46.24-.36-.38-.69-.74-1.23-1.32.72.03,1.21.06,1.69.08V.85c-1.23.82-1.36.82-3.29.48.08-.16.15-.31.24-.45.13-.19.27-.38.35-.49.91.12,1.67.22,2.7.35V.04c-.11,0-.22,0-.32,0-.25.05-.51.05-.78,0ZM1.27,235.16c-.02-.22-.05-.43-.07-.65.08,0,.16-.02.24-.03.03.22.05.43.08.65-.08,0-.16.02-.24.03ZM1.14,229.69l-.18-.16c.11-.14.21-.27.32-.41.08.08.16.15.24.23-.12.11-.25.23-.37.34ZM.94,225.32q0-.81.59-.53c-.19.18-.39.35-.59.53ZM2.08,225.31c-.18-.18-.37-.35-.55-.53.23.08.47.16.7.24-.05.09-.1.19-.15.28ZM2.56,238.15c-.06-.05-.12-.1-.18-.16.11-.14.21-.27.32-.41.08.08.16.15.24.23-.12.11-.25.23-.37.34ZM21.99,21.49c.03.26.05.47.08.71q-.6-.23-.08-.71ZM21.55,219.5l-.1.62c-.21-.15-.36-.25-.65-.46.35-.08.54-.13.73-.17-.02.02-.03.04-.06.07.04-.03.05-.04.07-.05ZM20.73,217.13c.14.03.27.11.41.18-.09.15-.15.24-.21.33-.12-.08-.26-.15-.35-.26-.02-.02.12-.26.16-.25ZM18.94,226.29c.12.08.26.15.35.26.02.02-.12.26-.16.25-.14-.03-.27-.11-.41-.18.09-.15.15-.24.21-.33ZM15.53,184.3c-.57-.21-.86-.31-1.14-.41.44-.59.67-.21,1.14.41ZM14.39,183.89c-.04.17-.08.35-.11.52-.07-.04-.15-.08-.22-.11.11-.14.23-.27.34-.41ZM13.23,20.12c.24.21.43.39.62.56,0,0,0,0,0,0-.86.57-.67-.03-.62-.56ZM11.13,20.41c.31-.42.58-.79.85-1.16,1.11.72.37,2.42,2.01,2.54-.27.55-.43.85-.63,1.26-.19-.36-.33-.63-.53-1.02-.41.24-.77.45-1.15.67-1.16-.58-.07-1.71-.55-2.29ZM12.03,187.02c.38-.09.75-.18,1.32-.32-.3.9-.76.72-1.32.32ZM13.26,188.42c-.1.13-.22.26-.33.38-.06-.07-.12-.14-.19-.2.14-.1.28-.21.42-.3,0,0,.11.11.1.12ZM12.37,23.82c.11-.05.23-.1.34-.15.11.36.23.73.34,1.09l-.37.11-.31-1.05ZM12.01,26.27c-.1.13-.22.25-.33.38l-.19-.2c.14-.1.28-.21.42-.3,0,0,.11.11.1.12ZM11.94,219.9c-.4.32-.61.49-.93.75-.1-.37-.16-.58-.21-.78-.11-.14-.22-.28-.33-.43.07-.04.15-.07.22-.11.05.17.09.34.14.51.28.02.55.03,1.11.07ZM10.21,191.29s.12-.26.16-.25c.14.03.27.11.41.18-.09.15-.15.24-.21.33-.12-.08-.26-.15-.35-.26ZM10.28,192.9s-.11.1-.13.1c-.13-.1-.26-.21-.38-.32.07-.06.13-.13.2-.19.1.14.21.27.31.41ZM10.11.22c.21.48.35.83.55,1.29h-1.63c.45-.54.72-.86,1.08-1.29ZM7.82,196.79c.33-.07.64-.14,1.03-.23-.07.44-.12.76-.17,1.08.67-.27,1.35-.54,2.09-.85.16.83-.43,1.31-.78,1.91-.67-.23-1.31-.28-1.31-1.06-.26.11-.51.23-.86.38v-1.23ZM8.58,200.51v1.79c-.31-.21-.46-.32-.62-.43h0c-.19-.12-.38-.25-.66-.43.44-.32.8-.58,1.28-.93ZM8.31,202.82q-.74.5-1.14-.63c.55.3.83.46,1.14.63ZM4.1,224.97c.51.03.89.05,1.51.08-.65.46-1.13.81-1.61,1.16-.08-.05-.16-.1-.24-.15.12-.39.24-.77.34-1.09ZM3.69,222.37c.11-.13.22-.27.33-.4,0,0,0,0,0,0-.04.17-.08.35-.12.52-.07-.04-.15-.08-.22-.11ZM3.91,66.78s-.18-.07-.27-.11c.1-.12.2-.25.31-.37.07.05.14.1.21.15-.08.12-.14.25-.24.34ZM4.38,185.97c-.07-.05-.14-.11-.21-.16l.35-.4c.06.05.12.09.18.14-.11.14-.21.28-.32.43ZM3.9,64.87v-.85c.46-.2.95-.41,1.6-.69q-.06,1.22-1.6,1.54ZM3.65,21.56s-.11-.11-.1-.12c.1-.13.21-.25.32-.38.06.07.13.13.19.2-.14.1-.28.21-.42.3ZM1.93,197.89c-.14-.06-.27-.15-.36-.26-.06-.08-.05-.21-.07-.32-.11-.14-.22-.29-.32-.43l.22-.12c.05.17.1.33.15.5.11.02.25,0,.32.07.11.09.2.23.26.36.01.04-.17.21-.21.2ZM1.68,17.33c.92-.25,1.65-.39,2.22.63-.56.21-1.02.39-1.59.6-.2-.4-.39-.77-.63-1.23ZM3.05,196.12c.09-.58.17-1.11.25-1.65-.11-.02-.25,0-.33-.06-.12-.09-.21-.22-.27-.35-.02-.03.17-.22.2-.2.14.06.27.15.36.27.06.08.04.22.06.33,1,1.01.99,1.15-.27,1.67ZM3.64,237.8c-.06-.05-.12-.1-.18-.16.11-.14.21-.27.32-.41.08.08.16.15.24.23-.12.11-.25.23-.37.34ZM4.13,231.03c-.12-.08-.26-.15-.35-.26-.02-.02.12-.26.16-.25.14.03.27.11.41.18-.09.15-.15.24-.21.33ZM4.78,241.46c.1-.14.21-.28.31-.43.07.05.15.11.22.16-.11.13-.23.27-.34.4-.06-.04-.12-.09-.19-.13ZM5.27,243.14c-.08-.35-.13-.54-.17-.73.02.02.05.05.1.09-.05-.05-.07-.07-.09-.1.16.02.32.05.64.09-.16.21-.26.35-.47.64ZM5.21,195.83c-.54-.69-.44-1.04.53-.96-.21.39-.37.68-.53.96ZM5.2,187.85c.27-.03.48-.05.72-.07q-.23.57-.72.07ZM6.9,243.13s0,0-.02-.01c0,0,0,0,0,0-.21-.16-.42-.33-.74-.57.34-.21.56-.35.91-.58-.08.51-.13.83-.17,1.14,0,0,0,0,.01.01ZM5.92,235s.12-.26.16-.25c.14.02.27.11.41.18-.09.15-.15.24-.21.33-.12-.08-.26-.15-.36-.26ZM5.98,233.6c-.22-.15-.25-.5.28-.9.52.08.99.22.98.9h-1.27ZM8.5,232.64c-.09.47-.22.94-.72,1.19-.11.06-.36-.15-.54-.23.55-.14.15-1.32,1.26-.95ZM7.62,241.66c-.12-.09-.22-.22-.28-.35-.02-.03.17-.22.2-.2.14.06.27.16.36.27.06.08.04.22.05.33-.11-.01-.25.01-.33-.05ZM7.96,241.7c.19-.17.39-.35.67-.6-.02.55.2,1.19-.67.6ZM7.81,225.6c.6-.17.94-.27,1.28-.36.38-.77.76-1.53,1.16-2.34.78.41.38,1.17.41,1.75.03.54-.23,1.1-.36,1.64.51,0,1.23-.14,1.06.97.5-.04.95-.08,1.5-.12.28.73,0,1.35-.61,1.89.28.09.56.19,1.06.35,0,.01.12.26.27.57-.31.15-.56.26-.9.42-.4-.47-.77-.91-1.14-1.35h.71c-.04-.19-.08-.38-.15-.77-.26.36-.41.57-.56.77-.21.19-.42.38-.71.64-.12-.09-.29-.21-.49-.35-.3.12-.66.27-1.1.46v-2.99c.06-.02.25-.08.67-.2-.73-.34-1.28-.59-2.1-.97ZM9.59,241.22c-.06-.05-.11-.1-.17-.15.1-.14.2-.29.3-.43.09.07.18.15.27.22-.13.12-.26.24-.4.36ZM10.1,234.18c.29-.74.62-.59.97,0h-.97ZM11.3,240.21c-.01-.15-.02-.3-.03-.45h.87c.01.1.02.21.03.31l-.87.14ZM13.12,239.16l-.11-.81c.08-.02.17-.04.25-.07l.32.8c-.15.02-.3.04-.45.07ZM13.71,234.49c-.35-.18-.69-.35-1.18-.6.79-.48,1.09-.17,1.36.18-.06.14-.12.28-.19.42ZM14.29,223.34c-.53.17-1.03.26-1.45.49-.38.21-.16,1.15-1.12.84-.17-.63-.37-1.33-.61-2.22.54.41.94.71,1.31.99.61-.56,1.11-1.02,1.61-1.48-.67-.7-.05-1.4,0-2.1-.33-.05-.66-.1-1.14-.17.21-.35.35-.57.62-1.04.24.54.39.86.53,1.19.22-.1.43-.19.57-.25,1.45.05,1.86,1.45,3.24,2.14-1.35.23-2.41.41-3.46.59-.04.34-.07.68-.11,1.02ZM18.49,227.33c-.57.28-.86,1.16-1.84.88.62-.42.81-1.35,1.84-.88ZM14.84,225.02c-.12-.11-.24-.21-.37-.32.04-.05.09-.1.13-.15.12.11.24.22.36.33-.04.05-.08.09-.12.14ZM18.35,239.89c-.12-.09-.21-.22-.28-.35-.02-.03.17-.22.2-.2.13.06.27.16.36.27.06.08.04.22.05.33-.11-.01-.25,0-.33-.05ZM18.46,235.31c-.64-.16-1.25-.32-1.9-.49.03-.29.05-.51.09-.89.64.09,1.19.16,1.8.24.16-.27.34-.59.59-1.02.1.64.18,1.11.27,1.66-.27.16-.57.33-.86.5ZM20.89,222.7c-.28-.51-.53-.98-.78-1.44-.16-.02-.32-.05-.63-.09.15-.21.25-.35.47-.64.08.35.12.54.16.73.62-.11,1.24-.21,1.93-.33.18.49.35.96.59,1.62-.66.06-1.21.11-1.74.16ZM21.94,228.95c.12-.48.21-.83.34-1.33-.26-.38-.49-.71-.79-1.13.2-.53.42-1.09.73-1.91.54,1.14.96,2.02,1.37,2.87-.56.51-1.04.94-1.65,1.5ZM23.48,219.56c.17.92.26,1.44.38,2.05q-.96-.7-.38-2.05ZM29.53,6.13c.21.57.33.87.52,1.4-.61-.15-1.02-.25-1.67-.41.42-.36.69-.59,1.15-.99ZM29.84,85.11c-.06.07-.12.15-.15.22-.03-.18-.07-.36-.08-.54.09.07.16.18.23.31ZM24.7,2.84c.07.06.15.11.22.17-.16.2-.31.41-.47.61-.08-.06-.15-.11-.23-.17.16-.2.31-.41.47-.61ZM24.37,232.51c-.06-.07-.13-.13-.19-.2.14-.1.28-.21.42-.3,0,0,.11.11.1.12-.1.13-.22.25-.33.38ZM24.84,31.48c-.07-.05-.14-.1-.21-.15.08-.12.14-.25.25-.34.04-.03.18.07.27.11-.1.12-.21.25-.31.37ZM25.81,229.6c.3-.73.62-.6.98,0h-.98ZM26.23,226.74c-.75-.75-.22-1.2.6-1.74-.67-.06-.98-.09-1.53-.13.48-.31.78-.51,1.21-.79.27.68.5,1.25.73,1.84-.37.3-.7.57-1.02.82ZM29.1,225.11c-.81-.5-.18-.94-.05-1.38h0c-.51.08-1.02.17-1.62.27.47-1.13,1.95-.64,2.4-2.06.27,1.02.42,1.57.59,2.23-.42.3-.88.63-1.32.95ZM21.2,263.86c-.31.51-.48.8-.71,1.17q-.22-.67.71-1.17ZM19.75,253.72c.07.05.14.11.21.16l-.35.4c-.06-.05-.12-.09-.18-.14.1-.14.21-.28.32-.43ZM18.52,251.72c.14.11.27.23.41.34-.05.06-.09.12-.14.18-.14-.1-.29-.21-.43-.31.05-.07.11-.14.16-.21ZM16.9,254.78c.44-.2.95-.26,1.42-.39.06.16.12.32.18.47-.56.27-1.13.55-1.71.83-.38-.34-.36-.71.11-.92ZM16.63,257.66c.37-.64.63-1.11.93-1.62.41-.04.84-.09,1.14-.12.44.59.83,1.11,1.31,1.74h-3.38ZM20.77,255.45l-.17-.22c.21-.15.42-.31.63-.46.06.07.11.15.17.22l-.63.46ZM31.37,248.85v.87c-.11.01-.22.02-.32.03-.04-.29-.09-.58-.13-.87.15,0,.3-.02.45-.03ZM30.23,242.96c.11.44.18.69.28,1.1-.55-.04-.96-.07-1.37-.1l-.12-.32c.36-.2.72-.41,1.21-.68ZM26.41,245.64c-.52-.26-.89-.45-1.4-.7q1.01-.2,1.4.7ZM22.69,244.26c.05.04.1.09.15.13-.11.12-.22.24-.33.36-.05-.04-.09-.08-.14-.12l.32-.37ZM24.04,255.91s.26.12.26.15c-.03.14-.12.27-.18.4-.15-.09-.24-.15-.34-.21.08-.12.16-.26.26-.35ZM27.71,247.96c-1.1,0-2.23.15-3.16.94.14.25.27.49.47.86-.3-.04-.51-.06-.78-.1-.17.2-.39.45-.6.69-.77-.03-.97-.34-.96-1.09,0-.3-.87-.55-.79-1.2h.74c.11.22.21.44.39.82.32-.64.57-1.15.85-1.71,1.01-.6,2.09-.81,3.39.48-.19-.87-.28-1.29-.39-1.8.29-.13.54-.24.86-.37v-1.91c.1-.04.19-.07.29-.11.35.52.7,1.05,1.12,1.69-.23.28-.55.68-.88,1.09.74.7,1.44.23,2.29.29-.83.94-1.64,1.44-2.84,1.44ZM29.12,250.12c-.15-.09-.24-.15-.33-.2.08-.12.15-.26.26-.35.02-.02.26.12.25.15-.03.14-.11.26-.18.4ZM30.68,251.44c-.2.3-.38.57-.56.84-.09-.39-.19-.77-.28-1.18.42-.3.85-.6,1.26-.88.14.07.31.11.32.18.06.32.07.65.12,1.1-.39-.03-.65-.05-.85-.06ZM31.88,262.07c-.13-.32-.22-.46-.24-.6-.01-.08.09-.25.13-.25.14.01.27.08.4.13-.05.13-.11.26-.3.72ZM48.07,254.43c0,.06,0,.12.01.19-.2.02-.4.03-.6.05,0-.07,0-.13-.01-.2l.6-.03ZM47.27,245.23c.72-.36,1.47-.68,2.15-1.1.51-.32.97-.59,1.61-.41.62.17.63.15,1.18,1.14-.27.95-1.08,1.1-1.87,1.18-.19.35-.34.65-.53,1-.51-.15-.95-.28-1.39-.4-.24.2-.46.37-.76.61-.26-.47-.51-.91-.74-1.3.14-.3.24-.51.34-.72ZM55.07,210.27c.2-.48.31-.74.42-1-.33-.05-.66-.1-1.07-.15q.7-.66,1.08.15c.87-.17,1.61.54,1.62,1,.02,1.12.98,1.3,1.45,1.89v2.19c-.51.27-1.02.53-1.64.85-.24-.19-.53-.43-.92-.73-.38.44-.72.83-1.11,1.28-.55-.9-1.02-1.67-1.52-2.49-.84.15-.05.84-.37,1.33-.43-.15-.9-.32-1.31-.47-.15-.99.67-1.24,1.17-1.8-.18-.44-.37-.9-.56-1.36.16-.1.3-.23.34-.2.55.33,1.5-.44,1.77.62.41-.21.82-.43,1.72-.9-.54-.11-.83-.17-1.06-.22ZM57.61,222.5c-.32.08-.5.15-.68.16-.16,0-.33-.05-.63-.1.44-.72.79-.61,1.31-.06ZM56.11,217.39c-.1.1-.24.17-.36.26-.05-.09-.11-.19-.2-.34.14-.06.27-.15.41-.17.04,0,.18.23.16.25ZM54.24,216.31c-.59.25-.97.42-1.5.64-.02-.45-.04-.81-.07-1.52.67.38,1.01.57,1.57.88ZM52.56,19.36c.65.36.7.75.38,1.3-.26-.03-.47-.05-.83-.09.17-.45.3-.79.46-1.21ZM52.49,17.57c.12-.13.24-.25.36-.38.06.06.12.11.18.17-.12.13-.24.25-.36.38-.06-.06-.12-.11-.18-.17ZM52.76,205.73c.05.47.09.88.15,1.41-.79-.2-.8-.71-.93-1.26.28-.05.5-.1.78-.15ZM53.55,18.18c.07-.06.14-.12.21-.18.1.14.21.27.31.41,0,0-.11.1-.13.1-.13-.1-.26-.21-.39-.32ZM52.99.33c.43.59.8,1.1,1.19,1.64q-.33,1.13-2.36.96c.4-.88.77-1.72,1.16-2.6ZM50.82,6.29c.44.1.85.19,1.27.28.39-.6.86-.31,1.45-.18-.48.95-.99.31-1.44.19-.05.21-.1.42-.19.75-.44-.24-.78-.41-1.11-.61-.04-.03,0-.19.02-.42ZM50.77,10.99s.1,0,.15,0v.7h-.15v-.7ZM50.47,206.23c.07-.21.07-.44.11-.72h1.09c-.31.37-.48.56-.68.79.17.39.36.81.53,1.21-.31.34-.99-.02-1.41-.7-.26.1-.53.21-1.1.43.67-1.12-.27-1.85-.4-3.18.74.53,1.12.81,1.52,1.09v1.63c.11-.18.26-.36.33-.56ZM50.83,208.26c-.04.41-.07.66-.1.96-.97.03-1.59-.31-2.01-.95.1-.12.19-.24.29-.36l.73.59c.31-.07.63-.13,1.09-.23ZM49.6.27c.07.05.14.11.21.16l-.35.4c-.06-.05-.12-.09-.18-.14l.32-.42ZM49.63,5.9c.06.05.12.11.18.16-.11.14-.21.27-.32.41-.08-.08-.16-.15-.24-.23.13-.11.25-.23.38-.34ZM49.57,187.68c-.67-.21-1.09-.33-1.52-.46.72-.68,1.07-.35,1.52.46ZM48.81,20.14c-.17.02-.36.1-.52.06-.13-.04-.22-.21-.45-.45h.95c0,.13.01.26.02.39ZM47.97,209.57l-.34.41c.04-.18.08-.36.12-.54.07.04.15.09.22.13ZM48.63,3.9s.09.08.14.12l-.32.36s-.1-.09-.15-.13c.11-.12.22-.23.33-.35ZM47.88,1.15c-.79.11-1.15-.18-1.59-.79.81-.08,1.18.18,1.59.79ZM47.63,209.98c-.04.18-.08.36-.12.54-.07-.04-.15-.09-.22-.13l.34-.41ZM45.85,15.59c.24-.13.49-.26.86-.45-.03.46-.06.84-.1,1.35-.56-.15-.99-.27-1.31-.35-.13-.14-.2-.18-.2-.23,0-.48,0-.96,0-1.44,1.22-.19.49.76.76,1.12ZM46.56,186.33c-.07.09-.15.17-.22.26-.12-.13-.24-.26-.36-.39.05-.05.1-.11.15-.16.14.1.28.2.43.29ZM44.95,22.6c.09,0,.18,0,.26,0v.75c-.09,0-.18,0-.26,0v-.75ZM45.79,205.97c-.43-.88-.72-1.47-1.05-2.12,1.39.16,1.6.52,1.05,2.12ZM45.76,210.57c-.45.04-.9.08-1.35.11.29-.66.59-1.33.88-1.99l.24.04c.07.57.14,1.14.23,1.85ZM44.03,9.36c.78.43.58.88,0,1.35v-1.35ZM43.34,182.36c.32-.24.76-.32,1.21-.5.78,1.22-1.49.86-.99,1.9-.72-.53-.74-1.01-.22-1.4ZM44.41,210.68c-.15.29-.3.58-.48.91q-.15-.65.48-.91ZM43.39,204.99c-.16.43-.32.87-.55,1.52-.29-.79-.33-1.28.55-1.52ZM42.66,7.42c.14-.01.28.05.44.09-.07.16-.13.34-.16.34-.14-.02-.28-.09-.41-.14.04-.1.08-.28.13-.28ZM40.49,9.01c.08.35.13.54.17.74.17-.52.34-1.03.48-1.47.48.2.99.4,1.59.65.11.26.25.61.39.95-.08.06-.15.12-.23.17l-.81-.65h0c-.33.86-.54.91-1.44.36-.16-.03-.32-.05-.63-.1.16-.21.26-.36.48-.65ZM40.81,209.31l-.17.18c-.13-.12-.26-.24-.39-.36.06-.06.11-.12.17-.18.13.12.26.24.39.36ZM39.9,207.26c.06.05.12.09.19.14-.11.14-.21.29-.32.43-.07-.05-.15-.11-.22-.16l.35-.41ZM36.52,216.27c.28-.17.51-.41,1.02-.84.05.64.08.92.11,1.27-.31.1-.6.19-.94.3-.1.58-.19,1.13-.31,1.83-.95-.57-.25-1.52-.97-2.07.49-.21.81-.31,1.1-.49ZM32.36,212.2s.17.23.16.25c-.1.1-.24.17-.36.26-.05-.09-.11-.19-.2-.34.14-.06.27-.15.41-.17ZM31.58,181.09c.06.07.13.14.19.21-.14.11-.28.21-.43.31,0,0-.11-.11-.1-.13.1-.13.22-.26.34-.39ZM35.7,232.88c-.79-.22-1.38-.38-2.11-.58.59-.25,1.03-.37,1.4-.6.35-.22.63-.56,1.21-.67-.16.58-.31,1.15-.5,1.86ZM33.1,255.34c-.43-.47-.63-.7-1.05-1.15.7-.04,1.1-.07,1.5-.09l.28.5c-.22.22-.43.44-.73.74ZM34.5,242.66c-.14-.03-.27-.11-.41-.18.09-.15.15-.24.21-.33.12.08.26.15.36.26.02.02-.12.26-.16.25ZM34.94,256.56c1.21-.12,1.26.78,1.43,1.55-.88-.14-1.29-.67-1.43-1.55ZM35.25,248.9c.11-.12.22-.23.33-.35.05.04.09.08.14.12-.11.12-.21.24-.32.36-.05-.04-.1-.09-.15-.13ZM35.47,247.7c.26-.23.51-.46,1.02-.91-.03.89-.22,1.17-1.02.91ZM37.15,241.97c-.62-.01-.92-.16-.72-.74.19-.55-.24-.54-.59-.59h-.01c-.05.22-.11.43-.27,1.06-.29-.77-.43-1.15-.59-1.58-.12.07-.33.11-.38.22-.36.79-.92,1.35-1.81,1.59-.14-.06-.29-.14-.46-.2-.48-.19-.9-.5-.72-1.03.11-.31.5-.59.83-.75.89-.43.9-.41,1.34-1.18.64-.24,1.27-.49,2.01-.77.14.07.39.2.72.37-.35.29-.61.51-.89.73.24.33.47.66.71.99.26-.02.52-.04.82-.06v1.94ZM40.33,228.21c.03.21.05.42.08.62-.51.07-.93.13-1.35.18-.24-.4-.48-.42-.72,0h0c.24,0,.47,0,.71,0,.07.16.14.32.23.5-.45,1.02-1.5.94-2.51,1.4.02-.42.04-.66.06-1-.37-.19-.77-.39-1.3-.66-.43.41-.84.8-1.39,1.31-.98-.5-1.58.79-2.65.94-.1-.52-.2-1-.32-1.59.56-.11,1.05-.21,1.56-.31.28-.73.57-1.48.89-2.28,1.15.11,2.27-.17,3.17.89.71-1.04,1.78-.28,2.75-.45.09-.32.16-.59.24-.86.18-.04.35-.07.53-.11-.04-.07-.08-.15-.11-.22-.14.11-.28.22-.42.33-.46.06-.56-.17-.59-.58-.01-.12-.49-.2-.87-.35.19-.24.32-.41.5-.65-.06-.75-.13-1.6-.2-2.47-.54.07-.98.96-1.62-.03.13-.72.72-1.68-.59-2.49.97-.46,1.73-.83,2.47-1.18v-2.15q1.04-.22,1.43,1.25c.33-.05.66-.1,1.3-.2-.44.63-.72,1.02-1.02,1.45.17.66.35,1.39.55,2.21-.18.26-.4.59-.69,1.02.22.03.36.08.48.07,1.55-.17,1.94.18,1.95,1.77-.16.02-.31.05-.5.08.19.67.38,1.34.53,1.88-.27.31-.46.53-.65.74h-1.19c-.17.34-.38.76-.58,1.17-.06-.07-.12-.14-.17-.21ZM42.9,227.34c-.16.21-.26.35-.47.64-.08-.36-.12-.55-.16-.74.16.02.32.05.63.09ZM41.4,256.36s-.08-.18-.14-.34c.15-.03.3-.09.43-.07.05,0,.09.18.13.28-.14.05-.27.11-.42.13ZM40.85,232.67c-.56-.87.15-1.04.44-1.41.21.07.42.14.63.22,0,0,0,0,0,0,0,0,0,0,0,0-.33.37-.66.74-1.06,1.19ZM42.52,244.7s-.1,0-.14,0v-.69s.1,0,.14,0v.69ZM42.25,241.18q.6-.49,1.21.16c-.37-.05-.73-.1-1.21-.16ZM43.67,223.78c-.44-.72-.47-1.22.26-1.76.15.64.3,1.16-.26,1.76ZM44.5,217.64c-.31-.35-.62-.69-.94-1.05-.27.13-.6.28-.93.44-.14.11-.28.22-.42.34-.04-.08-.08-.15-.12-.23l.54-.11c-.12-.7-.24-1.41-.35-2.11.36.12.71.23,1.07.35.13-.3.25-.3.36,0,.34-.22.68-.45,1.13-.75.17.75.32,1.42.53,2.31.39-.3.63-.49.96-.75.09.03.37.1.75.21.35-1.44,1.98-.8,2.72-1.76.56.44,1.06.84,1.69,1.33-.04.58.58,1.25-.12,2.16-.09-.6-.16-1.04-.23-1.5-.08.04-.14.06-.16.09-.04.04-.05.1-.07.15-.03.11-.05.23-.1.45-.88-.06-1.78-.13-2.64-.19-.46.41-.88.78-1.37,1.22-.4-.41-.7-.74-.9-.94-.5.13-.9.23-1.35.35ZM48.21,218.59c-.05.06-.1.11-.15.17l-.43-.3c.07-.09.15-.17.22-.26.12.13.24.26.36.39ZM46.56,223.16c.51.44.38.7,0,.92v-.92ZM45.51,227.67c.15-.22.29-.43.44-.65.08.05.15.1.23.15-.14.22-.29.44-.43.65-.08-.05-.16-.1-.23-.15ZM46.56,232.69c-.33-.53-.45-.74-.65-1.05.26-.06.45-.11.65-.16v1.21ZM46.76,230.53c-.08.23-.14.41-.21.6-.51-.34-.42-.52.21-.6ZM46.56,231.48v-.35c.32.12.31.23,0,.35ZM47.26,228.32c-.25.07-.49.13-.98.27.26-.81.1-1.5.85-1.94.06.6.11,1.12.16,1.65.11,0,.23.01.34.01-.11.31-.23.31-.37.01ZM47.73,226.12c-.13-.05-.27-.11-.76-.31.35-.13.49-.21.64-.22.08,0,.25.09.25.13,0,.14-.08.27-.13.4ZM49.19,230.71c-.16-.07-.34-.12-.34-.15.02-.14.09-.27.14-.4.1.04.28.08.28.13.01.13-.05.28-.08.43ZM52.89,229.03c-.81-.71-.21-.82.27-.97-.07.26-.15.52-.27.97ZM52.99,224.08v.98c-.56-.19-.96-.33-1.37-.47.09-.19.12-.36.18-.37.39-.07.8-.1,1.19-.14-.26-.91-1.03-1.15-1.83-1.35-.35.99-.7,1.98-1.03,2.91-.51-.68-.97-1.29-1.42-1.9.04.46-.46.93,0,1.4l.49.09c-.02.05-.03.1-.05.15-.15-.07-.3-.15-.46-.22-.28-.02-.56-.04-.83-.06q-.17-1,.83-1.36c.14-.48.29-.96.45-1.5-.93-.28-1.7-.52-2.52-.76v-1.19c.33.2.56.34.82.5.64-.36,1.33-.68,1.94-1.1.57-.39,1.02-.83,1.86-.74.68.07,1.4-.31,2.1-.49.36.82,1.1-.16,1.6.36-.26.39-.52.79-.86,1.31.35.14.63.25.97.38.3.61-.07,1.1-.97,1.67.77-.1,1.09-.14,1.54-.2.06.6.12,1.18.18,1.86-1.05.1-1.93.18-2.82.26ZM60.55,232.5c-.11-.09-.23-.17-.32-.28-.02-.02.09-.15.14-.23.12.1.24.21.36.31-.06.06-.12.13-.18.19ZM60.52,229.01c-.27-.29-.53-.57-.81-.88-.31.06-.64.13-1.03.2-.35-.29-.67-.63-1.06-.87-.15-.09-.45.08-.69.14-.02-.02-.04-.04-.08-.07.03.04.05.05.07.07-.27.1-.53.2-.85.32-.36-.72-.3-1.26.39-1.69.29.09.57.17.85.25.14-.27.28-.54.44-.84-.07-.1-.18-.26-.32-.47.77-.71,1.66-.31,2.56-.37.24.82-.99,1.57-.02,2.28,1.06-.58,1.12-1.74,1.6-2.66.12-.31.24-.31.36,0,.42.61.84,1.22,1.16,1.68.05.77.09,1.37.14,2.03-.8.42-1.94-.08-2.7.86ZM61.82,232.42l-.23-.23c.12-.11.25-.22.37-.34.06.05.12.1.18.16-.11.14-.21.27-.32.41ZM63.25,231.83c-.36-.57-.73-.94-.12-1.28.77.3.26.7.12,1.28ZM73.55,230.17v.86c-.1.01-.21.02-.31.03-.05-.29-.1-.58-.15-.87.15,0,.3-.02.46-.03ZM68.89,217.42c.56-.99,1.15-.65,1.61-.75-.43.2-.86.4-1.61.75ZM69.3,219.73l-.19-.13c.11-.14.21-.28.32-.43.07.05.14.11.22.16-.12.13-.23.27-.35.4ZM72.25,230.14c-.17.05-.34.1-.58.17-.06.29-.14.67-.26,1.22-.25-.18-.4-.29-.55-.4h0c-.95.07-.57-.84-.96-1.16.84-.93,1.57-.28,2.35.17ZM70.65,226.41c.08.47.12.74.18,1.13-.41-.18-.66-.29-1.04-.46.3-.23.5-.39.86-.67ZM74.54,194.29h.15v.7s-.1,0-.15,0v-.7ZM72.53,185.32c.26.03.47.05.83.09-.17.45-.3.79-.46,1.21-.65-.36-.7-.75-.38-1.3ZM72.97,188.41c-.12.13-.24.25-.36.38-.06-.06-.12-.11-.18-.17.12-.13.24-.25.36-.38.06.06.12.11.18.17ZM73.36,199.4c.05-.21.1-.42.19-.75.44.24.78.41,1.11.61.04.03,0,.19-.02.42-.44-.1-.85-.19-1.27-.28-.39.6-.86.31-1.45.18.48-.95.99-.31,1.44-.19ZM71.52,187.47c.13.1.26.21.39.32-.07.06-.14.12-.21.18-.1-.14-.21-.27-.31-.41,0,0,.11-.1.13-.1ZM71.57,207.87c-.11-.14-.22-.28-.34-.42.08-.04.15-.08.23-.11.04.17.08.35.12.52.24-.12.47-.23.71-.35q-.17.79-.72.36ZM72.29,207.51c.04-.18.07-.35.11-.53.08.04.15.08.23.12-.11.14-.23.28-.34.42ZM72.47,205.65c-.43-.59-.8-1.1-1.19-1.64q.33-1.13,2.36-.96c-.4.88-.77,1.72-1.17,2.6ZM74.07,213.4c-.11-.1-.18-.24-.26-.36.09-.05.19-.11.34-.19.06.14.15.26.17.4,0,.04-.23.17-.25.15ZM74.04,208.61c-.21-.31-.38-.57-.62-.94.36-.18.56-.27.84-.41.15.28.29.55.46.85-.24.17-.41.3-.68.5ZM78.2,212.91c-.04.07-.09.15-.13.22-.14-.11-.27-.22-.41-.33,0,0,0,0,0,0,.18.04.36.08.55.12ZM75.93,208.55c.05.12.1.25.15.37-.26.08-.52.16-.78.24-.04-.1-.07-.19-.11-.29.25-.11.49-.22.74-.32ZM79.12,19.39c.12.13.24.26.36.39-.05.05-.1.11-.15.16-.14-.1-.28-.2-.43-.29.07-.09.15-.17.22-.26ZM75.86,205.71c-.07-.05-.14-.11-.21-.16l.35-.4c.06.05.12.09.18.14l-.32.42ZM75.83,200.08c-.06-.05-.12-.11-.18-.16.11-.14.21-.27.32-.41.08.08.16.15.24.23-.13.11-.25.23-.38.34ZM75.89,18.3c.67.21,1.09.34,1.52.46-.72.68-1.07.35-1.52-.46ZM76.65,185.84c.17-.02.36-.1.52-.06.13.04.22.21.45.45h-.95c0-.13-.01-.26-.02-.39ZM76.83,202.08s-.09-.08-.14-.12l.32-.36s.1.09.15.13c-.11.12-.22.23-.33.35ZM77.58,204.83c.79-.11,1.15.18,1.59.79-.81.08-1.18-.18-1.59-.79ZM79.61,190.39c-.24.13-.49.26-.86.45.03-.46.06-.84.1-1.35.56.15.99.27,1.31.35.13.14.2.18.2.23,0,.48,0,.96,0,1.44-1.22.19-.49-.76-.76-1.12ZM80.51,183.38c-.09,0-.18,0-.26,0v-.75c.09,0,.18,0,.26,0v.75ZM79.67,0c.43.88.72,1.47,1.05,2.12-1.39-.16-1.6-.52-1.05-2.12ZM81.43,196.62c-.78-.43-.58-.88,0-1.35v1.35ZM82.12,23.62c-.32.24-.76.32-1.21.5-.78-1.22,1.49-.86.99-1.9.72.53.74,1.01.22,1.4ZM82.8,198.56c-.14.01-.28-.05-.44-.09.07-.16.13-.34.16-.34.14.02.28.09.41.14-.04.1-.08.28-.13.28ZM84.97,196.97c-.08-.35-.13-.54-.17-.74-.17.52-.34,1.03-.48,1.47-.48-.2-.99-.41-1.59-.65-.11-.26-.25-.61-.39-.95.08-.06.15-.12.23-.17l.81.65h0c.33-.86.54-.91,1.44-.36.16.03.32.05.63.1-.16.21-.26.36-.48.65ZM83.84,207.68c-.04-.17-.08-.35-.11-.52.11.14.23.27.34.41-.07.04-.15.08-.22.11ZM89.63,224.63c-.06-.06-.12-.13-.19-.19-.17-.03-.33-.05-.53-.09.02-.32.04-.62.05-.92.08-.01.17-.02.25-.04.08.34.16.69.24,1.03.07.06.13.12.2.18l-.02.02ZM99.83,223.67c-.3.53-.46.8-.64,1.11q-.5-.76.64-1.11ZM95.11,212.11c.14.11.27.22.41.33.02.03.04.04.05.05-.01-.01-.03-.03-.04-.05-.18-.04-.36-.08-.55-.12.04-.07.09-.15.13-.22ZM95.72,221.84c.2-.55-.43-1.33.64-1.62.09.37.18.72.3,1.18-.44.21-.69.32-.94.44ZM96.59,217.73c.04.25-.05.49.42.54.75.09.79.54.27,1.05-.34-.2-.65-.39-1.04-.62-.24.42-.42.75-.67,1.2-.39-.32-.74-.6-1.05-.86q.57-1.55,2.08-1.31ZM90.89,222.96c.08-.04.15-.07.23-.11.04.17.08.35.11.52-.11-.14-.23-.27-.34-.41ZM94.31,217.66c-.53-.15-1.05-.29-1.64-.46.14-.36.25-.62.35-.88.02.02.03.02.05.05-.02-.03-.03-.04-.05-.05.27-.11.53-.22.76-.32.73.36.75.9.53,1.66ZM93.98,215.41c-1.04.3-1.04.29-1.93-.09,1.25-1.06,1.31-1.05,1.93.09ZM92.39,219.79c.11.57.14,1.06.3,1.5.17.48.46.91.69,1.37.21-.32.42-.64.63-.97q.48.73.25,1.94c-.67.02-.89-.35-.91-.95-.37.12-.75.25-1.2.4-.04-.61,0-1.1-.11-1.55-.1-.44-.33-.85-.55-1.38.33-.13.57-.23.89-.36ZM91.23,211.39c0,.23,0,.46,0,.7-.21-.12-.42-.23-.63-.35.21-.12.42-.23.63-.35ZM90.54,216.37c.2.14.48.32.75.5.23.16.45.32.65.46-.09.92-.68.86-1.15.63-.39-.19-.66-.61-.99-.93-.16-.03-.33-.05-.84-.14.43-.09.55-.15.64-.12.09.04.14.16.21.25.21-.19.42-.38.73-.66ZM90.22,212.39c-.23.8-.38,1.17-1.28.83.45-.29.73-.48,1.28-.83ZM86.19,206.95c-.27.15-.52.28-.97.53-.03-.66-.05-1.19-.07-1.73.8,0,.85.62,1.04,1.2ZM85.64,212.14c-.89-.61-.91-1.39-.78-2.35.42-.18.88-.39,1.51-.66.22.61.4,1.08.57,1.55-.42.47-.83.94-1.3,1.46ZM87.43,212.53c-.01.23-.03.46-.04.72.33.45.67.92,1.01,1.38.25.44.64,1.13-.02,1.69-.38-.76-.75-1.53-1.16-2.28-.29-.53-.4-1.03.21-1.51ZM87.3,216.32s.01.01.02.02c-.14-.15-.08-.09-.02-.02.36-.23.71-.23,1.07,0,.06.16.13.31.19.47-.3.43-.6.85-.89,1.28-.36-.46-.72-.93-1.08-1.39l.71-.35ZM93.88,24.89c-.06-.07-.13-.14-.19-.21.14-.11.28-.21.43-.31,0,0,.11.11.1.13-.1.13-.22.26-.34.39ZM95.77,120.65c.03.18.07.36.08.54-.09-.07-.16-.18-.23-.31.06-.07.12-.15.15-.22ZM95.93,199.85c-.21-.57-.33-.87-.52-1.4.61.15,1.02.25,1.67.41-.42.36-.69.59-1.15.99ZM100.62,174.51c.07.05.14.1.21.15-.08.12-.14.25-.25.34-.03.03-.18-.07-.27-.11.1-.12.21-.25.31-.37ZM100.76,203.14c-.07-.06-.15-.11-.22-.17.16-.2.31-.41.47-.61.08.06.15.11.23.17l-.47.61ZM103.47,184.49c-.03-.26-.05-.47-.08-.71q.6.23.08.71ZM113.78,179.33l.19.2c-.14.1-.28.21-.42.3,0,0-.11-.11-.1-.12.1-.13.22-.25.33-.38ZM112.53,17.18c.06.07.12.14.19.2-.14.1-.28.21-.42.3,0,0-.11-.11-.1-.12.1-.13.22-.26.33-.38ZM113.43,18.96c-.38.09-.75.18-1.32.32.3-.9.76-.72,1.32-.32ZM113.09,182.16c-.11.05-.23.1-.34.15-.11-.36-.23-.73-.34-1.09.12-.04.25-.07.37-.11l.31,1.05ZM112.1,182.93c.19.36.33.63.53,1.02.41-.24.77-.45,1.15-.67,1.16.58.07,1.71.55,2.29-.31.43-.58.79-.85,1.16-1.11-.72-.37-2.42-2.01-2.54.27-.55.43-.85.63-1.26ZM113.43,214.5c.02-.47.04-.82.06-1.32q.54.71-.06,1.32ZM112.23,185.86c-.24-.21-.43-.39-.62-.56,0,0,0,0,0,0,.86-.57.67.03.62.56ZM111.18,21.57c.08.04.15.08.22.11-.11.14-.23.27-.34.41.04-.17.08-.35.11-.52ZM111.07,22.09c-.44.59-.67.21-1.14-.41.57.21.86.31,1.14.41ZM112.78,220.29c.33.27.6.48,1.04.83-.95.19-1.2-.04-1.04-.83ZM113.92,217.73c-.67-.06-1.28-.12-1.96-.18-.19-.24-.4-.52-.65-.83-.34.03-.71.06-1.15.1.13-.21.17-.36.25-.38.57-.19,1.15-.35,1.68-.81h-1.21c-.15-.77.78-.84.94-.84.84-.02,1.69.18,2.56.3-.07.21-.1.39-.14.4-.33.02-.67.01-1.11.01v1.14c.46-.02.84-.04,1.34-.07-.2.41-.36.76-.56,1.18ZM115.25,14.69s-.12.26-.15.25c-.14-.03-.27-.11-.41-.18.09-.15.15-.24.21-.33.12.08.26.15.35.26ZM115.18,13.08s.11-.1.13-.1c.13.1.26.21.38.32-.07.06-.13.12-.2.19-.1-.14-.21-.27-.31-.41ZM115.35,205.76c-.21-.48-.35-.83-.55-1.29h1.63c-.45.54-.72.86-1.08,1.29ZM116.62,9.42c.07-.44.12-.76.17-1.08-.67.27-1.35.54-2.09.85-.16-.83.43-1.31.78-1.91.67.23,1.31.28,1.31,1.06.26-.11.51-.23.86-.38v1.23c-.33.07-.64.14-1.03.23ZM117.38,212.16v-.93c.72.12.6.37,0,.93ZM116.88,5.47v-1.79c.31.21.46.32.62.43h0c.19.12.38.25.66.43-.44.32-.8.58-1.28.93ZM117.16,3.16q.74-.5,1.14.63c-.55-.3-.83-.46-1.14-.63ZM121.08,20.01c.07.05.14.11.21.16-.12.13-.23.27-.35.4-.06-.05-.12-.09-.18-.14.11-.14.21-.28.32-.43ZM120.25,10.15c.54.69.44,1.04-.53.96.21-.39.37-.68.53-.96ZM120.26,18.13c-.27.03-.48.05-.72.07q.23-.57.72-.07ZM120.08,207.42c-.05-.09-.11-.19-.2-.34.14-.06.27-.15.41-.17.04,0,.18.23.16.25-.1.1-.24.17-.37.25ZM119.96,142.65q.06-1.22,1.6-1.54v.85c-.46.2-.95.41-1.6.69ZM121.31,139.54c.08-.12.14-.25.24-.34.03-.03.18.07.27.11-.1.12-.2.25-.31.37-.07-.05-.14-.1-.21-.15ZM121.81,184.42s.11.11.1.12c-.1.13-.21.25-.33.38-.06-.07-.13-.13-.19-.2.14-.1.28-.21.42-.3ZM124.47,212.79c-.11-.14-.23-.27-.34-.41l.23-.11c.04.17.08.35.11.52ZM123.53,8.09c.14.06.27.15.36.26.06.08.05.21.07.32.11.14.22.29.32.43l-.22.12c-.05-.17-.1-.33-.15-.5-.11-.02-.25,0-.32-.07-.11-.09-.2-.23-.26-.36-.01-.04.17-.21.21-.2ZM123.78,188.65c-.92.25-1.65.39-2.22-.63.56-.21,1.02-.39,1.59-.6.2.4.4.77.63,1.23ZM122.41,9.86c-.09.58-.17,1.11-.25,1.65.11.02.25,0,.33.06.12.09.21.22.27.35.02.03-.17.22-.2.2-.14-.06-.27-.15-.36-.27-.06-.08-.04-.21-.06-.33-1-1.01-.99-1.15.27-1.67Z"/>
      <path class="cls-1" d="M2.06,240.84c-.04-.09-.08-.19-.11-.28.08,0,.16,0,.24,0l-.13.27Z"/>
      <path class="cls-1" d="M76.04,210.88c-.04-.09-.08-.19-.11-.28.08,0,.16,0,.24,0-.04.09-.08.18-.13.27Z"/>
      <path class="cls-1" d="M118.52,8.97l-.13.27c-.04-.09-.08-.19-.11-.28.08,0,.16,0,.24,0Z"/>
      <path class="cls-1" d="M84.56,3.49c-.08,0-.16,0-.24,0,.04-.09.08-.18.13-.28.04.09.08.19.12.28Z"/>
      <path class="cls-1" d="M78.67,202.66c-.08,0-.16,0-.24,0,.04-.09.08-.18.13-.27.04.09.08.19.11.28Z"/>
      <path class="cls-1" d="M54.01,217.3c-.04.09-.09.19-.13.28-.04-.1-.08-.19-.12-.29.08,0,.17,0,.25,0Z"/>
      <path class="cls-1" d="M46.8,3.32c.08,0,.16,0,.24,0-.04.09-.08.18-.13.27-.04-.09-.08-.19-.11-.28Z"/>
      <path class="cls-1" d="M77.21,88.54s0-.09,0-.13c.02,0,.04.02.05.02l-.06.11Z"/>
      <path class="cls-1" d="M71.49,115.16s.02.05.03.07c-.02,0-.04,0-.06,0,.01-.02.02-.04.03-.07Z"/>
      <path class="cls-1" d="M48.25,117.44s0,.09,0,.13c-.02,0-.04-.02-.05-.02l.06-.11Z"/>
      <path class="cls-1" d="M53.97,90.82s-.02-.05-.03-.07c.02,0,.04,0,.06,0-.01.02-.02.04-.03.07Z"/>
      <path class="cls-1" d="M30.04,84.87s-.07.09-.11.13c.04-.05.07-.09.11-.13Z"/>
      <path class="cls-1" d="M95.42,121.11s.07-.09.11-.13c-.04.05-.07.09-.11.13Z"/>
      <path class="cls-1" d="M59.69,27.43v.24c-.1-.04-.2-.09-.29-.13.1-.04.19-.08.29-.12Z"/>
      <path class="cls-1" d="M37.89,2.41c0,.08,0,.16,0,.24-.09-.04-.18-.08-.28-.12.09-.04.19-.08.28-.11Z"/>
      <path class="cls-1" d="M30.74,30.26c0,.08,0,.16,0,.24-.09-.04-.18-.08-.28-.12.09-.04.19-.08.28-.11Z"/>
      <path class="cls-1" d="M5.01,22.15c0,.08,0,.16,0,.24l-.28-.13c.1-.04.19-.08.29-.11Z"/>
      <path class="cls-1" d="M4.15,14.26c-.04.09-.09.19-.13.28-.04-.1-.08-.19-.12-.29.08,0,.16,0,.25,0Z"/>
      <path class="cls-1" d="M41.14,202.5c-.04.09-.08.18-.13.28-.04-.09-.08-.19-.12-.28.08,0,.16,0,.24,0Z"/>
      <path class="cls-1" d="M40.68,211.92c-.09.04-.19.08-.28.11,0-.08,0-.16,0-.24.09.04.18.08.28.12Z"/>
      <path class="cls-1" d="M6.94,197.01l.13-.27c.04.09.08.19.11.28-.08,0-.16,0-.24,0Z"/>
      <path class="cls-1" d="M3.61,185.74c-.08,0-.16,0-.24,0,.04-.09.08-.18.13-.27.04.09.08.19.11.28Z"/>
      <path class="cls-1" d="M5.73,238.12v-.24c.1.04.19.08.29.13-.1.04-.19.08-.29.11Z"/>
      <path class="cls-1" d="M10.87,243.19l.13-.28c.04.1.08.19.12.28-.08,0-.16,0-.25,0Z"/>
      <path class="cls-1" d="M15.02,238.12c0-.08,0-.16,0-.24l.28.13c-.1.04-.19.08-.29.11Z"/>
      <path class="cls-1" d="M65.77,178.55v-.24c.1.04.2.09.29.13-.1.04-.19.08-.29.12Z"/>
      <path class="cls-1" d="M87.58,203.57c0-.08,0-.16,0-.24.09.04.18.08.28.12-.09.04-.19.08-.28.11Z"/>
      <path class="cls-1" d="M94.72,175.72c0-.08,0-.16,0-.24l.28.12c-.09.04-.19.08-.28.11Z"/>
      <path class="cls-1" d="M120.45,183.83c0-.08,0-.16,0-.24l.28.13c-.1.04-.19.08-.29.11Z"/>
      <path class="cls-1" d="M121.31,191.72c.04-.09.09-.19.13-.28.04.1.08.19.12.29-.08,0-.16,0-.25,0Z"/>
      <path class="cls-1" d="M121.85,20.24h.24c-.04.1-.08.19-.13.28-.04-.09-.08-.19-.11-.28Z"/>
      <polygon class="cls-1" points="55.85 249.46 55.85 249.46 55.85 249.46 55.85 249.46"/>
      <path class="cls-1" d="M58.97,260.36c.47-.06.95-.12,1.46-.19.04-.61.08-1.17.12-1.73h.36c.43-1.01.84-1.99,1.24-2.93-.82-1.21-.75-2.61-.95-3.95h0c-.55-.28-.88-.68-1.11-1.28-.26-.66-.73-1.24-1.16-1.93.14-.29.84-.66.13-1.14-.54.31-1.07.59-1.56.91-.23.15-.39.41-.59.62-.36.24-.71.47-1.07.71.34.17.68.34,1,.5.68-.14,1.35-.27,2.08-.42.11.56.21,1.05.3,1.53q-2.26,1.61-2.58,2.41,1.6,1.66,1.57,2.81c-.26-.01-.52-.02-.83-.04.38.8.34,3.16-.05,4.45-.63.03-1.28.06-1.92.09l.34.38c-.4.14-.8.29-1.24.45,1.06.81,1.87-.21,2.81-.13.26.16.55.34.9.57.24-.55.47-1.07.74-1.68ZM56.92,248.76c.24.12.47.23.71.35-.01.01-.03.03-.04.04-.5.4-.51.38-.67-.39Z"/>
      <path class="cls-1" d="M125.19,221.61c-.08.34-.16.67-.31,1.31-.31-.58-.45-.84-.62-1.16-.34.46-.65.87-1.02,1.36-.58-.41-1.12-.79-1.63-1.15-.3.14-.51.24-.72.34h0c-.24.06-.49.1-.71.2-.25.12-.48.29-.65.4.63.58,1.15,1.07,1.63,1.52.19-.5.41-1.06.7-1.83.29.58.48.95.66,1.33.29-.17.5-.3.84-.51-.12.55-.19.86-.25,1.18.77.43,1.46.83,2.18,1.23.08-.12.12-.26.15-.41v-3.84c-.09,0-.18.02-.27.03h0Z"/>
      <path class="cls-1" d="M46.98,277.03c-.28.19-.57.39-1.2.82.19-.7.19-1.13.41-1.36.33-.36.14-.63.02-.94.64.21,1.28.42,1.93.63v-2.45c-.24-.09-.55-.2-.87-.31h0c-.66.56-.94,1.3-1.08,2.11h-2.11c.36.61.61,1.03,1.03,1.75-.65-.25-.97-.37-1.29-.49-.27.39-.53.76-.82,1.17.59.86-.22,1.6-.19,2.62.39.08.81.16,1.24.24h0c.22-.14.44-.28.68-.43.38.9,1.15,1.13,1.82,1.52q.58-1.26,0-2.15h0s0,0,0,0h0c-.26-.33-.52-.67-.79-1.01,1.24-.76,1.64-1.3,1.21-1.73ZM46.5,279.84s.03-.03.05-.06h0s-.04.04-.05.06ZM46.53,279.81c-.07.06-.04.04,0,0h0ZM44.48,278.71c.17-.4.27-.64.44-1.02.24.26.4.44.83.89-.62.06-.87.09-1.26.13Z"/>
      <path class="cls-1" d="M10.47,250.15c.16.03.32.06.62.11-.15.21-.25.35-.46.63-.09-.34-.14-.53-.18-.72-.38.05-.76.11-1.34.19.32-1.03.59-1.89.86-2.75-.24-.27-.51-.56-.78-.86-.32.17-.57.31-.92.49.09.65.17,1.27.28,2.07-.13.57-.92,1.2-.45,2.1.35-.17.69-.34,1.11-.56.13.52.22.9.32,1.3.65.13,1.25.26,1.84.38.04-.09.07-.17.11-.26-.29-.19-.57-.38-.97-.65.46-.23.86-.43,1.33-.66.22-.5.48-1.07.75-1.69-.5-.2-.86-.35-1.32-.54-.3.52-.56.97-.81,1.42Z"/>
      <path class="cls-1" d="M37.84,274.06c.02-.05.03-.1.05-.15.15.07.3.15.45.22.55-.39,1.1-.78,1.65-1.17-.91-.42-1.73-.79-2.53-1.16-1.36.41-.58,1.84-1.15,2.62-.55-.12-.74-1.01-1.49-.36.17.47.36.97.53,1.45.36.02.6.03.83.05.13.29.25.3.36,0,.82.17.56-.78,1.08-1,.33.39.97.53.9,1.26-.01.12.37.28.62.44v-1.59c-.36-.23-.59-.37-.82-.52l-.49-.08ZM36.55,275.55c-.12,0-.23,0-.35,0-.06-.15-.13-.31-.22-.52.13-.06.26-.14.39-.16.1-.01.21.05.38.1-.07.2-.14.39-.21.59Z"/>
      <path class="cls-1" d="M112.88,229.87c.11-.01.26.2.35.27.1.45-.88.72.08,1.28.96-1.22,1.86-2.49,2.47-4.07-.5-.1-.96-.18-1.51-.29.05.46.08.74.13,1.23-1.1.07-2.05.13-3.07.2.16.88.48,1.5,1.55,1.37Z"/>
      <path class="cls-1" d="M116.77,243.76c-.2-.55-.29-1.1-.58-1.51-.35-.5-.86-.9-1.3-1.34.25-.24.42-.39.59-.56-1.05-.78-2.52-.58-3.03-2.03-.61.93.02,1.71-.04,2.46h1.72c-.27.4-.43.65-.73,1.1h1.6c.34.35.61.63.85.88-.04.38-.07.69-.1,1h1.01Z"/>
      <path class="cls-1" d="M121.5,241.1c-1.01-.26-1.38-1.41-2.43-1.5-.18.48-.48.91-.46,1.33.04.75.77.7,1.31.88.29.1.5.43.74.65.59-.39,1.1-.72,1.49-.98.12-.52.21-.88.31-1.31-.23-.06-.43-.1-.69-.17-.11.44-.19.8-.26,1.1Z"/>
      <path class="cls-1" d="M30.68,254.43c-.69.24-1.15.4-1.57.55-.29-.34-.49-.56-.81-.94-.25.89-.44,1.59-.64,2.32.26.3.49.56.72.82.71-.36,1.29-.64,1.98-.99.11-.59.19-1.07.32-1.76Z"/>
      <path class="cls-1" d="M90.49,229.08c.28.51.51.93.75,1.35h0c.03.16.07.33.12.57.45-.16.85-.3,1.3-.45-.28-.36-.47-.62-.74-.96.34-.09.55-.15.77-.21.21-.06.43-.13.68-.21-.05-.28-.08-.5-.11-.68q-2.22-.26-2.76.62ZM91.24,230.42h0c.06-.06.12-.13,0,0Z"/>
      <path class="cls-1" d="M74.91,242.92c-.32-.34-.61-.65-.98-1.04-.72.48-1.32.88-2.09,1.39.48.15.7.21,1.04.32.09.42.16.76.24,1.12.58-.14,1.11-.27,1.85-.45-.44-.22-.64-.32-.86-.43.25-.29.48-.54.8-.91Z"/>
      <path class="cls-1" d="M42.42,281.04c-.48-.25-.95-.49-1.53-.79-.1,1.05-1.79,1.25-1.21,2.92.19-.41.26-.56.45-.98.56.11,1.18.26,1.8.33.18.02.38-.2.58-.31-.18-.35-.32-.63-.44-.87.17-.14.25-.22.34-.29Z"/>
      <path class="cls-1" d="M118.77,225.45c.06.7.11,1.36.17,2.07h1.16c-.02-.33-.04-.59-.06-.84.29-.13.57-.27.98-.46-.38-.18-.58-.27-.99-.46.46-.18.72-.28,1.12-.44-.92-.41-1.67-.47-2.38.13Z"/>
      <path class="cls-1" d="M68.98,245.04c-.59.19-1.14.37-1.7.55h0c.01.47.02.94.05,1.41,0,.06.15.11.28.19.27-.38.52-.75.75-1.08.85-.03,2.18-.27,2.45-.54-.68-.19-1.28-.36-1.83-.52Z"/>
      <path class="cls-1" d="M58.71,237.47c-.13-.18-.25-.37-.43-.63-.71.62-1.36,1.18-2.32,2.01,1.06,0,1.7.06,2.33-.02.7-.09.8-.49.43-1.36.02-.03.05-.06.1-.11-.05.05-.08.08-.11.1ZM58.68,237.5s-.03.03,0,0h0Z"/>
      <path class="cls-1" d="M23.45,269.39c-.4.21-.75.38-1.06.53.03.37.05.64.07.91,1.25.23,1.84-.66,2.64-1.36-.64-.31-1.14-.55-1.66-.8v.72Z"/>
      <path class="cls-1" d="M36.38,279.98c-.78.16-.73-.62-1.27-.76-.19.17-.4.37-.67.63.55.37.99.67,1.38.93-.35.46-.49.66-.77,1.02.57.04.9.06,1.07.07.26-.36.46-.59.62-.84.31-.5.06-1.14-.36-1.06Z"/>
      <path class="cls-1" d="M83.51,247.91c.47.14.95.29,1.25.38.56-.54.98-.95,1.39-1.35-2.46-.49-2.52-.47-2.65.96Z"/>
      <path class="cls-1" d="M123.23,231.69c.14-.41.31-.9.47-1.34h-2.98c.36.7.64,1.23.91,1.76.09-.03.18-.07.27-.1-.07-.35-.14-.69-.26-1.27.86.21.55,1.41,1.59.96Z"/>
      <path class="cls-1" d="M50.01,283.89c-.17-.46-.33-.86-.47-1.23q-.98,0-1.72.36l.52.99c.31.18.62.36.98.57.04-.25.06-.41.08-.57.02.02.04.03.07.05-.05-.07-.08-.1-.09-.12.01.01.02.03.04.05.16-.03.33-.06.59-.11Z"/>
      <path class="cls-1" d="M33.52,279.74c-.88.38-1.67.62-2.04,1.9.59-.72,1.11.32,1.5-.45-.09-.16-.17-.33-.26-.49.13-.05.26-.1.49-.19-.1.31-.17.49-.23.68.41.1.77.61,1.25.15-.13-.25-.28-.49-.39-.74-.12-.26-.2-.54-.32-.86Z"/>
      <path class="cls-1" d="M118.07,237.1c-.97.86-.35,1.63-.08,2.82.51-.75.81-1.2,1.22-1.81-.45-.4-.78-.69-1.14-1.01Z"/>
      <path class="cls-1" d="M123.6,234.45c-.06-.12-.51-.05-.84-.07-.03.41-.05.7-.07.98h0c.32-.05.64-.1,1.07-.17v.88c.48.24.95.47,1.43.71h0c.09-1.18-1.18-1.47-1.6-2.32Z"/>
      <path class="cls-1" d="M101.69,223.65v1.65q.85.32,1.59-.07c-.2-.38-.41-.77-.61-1.15-.33-.14-.66-.29-.98-.43Z"/>
      <polygon class="cls-1" points="102.67 224.08 102.67 224.08 102.67 224.08 102.67 224.08"/>
      <path class="cls-1" d="M41.11,266.26c-.35,1.07-.65,1.96-1.03,3.14.58-.46,1.01-.81,1.46-1.17-.08-.61.22-1.26-.42-1.97Z"/>
      <path class="cls-1" d="M45.02,273.09c.7-.17,1.36-.32,2.01-.5.07-.02.09-.18.14-.3-.37-.23-.74-.45-1.21-.75-.24.52-1.1.66-.94,1.55Z"/>
      <path class="cls-1" d="M54.04,236.72c.47-.6.95-1.19,1.51-1.91-1.15.04-1.43.34-1.51,1.91Z"/>
      <path class="cls-1" d="M32.55,273.63h0s0-.02,0,0Z"/>
      <path class="cls-1" d="M32.55,273.63c-.58.41-1.25.89-1.93,1.37.05.07.09.15.14.22.63-.32,1.25-.63,1.89-.96-.05-.33-.09-.57-.1-.63Z"/>
      <path class="cls-1" d="M122.69,235.36h0c-.21.18-.42.35-.67.57q-.96-.14-2.18.48c1.07,0,2.14,0,3.21,0q.54.42.72-.35c-.24.12-.48.23-.71.35-.12-.35-.24-.7-.36-1.06Z"/>
      <path class="cls-1" d="M117.31,230.76c-.38.1-.78.15-1.12.33-.12.06-.09.41-.13.63.09.05.19.1.28.15l.99-1.08c.21.07.42.13.77.24.21-.5.41-.98.7-1.66-1.04.22-1.56.53-1.49,1.4Z"/>
      <path class="cls-1" d="M86.75,221.86c.76.17.96-.1.84-.7-.21-.05-.4-.1-.64-.16.22-.28.39-.52.62-.82q-.99.04-.82,1.69Z"/>
      <path class="cls-1" d="M104.62,219.56c-.18.38-.34.72-.53,1.11,1,.05,1.51-.4,1.79-1.17h0c-.41.02-.81.04-1.26.06Z"/>
      <path class="cls-1" d="M43.79,270.89c.3.26.55.48.89.78.2-.39.34-.68.57-1.13-.47-.23-.75-.37-1.07-.52-.16.36-.27.61-.39.88Z"/>
      <path class="cls-1" d="M116.44,263.68c.22.25.37.42.52.59-.11.13-.23.27-.34.4.07.04.14.09.22.13l.13-.53c.24-.12.47-.23.71-.35h0c.04-.33.08-.65.13-.96-.83-.23-1.27.04-1.37.72Z"/>
      <path class="cls-1" d="M9.76,258.32c1.24.32,1.32.24,1.19-1.05-.65.09-.95.51-1.19,1.05Z"/>
      <path class="cls-1" d="M115.7,239.43c-.08-.15-.16-.3-.25-.45-.04.02-.08.03-.13.04.12.13.25.27.37.4Z"/>
      <path class="cls-1" d="M115.35,237.64c-.07-.06-.34.12-.52.19h0s0,0,0,0c0,0,0,0,0,0,.21.38.42.77.63,1.15.32-.11.63-.22.9-.32-.28-.3-.62-.68-1-1.02Z"/>
      <path class="cls-1" d="M109.2,231.14c.36-.33.61-.56,1.21-1.11-.78-.12-1.17-.18-1.81-.27.27.61.41.94.6,1.38Z"/>
      <path class="cls-1" d="M121.36,216.53c.41.36.79.69,1.26,1.11.46-1.16.27-1.32-1.26-1.11Z"/>
      <path class="cls-1" d="M61.48,283.46c.01-.19.03-.4.06-.84-.54.05-.88.08-1.26.11.23.63.42,1.12,1.2.73Z"/>
      <path class="cls-1" d="M54.93,239.43c.06-.83-.4-1.28-.8-2.05-.21.55-.32.85-.43,1.15h0c.76-.27.54.83,1.23.9Z"/>
      <path class="cls-1" d="M79.06,225.13c.29.32.58.63.95,1.03.19-.43.3-.67.48-1.09-.51-.09-.89-.16-1.27-.23-.05.1-.1.19-.16.29Z"/>
      <polygon class="cls-1" points="71.22 250.17 71.22 250.17 71.22 250.17 71.22 250.17"/>
      <path class="cls-1" d="M68.88,249.89l.03.28h2.3c-.18-.22-.35-.45-.54-.69-.63.15-1.21.28-1.79.41Z"/>
      <path class="cls-1" d="M108.88,220.85c-.33.18-.67.26-.83.47-.3.41-.5.89-.74,1.35-1.06.07-.57.89-.71,1.42.24-.23.47-.46.71-.7l.02-.02c0-.23,0-.46,0-.69.28-.01.56-.03.68-.03.31-.64.56-1.15.88-1.79Z"/>
      <path class="cls-1" d="M61.86,239.35c-.34-.32-.55-.51-.78-.72-.24.58-.44,1.09-.66,1.63.81.09.89-.66,1.44-.92Z"/>
      <path class="cls-1" d="M33.83,268.09c-.21.43-.38.77-.54,1.1.08.08.16.16.23.24.36-.26.73-.52,1.19-.86-.32-.17-.55-.3-.88-.48Z"/>
      <path class="cls-1" d="M40.47,273.77c.48-.06.73-.09,1.13-.13-.16-.46-.27-.8-.49-1.43-.27.66-.42,1.02-.64,1.57Z"/>
      <path class="cls-1" d="M118.48,220.59c.14.35.2.5.27.66-.22.12-.44.24-.66.36.06.07.13.15.19.22.16-.19.31-.39.47-.58.55-.13,1.1-.25,1.72-.39-.72-.86-1.31.02-1.99-.28Z"/>
      <path class="cls-1" d="M10.48,254.89c.31.4.5.65.68.89.11-.03.21-.05.32-.08.02-.55.03-1.11.05-1.66h0c.31-.12.31-.24,0-.35,0,.12,0,.23,0,.35-.35.28-.69.56-1.05.85Z"/>
      <path class="cls-1" d="M29.93,266.02c.02.42.04.69.07,1.28.51-.34.8-.53,1.33-.88-.65-.18-1-.28-1.39-.39Z"/>
      <path class="cls-1" d="M100.7,229.46c-.22.35-.28.73.26.91.23-.35.42-.67.62-.98.05.17.09.34.14.5.07-.04.14-.07.22-.11-.11-.14-.21-.28-.32-.42-.37-.54-.69-.25-.92.1Z"/>
      <path class="cls-1" d="M27.82,275.51c.05.04.2-.05.31-.09v-1.21c-.43.4-.64.6-.84.79.18.17.34.36.53.51Z"/>
      <path class="cls-1" d="M53.33,266.51c-.14.75-.21,1.13-.34,1.78.5-.29.73-.41,1.02-.58-.19-.34-.34-.6-.68-1.2Z"/>
      <path class="cls-1" d="M61.93,248.05c-.54.05-1.08.09-1.69.15,1.14.77,1.16.77,1.69-.15Z"/>
      <polygon class="cls-1" points="61.93 248.05 61.93 248.05 61.93 248.05 61.93 248.05 61.93 248.05 61.93 248.05"/>
      <polygon class="cls-1" points="6.17 277.31 6.17 277.31 6.17 277.31 6.17 277.31"/>
      <path class="cls-1" d="M5.24,278.31c.38-.07.76-.14,1.2-.22-.13-.37-.2-.58-.27-.78-.35.23-.7.45-1.06.68.04.11.08.21.13.32Z"/>
      <path class="cls-1" d="M50.93,275.42c.14,0,.29,0,.43.01.29-.42.32-.82-.35-1.5-.04.7-.06,1.09-.08,1.49Z"/>
      <path class="cls-1" d="M31.73,277.08v.35c.4.08.82.16,1.24.23.06-.2.13-.39.24-.72-.58.05-1.03.09-1.48.13Z"/>
      <path class="cls-1" d="M98.22,273.55c-.29.45-.71.85,0,1.18.55-.38.6-.73,0-1.18Z"/>
      <path class="cls-1" d="M8.24,260.54c.41.23.66.37,1.12.62-.04-.51-.07-.76-.1-1.18-.37.21-.61.33-1.01.56Z"/>
      <path class="cls-1" d="M95.56,231.03s.09-.05.14-.07q-.21-.66-1.18-.81c.42.36.73.62,1.04.88Z"/>
      <path class="cls-1" d="M115.15,263.44c-.55-.14-1.1-.28-1.65-.41-.03.1-.06.2-.08.31.55.14,1.1.28,1.65.41.03-.1.06-.2.08-.31Z"/>
      <path class="cls-1" d="M64.89,245.01c.08.09.15.17.23.26.33-.14.67-.29,1.11-.48-.26-.24-.41-.38-.6-.56-.28.3-.51.54-.74.78Z"/>
      <path class="cls-1" d="M87.44,226.22c.21.39.36.7.61,1.16.43-.79.4-1.16-.61-1.16Z"/>
      <path class="cls-1" d="M2.25,270.8c-.42.03-.71.04-1.44.09.65.52,1.04.83,1.43,1.15.1.22.19.44.29.66.09-.02.18-.03.27-.05.03-.26.05-.52.09-.84-.31.11-.47.16-.63.22v-1.22Z"/>
      <path class="cls-1" d="M88.37,228.31c-.45.24-.35.55-.04.78.15.12.43.07.9.13-.42-.44-.64-.68-.86-.91h0Z"/>
      <path class="cls-1" d="M58.32,281.43c.19.38.34.68.6,1.18q.28-.78-.6-1.18Z"/>
      <path class="cls-1" d="M53.17,242.01c-.17.46-.27.73-.44,1.16.45-.11.67-.16,1.03-.25-.2-.31-.35-.54-.59-.91Z"/>
      <path class="cls-1" d="M29.4,271.32q.39.8,1.07.15c-.41-.06-.73-.11-1.06-.15h0Z"/>
      <path class="cls-1" d="M86.08,221.33c-.28.04-.56.08-.83.12.03.15.07.3.1.45l.82-.24c-.03-.11-.06-.22-.09-.33Z"/>
      <path class="cls-1" d="M114.59,265.36c.4-.34.66-.56.91-.78-.74-.19-.98.06-.91.78Z"/>
      <path class="cls-1" d="M78.66,240.17c.55-.15.92-.25,1.56-.42-.55-.2-.84-.3-1.17-.41-.14.29-.22.47-.4.83Z"/>
      <path class="cls-1" d="M79.72,227.87c-.44.51-.72.83-.99,1.15.33-.04.65-.08.99-.12v-1.03Z"/>
      <polygon class="cls-1" points="78.73 229.01 78.72 229.01 78.72 229.02 78.72 229.01 78.73 229.01"/>
      <path class="cls-1" d="M123,243.04c.2.26.35.46.57.74q.1-.81-.57-.74Z"/>
      <path class="cls-1" d="M67.46,241.29c-.25-.05-.5-.09-.76-.14,0,.13,0,.26-.01.39h.76c0-.08,0-.17.01-.25Z"/>
      <path class="cls-1" d="M73.29,236.38c-.4.38-.64.6-1.17,1.09.94-.12,1.17-.37,1.17-1.09Z"/>
      <path class="cls-1" d="M111.81,233.35c-.26.08-.51.16-.77.24.05.12.1.24.15.36.24-.1.49-.21.73-.31-.04-.1-.07-.19-.11-.29Z"/>
      <path class="cls-1" d="M102.43,217.27c.16-.01.31-.03.47-.04-.1-.26-.19-.52-.29-.78-.09.02-.17.04-.26.06.02.25.05.51.07.76Z"/>
      <path class="cls-1" d="M98.33,227.18l-.79-.19-.09.25c.22.11.44.23.66.34.07-.13.14-.27.21-.4Z"/>
      <path class="cls-1" d="M31.44,278.48c-.15.01-.31.02-.46.03.09.26.18.52.27.79.09-.02.17-.04.26-.06-.02-.25-.04-.51-.07-.76Z"/>
      <path class="cls-1" d="M95.52,272.73c-.28.04-.57.08-.85.12.03.08.06.16.08.24.26-.12.52-.24.77-.36.59-.03.84-.28.48-1.12-.22.49-.35.8-.49,1.11Z"/>
      <path class="cls-1" d="M120.84,269.99c.39.18.69.32.99.45.03-.06.07-.12.1-.18-.22-.24-.45-.47-.67-.71-.11.11-.21.22-.41.43Z"/>
      <path class="cls-1" d="M6.75,265.18c-.24-.06-.49-.12-.73-.18-.03.08-.06.16-.09.23.22.12.45.24.67.36.05-.14.1-.28.16-.41Z"/>
      <path class="cls-1" d="M98.02,263.91c-.35.22-.7.45-1.05.67.64.13,1.05-.02,1.06-.66h-.01Z"/>
      <path class="cls-1" d="M119.28,219.63c.73-.06,1.17-.09,1.61-.13h0c-.48-.61-.92-.41-1.62.13Z"/>
      <path class="cls-1" d="M60.2,261.67c-.86-.35-1.12-.11-1.14.48-.21.16-.42.32-.9.69.54.04.77.06.99.08-.03-.26-.06-.51-.09-.77.32-.13.63-.27,1.13-.48Z"/>
      <path class="cls-1" d="M109.5,228.29c-.07.07-.14.13-.22.2.05.09.07.25.14.27.18.06.39.07.58.09-.17-.19-.34-.37-.51-.56Z"/>
      <path class="cls-1" d="M53.47,248.26c.13-.51.18-.71.23-.91h0c-.2.08-.4.16-.6.23.08.14.15.28.36.68Z"/>
      <path class="cls-1" d="M113.21,232.67l-.7.37c.03.07.07.14.1.21.24-.1.49-.21.73-.31-.04-.09-.09-.18-.13-.27Z"/>
      <path class="cls-1" d="M87.24,233.69c-.05.13-.12.26-.14.4,0,.03.18.08.33.15.03-.15.1-.29.08-.42,0-.05-.18-.08-.28-.13Z"/>
      <path class="cls-1" d="M85.74,233.02c-.11-.21-.21-.41-.4-.8-.18.59-.3.98.4.8Z"/>
      <path class="cls-1" d="M73.25,235.81c-.02-.13-.11-.26-.17-.39-.15.09-.24.14-.34.19.08.12.15.25.26.35.02.02.26-.11.25-.15Z"/>
      <path class="cls-1" d="M121.97,220.91c-.32-.04-.64-.09-1.17-.16.48.61.8.63,1.17.16Z"/>
      <path class="cls-1" d="M114.82,238.84v-1.01c-.21.16-.42.32-.71.53.25.17.4.27.71.48Z"/>
      <path class="cls-1" d="M88.31,235.81c-.05.13-.12.26-.14.39,0,.03.18.08.33.15.03-.15.09-.29.08-.42,0-.05-.18-.08-.28-.12Z"/>
      <path class="cls-1" d="M10.81,260.68h1.17c-.37-.3-.52-.51-.61-.48-.16.04-.28.22-.56.48Z"/>
      <path class="cls-1" d="M52.3,235.07c.08.05.15.1.23.15l.43-.65-.23-.14c-.14.21-.29.43-.43.64Z"/>
      <path class="cls-1" d="M50.01,263.7c-.13-.23-.25-.45-.38-.68-.07.03-.14.06-.21.1.09.25.19.51.28.76.11-.06.21-.12.32-.18Z"/>
      <polygon class="cls-1" points="104.81 223.73 104.82 223.73 104.82 223.73 104.81 223.73"/>
      <path class="cls-1" d="M105.15,223.78c-.08-.06-.22-.04-.33-.05.01.11,0,.25.05.33.09.12.22.21.36.27.03.02.22-.17.2-.2-.06-.13-.16-.26-.28-.35Z"/>
      <path class="cls-1" d="M9.4,265.94c.04.2.08.4.13.6.13-.07.37-.14.37-.21,0-.17-.11-.35-.18-.52-.11.04-.21.09-.32.13Z"/>
      <path class="cls-1" d="M46.06,267.06c.24-.01.45-.02.71-.03q-.43-.52-.71.03Z"/>
      <path class="cls-1" d="M19.21,269.37c.17.19.34.37.5.56.07-.07.15-.13.22-.2-.04-.09-.07-.25-.14-.27-.18-.06-.39-.06-.58-.09Z"/>
      <path class="cls-1" d="M17.81,271.37c0,.17.11.35.18.52l.33-.13c-.04-.2-.08-.4-.13-.6-.13.07-.38.14-.38.21Z"/>
      <path class="cls-1" d="M5.94,276.71c.11.28.17.44.23.6.2-.16.4-.32.93-.74-.65.08-.89.11-1.16.14Z"/>
      <polygon class="cls-1" points="6.17 277.31 6.17 277.31 6.17 277.31 6.17 277.31"/>
      <path class="cls-1" d="M78.72,229.02c-.24.24-.47.48-.71.72.1.07.21.14.31.21.13-.31.26-.62.39-.93Z"/>
      <path class="cls-1" d="M72.49,216.07c.33.41.49.62.75.95.07-.37.1-.53.13-.69h-.01c-.2-.07-.39-.12-.87-.26Z"/>
      <path class="cls-1" d="M64.37,244.81c-.14-.07-.26-.15-.4-.18-.04,0-.17.22-.15.25.09.1.23.17.35.25.06-.09.11-.18.2-.32Z"/>
      <path class="cls-1" d="M59.64,245.21l-.71-.22c-.03.07-.05.15-.08.22.22.11.43.23.65.34.05-.12.09-.23.14-.35Z"/>
      <path class="cls-1" d="M63.73,290.66c.15.2.31.41.46.61.07-.05.14-.1.22-.16-.15-.2-.3-.41-.46-.61-.07.05-.15.11-.22.16Z"/>
      <path class="cls-1" d="M101.24,221.61c-.24-.12-.48-.24-.71-.35h0c-.06.2-.13.39-.27.83.46-.22.72-.35.98-.48Z"/>
      <polygon class="cls-1" points="101.24 221.61 101.24 221.61 101.24 221.61 101.24 221.61"/>
      <path class="cls-1" d="M110.22,227.53c.11.13.23.25.34.38.06-.05.12-.11.18-.16-.12-.12-.23-.25-.35-.37-.06.05-.12.1-.17.15Z"/>
      <path class="cls-1" d="M79.95,227.05c.09.04.23.14.27.11.1-.09.16-.22.24-.34-.07-.05-.14-.1-.21-.14-.1.12-.2.25-.3.37Z"/>
      <path class="cls-1" d="M8.61,254.08c-.05.05-.1.11-.15.16.12.13.24.26.35.38.07-.08.15-.17.22-.25-.14-.1-.28-.19-.42-.29Z"/>
      <path class="cls-1" d="M115.75,233.47l-.18-.19c-.11.12-.22.24-.32.37,0,.01.09.12.09.12.14-.09.28-.2.41-.3Z"/>
      <path class="cls-1" d="M51.16,259.76c-.11-.13-.23-.26-.34-.39-.06.05-.12.11-.19.16.12.13.23.25.35.38.06-.05.12-.1.18-.15Z"/>
      <path class="cls-1" d="M60.99,260.48c.06,0,.12,0,.19-.01-.01-.19-.02-.39-.03-.58-.07,0-.13,0-.2.01.02.19.03.39.05.58Z"/>
      <path class="cls-1" d="M51.36,263.38c.06.05.12.1.17.15.12-.11.24-.22.36-.33l-.23-.22c-.1.13-.21.27-.31.4Z"/>
      <path class="cls-1" d="M60,262.99s-.09.1-.13.14c.12.1.25.21.37.31.04-.04.08-.09.11-.13-.12-.11-.23-.21-.35-.32Z"/>
      <path class="cls-1" d="M43.73,267.4c.13.12.25.24.38.35.06-.06.11-.12.17-.17l-.38-.36c-.06.06-.11.12-.17.18Z"/>
      <path class="cls-1" d="M77.07,236.27c.12.13.24.25.36.38l.18-.16c-.12-.13-.23-.26-.35-.39-.06.06-.12.11-.18.16Z"/>
      <path class="cls-1" d="M28.48,270.11c.12.13.23.25.35.38.07-.08.14-.17.21-.25-.14-.1-.28-.19-.42-.29-.05.05-.1.11-.14.16Z"/>
      <path class="cls-1" d="M32.93,270.15c-.06-.04-.12-.09-.18-.13-.11.13-.23.26-.34.39l.21.16c.1-.14.2-.28.31-.42Z"/>
      <path class="cls-1" d="M53.83,271.2c.25-.1.42-.16.58-.23h0c-.18-.07-.36-.14-.54-.21-.01.13-.03.26-.05.44Z"/>
      <polygon class="cls-1" points="123.76 236.07 123.76 236.06 123.76 236.06 123.76 236.06 123.76 236.07"/>
      <path class="cls-1" d="M43.93,273.31l.32-.35c-.08-.05-.2-.16-.23-.14-.11.08-.19.2-.28.31.06.06.13.12.19.18Z"/>
      <path class="cls-1" d="M7.34,275.96c.09.1.22.16.34.23.05-.07.09-.13.14-.2-.12-.1-.25-.2-.37-.3-.04.09-.14.23-.11.26Z"/>
      <path class="cls-1" d="M116.7,276.51c.31.05.47.08.63.1,0,0,0,0,0,0-.04-.19-.09-.38-.17-.72-.21.28-.31.42-.46.63Z"/>
      <path class="cls-1" d="M41.77,279.21s-.09.1-.13.15c.12.1.24.21.36.31.04-.04.08-.09.12-.13-.12-.11-.23-.22-.35-.32Z"/>
      <path class="cls-1" d="M38.01,279.74c.11.12.22.24.33.37.08-.08.15-.15.23-.23-.13-.1-.27-.21-.4-.31-.05.06-.1.11-.16.17Z"/>
      <path class="cls-1" d="M31.67,282.34s.09.08.13.12c.11-.12.22-.23.33-.35-.05-.04-.1-.09-.15-.13-.11.12-.21.24-.32.36Z"/>
      <polygon class="cls-1" points="100.53 212.44 100.53 212.44 100.53 212.44 100.53 212.44"/>
      <path class="cls-1" d="M79.27,236.94c.05-.09.1-.18.15-.28-.23-.08-.47-.16-.7-.25-.18-.07-.36-.13-.55-.2-.01.13-.02.25-.04.43.26-.1.42-.17.59-.23.18.17.37.35.55.52Z"/>
      <path class="cls-1" d="M62.77,290.58c.13.12.26.23.38.35.05-.06.11-.12.16-.18-.13-.12-.26-.23-.38-.35-.05.06-.11.12-.16.17Z"/>
      <path class="cls-1" d="M103.81,214.36c.07,0,.13,0,.2-.01-.01-.2-.03-.39-.04-.59-.06,0-.12,0-.18.01,0,.2.02.39.03.59Z"/>
      <path class="cls-1" d="M118.08,218.08c.14.1.28.2.43.31.04-.06.09-.12.13-.18-.13-.11-.27-.22-.4-.34l-.16.21Z"/>
      <path class="cls-1" d="M81.71,237.97s.1.09.15.13c.11-.12.21-.24.32-.36-.05-.04-.09-.08-.14-.12-.11.12-.22.23-.33.35Z"/>
      <path class="cls-1" d="M111.66,237.9c.07.05.14.09.2.14.1-.12.2-.24.3-.36-.09-.04-.23-.14-.27-.11-.1.08-.16.22-.24.33Z"/>
      <polygon class="cls-1" points="103.74 210.68 103.74 210.68 103.74 210.68 103.74 210.68"/>
      <path class="cls-1" d="M106.64,229.36c.14.1.28.21.42.31.05-.06.09-.12.14-.18l-.4-.34c-.05.07-.11.14-.16.2Z"/>
      <path class="cls-1" d="M94.9,229.15c-.1.12-.2.24-.3.36.09.04.23.14.26.11.1-.09.16-.22.24-.34-.07-.05-.13-.09-.2-.14Z"/>
      <polygon class="cls-1" points="112.68 234.65 112.68 234.65 112.68 234.65 112.68 234.65 112.68 234.65"/>
      <path class="cls-1" d="M112.68,234.65c.06-.19.13-.39.24-.71-.62.23-.68.43-.24.71Z"/>
      <path class="cls-1" d="M104.1,210.68s0,0,0,0c.16.08.41.28.48.23.31-.23.16-.43-.12-.58,0,0,0,0,0,0h0q-.54-.42-.71.35c.12,0,.24,0,.36,0h0Z"/>
      <path class="cls-1" d="M94.55,239.73c-.1.12-.2.24-.31.36.09.04.23.14.27.11.1-.08.16-.22.24-.33-.07-.05-.14-.09-.2-.14Z"/>
      <path class="cls-1" d="M54.09,287.59c.07.04.15.07.22.11.04-.17.08-.35.11-.52h0c-.11.14-.22.27-.34.41Z"/>
      <polygon class="cls-1" points="48.34 284.01 48.34 284.01 48.34 284.01 48.34 284.01 48.34 284.01 48.35 284.01 48.35 284.01 48.34 284.01 48.34 284.01"/>
      <path class="cls-1" d="M47.93,284.34c.14-.11.27-.22.41-.33-.18.04-.35.07-.53.11.04.07.08.15.11.22Z"/>
      <path class="cls-1" d="M62.34,280.15c-.14.11-.27.22-.41.33.17-.04.35-.07.52-.11-.04-.07-.08-.15-.11-.22Z"/>
      <polygon class="cls-1" points="61.93 280.48 61.93 280.48 61.93 280.48 61.93 280.48"/>
      <polygon class="cls-1" points="32.98 278.02 32.98 278.02 32.98 278.02 32.98 278.02"/>
      <path class="cls-1" d="M33.86,277.81c-.55-.09-.72-.12-.89-.15,0,.12,0,.23,0,.35.17-.04.35-.08.89-.2Z"/>
      <polygon class="cls-1" points="32.98 277.66 32.98 277.66 32.98 277.66 32.98 277.66 32.98 277.66"/>
      <path class="cls-1" d="M11.17,262.5c-.33-.09-.75-.51-.89.4.36-.16.63-.28.9-.39.17-.04.35-.08.52-.13-.04-.07-.08-.14-.11-.22-.14.11-.28.22-.42.33Z"/>
      <path class="cls-1" d="M38.32,261.15c-.11-.13-.23-.27-.34-.4.04.17.08.35.11.52.07-.04.15-.08.22-.11Z"/>
      <path class="cls-1" d="M62.04,247.53c-.04.17-.08.35-.11.52.11-.14.23-.27.34-.41-.07-.04-.15-.08-.22-.11Z"/>
      <path class="cls-1" d="M82.3,242.06c.14.11.28.22.42.33.04-.07.08-.15.11-.22-.18-.04-.35-.08-.53-.11h0Z"/>
      <path class="cls-1" d="M84.61,240.06c-.17-.04-.35-.08-.52-.13l-.02.02c.14.11.29.21.43.32.04-.07.07-.14.11-.22Z"/>
      <path class="cls-1" d="M116.59,239.53c-.07-.04-.15-.07-.22-.11-.04.17-.07.35-.11.52.11-.14.22-.27.33-.41Z"/>
      <polygon class="cls-1" points="116.25 239.94 116.25 239.94 116.25 239.94 116.25 239.94"/>
      <polygon class="cls-1" points="119.82 236.42 119.83 236.42 119.83 236.42 119.83 236.42 119.82 236.42"/>
      <path class="cls-1" d="M119.41,236.75c.14-.11.27-.22.41-.33-.18.04-.35.07-.53.11.04.07.08.15.11.22Z"/>
      <path class="cls-1" d="M112.69,235.37c.4-.24.42-.48,0-.72,0,.23,0,.46-.01.7l.02.02Z"/>
      <path class="cls-1" d="M80.51,230.07l.12.52c.07-.04.15-.08.22-.11-.11-.14-.22-.27-.34-.41h0Z"/>
      <path class="cls-1" d="M87.19,228.49l-.22.11c.11.14.22.27.33.41l.12.52c.07-.04.15-.08.22-.11-.11-.14-.22-.28-.33-.41-.04-.17-.08-.34-.12-.52Z"/>
      <path class="cls-1" d="M83.71,221.98c.05.17.1.34.15.51.07-.04.14-.07.22-.11-.11-.14-.22-.28-.33-.43l-.03.03Z"/>
      <path class="cls-1" d="M120.2,221.55c.11.14.22.29.33.43l.03-.03c-.05-.17-.09-.34-.14-.51-.07.04-.15.07-.22.11Z"/>
      <path class="cls-1" d="M122.39,220.57c-.14.11-.28.22-.42.33.18-.04.35-.08.53-.11-.04-.07-.07-.15-.11-.22Z"/>
      <polygon class="cls-1" points="121.97 220.9 121.97 220.9 121.97 220.91 121.97 220.91 121.97 220.9"/>
      <path class="cls-1" d="M73.78,215.99c-.14.11-.28.21-.43.32h.01c.17-.03.35-.07.52-.11-.04-.07-.07-.14-.11-.21Z"/>
      <path class="cls-1" d="M115.2,213.79c.11.14.22.28.33.42h.02c-.04-.19-.08-.36-.13-.53-.07.04-.15.07-.22.11Z"/>
      <path class="cls-1" d="M100.41,213.33c.04-.18.08-.35.12-.53-.11.13-.22.27-.34.4.07.04.15.08.22.13Z"/>
      <polygon class="cls-1" points="100.53 212.8 100.53 212.8 100.53 212.8 100.53 212.8 100.53 212.8"/>
      <path class="cls-1" d="M101.77,212.33c-.03-.07-.05-.13-.08-.2-.16.08-.32.16-.49.24.01.02.02.05.04.07-.24,0-.48,0-.71,0v.35c.4.2.76.33.71-.35,0,.01.01.02.02.03l.51-.15Z"/>
      <path class="cls-1" d="M83.01,218.09c.12.31.24.3.36,0h0c-.12,0-.24,0-.36,0Z"/>
      <polygon class="cls-1" points="83.01 218.09 83.01 218.09 83.01 218.08 83.01 218.09"/>
      <path class="cls-1" d="M106.32,224.18c.06.06.12.12.18.18.06-.06.12-.13.18-.19-.03-.03-.06-.06-.09-.09-.03-.03-.06-.06-.09-.09-.06.06-.12.13-.18.19Z"/>
      <polygon class="cls-1" points="11.53 253.69 11.53 253.69 11.53 253.69 11.53 253.69"/>
      <path class="cls-1" d="M121.26,269.2h0c0,.12,0,.24,0,.35.31-.12.3-.23,0-.35Z"/>
      <polygon class="cls-1" points="121.26 269.56 121.26 269.56 121.26 269.56 121.26 269.56 121.26 269.56"/>
      <path class="cls-1" d="M24.76,243.11c.46-.09,1.05.21,1.43-.43-.75-.47-1.14-.16-1.43.43Z"/>
      <polygon class="cls-1" points="24.76 243.12 24.76 243.11 24.76 243.11 24.76 243.12"/>
      <path class="cls-1" d="M24.76,238.88c.12.35.24.7.36,1.06.31-.18.63-.36,1.32-.75-.83-.15-1.25-.23-1.68-.31Z"/>
      <path class="cls-1" d="M24.04,240.51v1.2c.19-.05.39-.09.64-.16-.19-.31-.32-.51-.64-1.04Z"/>
      <path class="cls-1" d="M25.11,239.94c-.22.01-.45.02-.67.03.25.43.46.32.67-.03Z"/>
      <path class="cls-1" d="M32.97,234.99c-.17.05-.35.09-.52.14.04.07.07.14.11.21.14-.11.29-.22.44-.33l-.02-.02Z"/>
      <path class="cls-1" d="M38.83,222.12c.06.05.12.11.18.16.12-.12.24-.25.36-.37-.06-.05-.12-.11-.18-.16-.12.12-.24.25-.36.37Z"/>
      <path class="cls-1" d="M48.74,220.97c.52.27,1.05.54,1.94,1.01-.57-1.04-1.11-1.31-1.94-1.01Z"/>
      <polygon class="cls-1" points="54.42 211.39 54.42 211.39 54.42 211.39 54.42 211.39"/>
      <path class="cls-1" d="M53.37,211.78c.28.43.48.74.72,1.11.49-.23.88-.42,1.35-.64-.41-.35-.71-.6-1.01-.86-.31.12-.62.23-1.06.39Z"/>
      <path class="cls-1" d="M61.92,224.43c-.12,0-.24,0-.36,0,.12.3.24.31.36,0Z"/>
      <path class="cls-1" d="M43.7,215.26c-.12,0-.23,0-.35,0,.12.31.24.28.35,0Z"/>
    </g>
  </g>
</svg>