<?xml version="1.0" encoding="UTF-8"?>
<svg id="Layer_2" data-name="Layer 2" xmlns="http://www.w3.org/2000/svg" viewBox="0 0 153.24 87.16">
  <defs>
    <style>
      .cls-1 {
        fill: #000000;
      }
    </style>
  </defs>
  <g id="Layer_1-2">
    <g>
      <path class="cls-1" d="M0,35.28c.08.02.16.03.22.05-.07.04-.14.09-.22.13v12.59s.09,0,.13,0v.41s-.09,0-.13,0v.5c.24.03.48.1.71.2-.21.11-.42.22-.71.37v.1c.5.02.86.04,1.21.06.31.15.61.3.91.44.61-.16,1.16-.3,1.7-.44-.21.26-.43.51-.71.84.35.14.8.31,1.24.48q1.52-.55.48-1.29c-.3-.01-.65-.02-.99-.03.05-.45-1.08-.25-1.64-.45v-.47c.42-.06.88-.13,1.41-.2.2.09.43.18.66.28h.01c.62-.31,1.46-.11,2.23-.18.34.15.66.3.87.4-.13.29-.25.56-.4.9-.12,0-.43-.01-1-.03.34.16.65.25.77.38.1.1,0,.24-.03.41.82-.1,1.46-.19,2.2-.28-.45-.08-.77-.13-1.37-.24,1.06-.2,1.92-.35,2.9-.54.55.35,1.43.21,2.29.19.19.14.36.26.57.41-.27.12-.55.24-.98.42-.1-.16-.15-.25-.21-.34h-.02c-.21.1-.42.2-.62.3,1.13.63.46,1.31.63,2.02-.4-.13-.64-.22-.88-.3h0c-.28.39-.61.78-.81,1.18-.1.2.04.42.08.7.45-.09.69-.13,1.46-.28-.57-.05-.85-.08-1.17-.11.23-.29.41-.51.68-.86.16.31.25.5.32.63,1.09.36,2.07.69,3.18,1.06.47.02,1.11.05,1.68.07.12.23.21.42.33.66.72-.18,1.23-.31,1.74-.43-.24-.15-.53-.32-.82-.49.27-.08.49-.15.72-.22-.62-.47-1.2-.9-1.85-1.39.48-.11.89-.19,1.32-.29-.08-.15-.15-.31-.24-.48.26-.03.48-.08.65-.06.62.06,1.23.15,1.96.24.18.21.38.44.62.72.29.01.64.02,1.02.04.56-.26,1.12-.51,1.71-.78-.53-.27-1.06-.53-1.6-.81-.25.02-.6.05-.96.07h0c-.23.24-.67.35-1.45.32-.23-.15-.48-.31-.69-.44.37-.55,1.15-.87,2.48-.98-.47-.78-.38-.84,1.31-.86.07-.35.13-.71.2-1.06,2.25-.47,4.4-.91,6.72-1.39,1.19.2,2.56.42,3.9.64.12.31.22.56.32.83.21-.04.44-.06.54-.11.79-.41,1.69-.76,3.01-.98.3.13.63.26.86.36.42-.23.85-.48,1.22-.68,1.23,0,1.1.38,1.48.59.42.05.83.1,1.34.16.78-.57.18-1.49,2.75-1.72-.04.25-.08.46-.12.7.2.04.51.09.97.17-.77.28-1.5.55-2.29.84,1.02.24,2.11.49,3.2.74v.45c-.91-.09-1.64-.18-2.38-.23-.2-.01-.45.07-.67.11.15.06.29.11.44.17-.02,0-.03-.01-.06-.02.21.09.13.06.06.02l-.44-.17c-.38-.04-.76-.12-1.15-.12-.34,0-.69.08-1.04.12-.6,0-.88.11-.87.34-.36.06-.37.11,0,.17,0-.06,0-.11,0-.17.29,0,.58,0,.86,0,.08.35-.39.25-.87.17-.19.1-.38.21-.55.3-.76-.05-1.41-.09-2.07-.13,0,0,0,0,.02,0,0,0-.01,0-.02,0,.11-.19.22-.37.33-.56-.86-.2-1.71-.3-2.71.08-.04.07-.1.24-.25.39-.12.12-.35.23-.61.39.75.03,1.47.06,2.3.09-.1.41-.74.54-1.55.65-.34-.12-.65-.22-1.16-.39.05.36.08.65.13,1.06.46-.13.65-.2.88-.24.16-.03.37,0,.54,0,.06.08.14.16.12.17-.8.15-1.22.38-1.07.74-.35-.09-.71-.18-1.14-.29-.65.24-1.32.48-2.01.73-1.66-.26-3.51.06-5.14-.27.02.13.04.26.07.39.58.15,1.13.3,1.68.45.02-.05-.01-.12.06-.16.11-.06.27-.1.44-.13.04,0,.27.08.25.1-.08.06-.19.13-.34.17-.1.03-.27.02-.41.02-.51.28-1.02.56-1.58.87.16.08.4.2.65.32-.97.39-1.15-.11-1.69-.18h0c.26.37-.51.57-.87.84.2.01.5,0,.59.04.59.28,1.3.21,2.03.13.2-.36.4-.72.64-1.13.33-.01.72-.03,1.11-.05-.17-.16-.55-.34.31-.46.17.09.36.19.56.29h0c.52-.05,1.03-.1,1.64-.16-.07-.11-.16-.26-.27-.44.25-.08.51-.16.84-.26.41.33.76.6,1.13.9-.44.1-.94.22-1.44.34.03.04.07.07.1.11.72-.05,1.43-.09,2.42-.15-.28.27-.45.44-.61.59-.74.11-1.34.13-1.71-.13-.77.12-1.51.24-2.15.34-.15.41-.3.79-.45,1.2.13.02.38.07.74.13.12-.19.23-.37.36-.57.67.04,1.29.08,1.63.11,1.08-.26,1.96-.47,2.74-.66.87.13,1.55.24,2.42.37-.24.16-.46.31-.73.49.14.16.33.37.53.6.6.04,1.21.08,1.87.13-.13-.26-.24-.49-.34-.71.81-.3,1.54-.56,2.4-.88.17.24.29.41.43.62.42-.03.81-.06,1.28-.09v.39c1.32.29,1.67-.23,2.47-.4-.14-.22-.26-.4-.43-.64,1.31-.11,2.54-.21,4.31-.36-1.64-.15-2.9-.13-3.89-.41-.79.11-1.6.22-2.8.39.3-.26.45-.38.59-.51.52-.16,1.04-.33,1.71-.54-.03-.14-.08-.35-.14-.56.34-.24.7-.49,1.06-.75.21.13.43.25.7.41.52-.16,1.1-.33,1.73-.52-.23-.19-.47-.38-.7-.57h0c-.15,0-.29,0-.44,0,.15-.15.29-.15.44,0,1.01-.31,1.86-.12,2.85.12-.15-.22-.31-.44-.5-.71-.52.02-.98.04-1.52.06-.33-.2-.68-.41-1.07-.64,1.07-.34.88.32,1.54.27.88-.04.74-.23.45-.46.01,0,.01,0,.03,0-.01,0-.01,0-.03-.01.32-.06.64-.13,1.23-.24-.65-.07-1.09-.12-1.73-.19.82-.42.95-.99,2.85-.96-.35-.37-.6-.62-.89-.92.89-.24,1.77-.53,1.59-1.05-.58.06-1.16.11-1.74.17.21-.16.41-.31.64-.48-.8-.23-1.63-.46-2.68-.76.53-.13.83-.21,1.13-.28-.38-.23-1.45-.27-1.27-.66h-.01c-.75-.17-1.36-.39-1.8-.75.9-.21,1.71-.4,2.59-.6.1-.13.23-.31.37-.49.33.01.62,0,.72.04.17.07.21.19.31.29,1.21,0,2.41-.02,3.57-.25.25.19.46.36.69.54-.4.21-.77.41-1.12.59.21.09.39.16.6.25-.44.08-.82.15-1.27.24-.91-.52-2.13-.23-3.44-.28.22.25.37.43.52.6h0c.64-.11,1.27-.22,1.97-.35.27.15.47.26.72.39-1.06.23-1.92.49-3.09.48.97.27,1.94.54,3.04.84-.13.14-.29.32-.45.5.99.3.5.73.45,1.27,1.45-.58,2.95-.39,4.35-.42l-.43-.33c.21-.02.43-.04.64-.06-.05-.03-.09-.07-.14-.1l-.51.16-.44-.33c-.29.11-.57.23-.86.34-.19.03-.37.07-.56.1-.02-.02-.04-.05-.06-.07.2-.01.4-.03.6-.04.05-.52-1.2-.57-2.1-.8,1.46-.38,2.51.27,3.82.14-.28.11-.55.22-.83.33.83-.08,1.67-.15,2.34-.22.29.09.5.15.7.22.05-.15.1-.31.19-.56.65.16,1.1.27,1.55.38-.04.04-.08.09-.12.13-.53.02-1.07.03-1.61.05.07.18.13.36.23.63-.89.02-1.65.03-2.41.05.21.2.42.39.62.57-.47.39-.94.78-1.36,1.13.21.27.36.48.56.75-.3.06-.63.13-1.04.22-.33-.22-.61-.41-.88-.59h0c-.34-.24-.59-.44-1.6-.21.64.08,1.04.14,1.52.2.02.37-.87.44-1.5.62.04.2.08.4.14.68-.87-.14-1.54-.24-2.5-.4.13.4.23.68.32.95.51.02.89.03,1.41.04-.54.23-.95.41-1.37.58.51.18,1.03.35,1.64.57.23-.01.63-.04,1.03-.06.78-.05,1.44-.13,1.77-.48.19-.2.8-.35,1.22-.53-.97-.21-1.53-.52-1.63-1.09.72.25,1.17.4,1.66.57v.51c.57,0,1.23.07,1.41-.34.62.52,1.45.11,2.28.21.23.1.56.24.93.39.12-.09.26-.18.37-.26-.56-.44-1.11-.87-1.76-1.38.71-.07,1.15-.11,1.64-.16.1.14.17.23.28.36.53-.05,1.06-.09,1.71-.15.27.2.53.39.85.62.77.06,1.92,0,1.89.54h-1.76c-.71.35-1.4.69-2.13,1.05.44.21.87.42,1.39.68-.78.02-1.36.03-1.92.04-.15-.24-.28-.44-.39-.62-.92-.16-1.76-.32-2.61-.47-.31.23-.63.45-.9.65-.63-.02-1.01-.04-1.53-.06.13.33.24.59.33.81.44.22.83.42,1.21.61h.02c.14.09.45.22.39.26-.44.35-.77.84-1.51.97-1.03.18-.52.5-1.09.66.97.28,1.8.51,2.64.75-.35.17-.58.29-.81.41.06.03.12.06.18.09.61-.12,1.22-.24,1.86-.36v-.49c-1.81-.12-1.53-.67-1.51-1.18,1.22-.05,2.49-.02,3.63-.5.07.35.11.56.16.8-.6.07-1.12.13-1.73.2.15.15.28.28.4.4h.01c.14,0,.28.01.48.02.13.51.27,1.03.42,1.6-.17.04-.54.14-.91.23h0c.88.37,1.76.75,2.8,1.19.32-.2.63-.4.97-.61,2.5.33,2.23,1.37,3.69,2.03-.72.02-1.15.04-2,.07.55.18.76.29,1.04.33.33.04.72.02,1.08.03,2.22.04,2.62.16,3.33,1.01h0c.59.09,1.18.18,1.75.27.41.29.81.57,1.25.87.99-.29.93-.63.89-.98-.03-.26.04-.51.06-.83.77.05,1.3.09,1.92.13.31-.27.37-.67,1.55-.63-.02-.15-.14-.32-.02-.46.29-.31.69-.61,1.13-.99.29-.08.75-.21,1.3-.37.37.12.74.24,1.2.39.47-.06.99-.12,1.45-.18.41-.42.09-.74-.59-1.02.19-.04,1.78-.18,2.08-.17-.31-.21-.57-.39-.93-.64,1.72-.08,2.6.45,4.09.65.31-.15.74-.35,1.23-.58.34.07.71.14,1.18.23-.12.21-.23.41-.38.68.51-.02.9-.04,1.39-.07.34.14.71.29,1.11.46-1.05.26-2.05.52-2.91.73-.22.29-.4.53-.6.81.22.12.52.28.83.44.9-.08,1.79-.17,2.69-.25,1.92.19,1.68.96,2.63,1.42-.39.25-1.3.47-.04.79-.55.21-.91.34-1.22.45-.93-.09-1.69-.16-2.45-.22-.4-.2-.78-.39-1.27-.64-.61.09-1.19.18-1.98.29.65.29,1.18.53,1.83.82-1.83.27-2.11,1.01-3.52,1.43.56.25,1.03.46,1.64.72v.75c-.44.18-.96.33-1.3.54-.62.37-1.4.67-2.29.95-1.17.37-1.52.91-.84,1.54,1.77-.03,1.57.76,2.83,1.07.46-.06.98-.12,1.29-.16.45-.43.82-.79,1.2-1.16.28.01.56.03,1.03.05.21-.34.42-.68.67-1.09.33-.09.79-.22,1.26-.34v-.47c.3,0,.57-.05.7-.01.46.12.87.27,1.22.39.75-.03,1.37-.05,2.08-.07.08.15.13.25.22.42-.37-.08-.61-.13-1.04-.22v1.18c-.95.02-1.75.04-2.67.05-.47.63.18,1.16.74,1.7-.25.09-.54.19-1.13.39h1.88q.48-.38,1.31-.07c-.5.03-.9.05-1.3.07-.33.08-.67.17-1.12.28-.08.17-.82.39.03.65-1.12.11-1.32.52-1.84.82,0,0,.19.06.3.1.17-.05.34-.11.51-.16.05.03.11.07.16.1-.22.02-.44.04-.66.06.55.11,1.1.22,1.59.31,1.46-.15,3.1-.15,2.96-1.15.91.41,1.51.68,2.18.98-.48.08-.74.13-1.1.19.87.54,2.61.44,3.79.96.19-.39.31-.64.44-.9.94-.19.92.16,1.26.41.24-.11.44-.2.64-.3.26-.03.52-.05,1.08-.11-.74-.26-1.28-.45-1.69-.59-.1-.36-.18-.67-.27-.98.32-.05.65-.1,1.09-.17.08.13.15.24.21.34h.03c.7-.16,1.41-.34,2.21-.53.43.19.79.35,1.2.53-.11.05-.22.14-.37.15-.59.05-1.09.12-1.3.36h0s0,0,0,0h0c.31.14.62.28.94.42.46-.02.92-.05,1.48-.08.08.13.14.23.2.33,0,0,0,0,.01,0,0,0-.01,0-.02,0,0,0,0,0,0,0-.77.16-1.63.22-2.08.62-.26.22-.85.57-1.9.52-.08,0-.21.13-.37.23.52.15,1.02.29,1.47.42,1.03-.04,1.4-.68,2.76-.34-.06.14-.13.29-.2.45.95.38,1.43-.26,2.34-.15.1.17.21.35.34.55,1.11-.65-.34-1.18-.4-1.77.62-.28,1.39-.19,2.44-.16-.38.23-.65.4-.96.58.4.17.77.32,1.14.48.62-.14,1.23-.28,1.86-.42,1.36.2,2.67.28,3.93-.11-.1-.2-.21-.41-.36-.7.5.02.81.03,1.23.05v-.54c-.49.03-.94.05-1.39.08-.82-.17-.73-.43-.54-.74.62-.03,1.17-.06,1.82-.1-.34-.15-.63-.29-.93-.42-.5.04-.98.09-1.46.13h0c-.79.39-.25.79.09,1.26-.64.03-1.14.05-1.89.08.58-.57.77-1.04-.28-1.47-.19-.08.02-.31.05-.48-.27-.05-.59-.1-.95-.16.09-.16.18-.32.29-.52-.53-.12-1.06-.24-1.73-.39.36-.15.68-.28,1.11-.46-.44-.32-.07-.62.66-.88.31-.11.6-.23.89-.34,1.61.22,2.35.12,3.43-.55.3-.18.42-.34,1.14-.24-.03.07-.08.14-.08.21,0,.05.05.1.13.23.3-.08.54-.14.94-.24.38.13.83.28,1.34.45-.26.16-.47.29-.64.4.11.27.21.51.31.75.14,0,.29,0,.43,0,.18-.04.36-.07.54-.11.02.02.04.05.06.07-.2.01-.4.03-.6.04-.05.08-.1.17-.25.41-.12-.26-.16-.33-.19-.41h-.98c-.34.23-.69.47-.97.66.12,1.07,2.69,1.3,4.12,1.94h2.51l.08.11c-.65.1-1.3.2-2.39.38,1.49.18,2.56.3,3.71.44-.74.33-1.68.08-2.57.13.14.13.28.26.41.38h0c.11.09.36.19.3.26-.18.21-.48.4-.73.59.23.17.43.31.63.46,1.08-.05,2.08-.1,3.18-.15-.28-.26-.5-.46-.72-.65.27-.11.51-.21.88-.36-.33-.03-.55-.05-.79-.07-.49-.34.52-.37.82-.55.29-.18.42-.4.59-.57-.4-.17-.76-.32-1.29-.55.69-.04,1.09-.06,1.5-.08-.05-.33.65-.37,1.21-.46.08-.01.24.03.54.08-.28.19-.55.38-.8.56-.44-.08-.69-.12-.94-.17.17.2.34.4.52.61.27-.08.45-.13.79-.22v.62c-.52.11-.52.22,0,.34,0,.06,0,.11,0,.17-.47-.04-.93-.08-1.53-.14-.07.11-.14.23-.29.47.79-.14,1.3-.24,1.82-.33.36-.06.38-.11,0-.17,0-.11,0-.22,0-.34,1.15-.19.89-.5.51-.82.48-.69,2.59-1.09,2.07-1.89.49-.22.9-.41,1.35-.62-.39-.31-.77-.6-1.13-.89q-1.2-.13-1.76-.61c-.37-.03-.78-.06-1.18-.09.11-.51-1.21-.67-1.69-1.04-.12-.09-.79-.06-1.21-.09-.08.03-.17.06-.51.18.31-.13.39-.17.47-.2-.21-.2-.42-.4-.67-.63.16-.09.37-.23.61-.37.68.27,1.26.49,1.96.76.63-.19,1.11-.34,1.62-.5-.16-.11-.22-.2-.36-.24-1.16-.3-1.66-.72-1.53-1.28-.27-.04-.59-.1-.98-.16.21-.14.41-.27.63-.42-.41-.28-.83-.57-1.25-.85-.26.03-.51.07-.87.11-.76-.79-2.36-.56-3.66-.49-.42.26-.78.49-1.14.71h0s0,0,0,0h0c.31.32.62.65.93.98-.79.17-1.26-.11-1.81-.31-.39.28-.85.51-2.02.49-.58-.31-1.25-.65-1.91-1q1.56-.26.68-.76c-.23.25-.45.51-.68.76-.55.06-1.09.14-1.65.16-.4.01-.85-.03-1.21-.09-.14-.02-.12-.18-.19-.31.41.02.67.03.96.04.51-.11.23-.54,1.22-.46h0c.01-.45-1.51-.41-1.65-.84.06-.11.14-.26.22-.4-.46-.09-.82-.16-1.13-.22,0-.8.07-.85,1.65-1.21-.92-.08-1.65-.14-2.3-.19-.55.25-.95.43-1.35.61.15.05.3.11.36.13-.36.2-.72.4-.87.49-1.11-.13-1.88-.22-2.64-.32-.16-.41.76-.51,1.7-.77-.8-.06-1.32-.1-1.84-.14-.02.05.01.12-.06.16-.11.06-.27.1-.44.13-.04,0-.27-.08-.25-.1.08-.06.19-.13.34-.17.1-.03.27-.02.41-.02.28-.39,1.27-.3,2.02-.41.12-.18.23-.36.34-.52.77-.14,1.32-.07,1.87.11.68.22,1.44.18,2.48.02-.61-.15-1.02-.26-1.51-.38q1.5-.23,2.01-.58c.68.06,1.37.12,2.07.18.2.18.37.33.68.61.08-.54.78-.62,1.79-.68.1.28.18.51.25.7.44.15,1.11.26,1.21.43.2.34.73.68.34,1.05.27.06.54.12.82.17-.08.04-.16.08-.24.11-.19-.1-.39-.19-.58-.29-.52-.16-1.01-.34-1.59-.46-.24-.05-.68.07-1.04.11-.62-.31-1.23-.62-1.86-.93-.2-.1-.5-.16-.72-.24-1.08.31.66.73-.47,1h.02c.83.18,1.67.35,2.55.53.11-.08.31-.22.51-.36.29.14.58.28.87.41.29.14.58.28.86.42.05-.08.1-.16.15-.25.09.02.18.04.28.06-.14.07-.27.13-.41.2.27.16.54.31.77.45-.28.2-.53.38-.78.56q1.06-.19,1.31.17c.38-.06.71-.16,1.15,0,.64.24,1.43.17,2.25.09.03-.17.06-.3.09-.44-.53-.04-1.06-.08-1.81-.13.15-.58.25-1.08.43-1.58.02-.05.43-.08.94-.17-.15.26-.24.41-.33.56.23.1.46.19.77.32-.61.32-.54.66,0,1,.29,0,.57,0,.86,0,.05-.21.09-.41.14-.61.78-.1,1.31-.01,1.49.21.11.15-.12.33-.2.5-.61-.04-1.01-.07-1.41-.1.58.22,1.16.45,1.74.67-.29.17-.58.34-.87.5.67.07,1.34.13,1.88.19.49-.18,1.03-.37,1.56-.57.9.14,1.63.25,2.34.36.33-.09.62-.17.91-.25.78.21,1.55.42,2.38.65-.18.11-.44.27-.74.45,1.7.58,3.38,1.16,5.05,1.73.78-.09,1.39-.17,2.18-.26-.18-.12-.34-.22-.57-.36.12-.09.27-.21.45-.36.65-.07,1.34-.15,2.02-.22.36-.2.73-.41,1.05-.59,1.69-.17,3.08.1,4.47.35.16.15-.27.34.41.48.12.02.2.06.29.09v-6.99s-.04-.03-.06-.04c.02-.02.04-.05.06-.07v-10.89c-.8-.12-1.53-.22-2.26-.33.82-.13,1.57-.16,2.26-.06v-.38c-1.27.06-2.19.11-3.3.17-.1-.05-.28-.14-.43-.23-.11-.07-.19-.14-.29-.22,2.36-.16,2.51-.16,4.02.23v-.8c-.59.01-1.19.02-2.07.04.66-.28,1.07-.45,1.51-.63.2.04.38.08.56.12V0s-153.24,0-153.24,0v35.28ZM151.4,57.6c.1-.04.19-.07.29-.11.13.07.26.13.39.2l-.22.07c-.15-.05-.3-.11-.46-.16ZM151.38,55.42q.71-.13.72.26c-.25-.09-.48-.17-.72-.26ZM150.51,55.53c.29-.04.57-.08.86-.12-.22.08-.45.17-.67.25l-.19-.14ZM149.65,61.64c.1-.04.19-.07.29-.11.13.07.26.13.39.2-.07.02-.15.05-.22.07-.15-.05-.3-.11-.46-.16ZM127.01,52.92s-.05-.02-.07-.03c.23.02.47.04.9.08-.36.1-.53.15-.79.22l-.13-.29s.05.01.09.03ZM128.11,51.88c-.12.05-.28.08-.43.12-.07-.04-.14-.09-.25-.16.17-.03.33-.07.5-.09.05,0,.22.11.19.12ZM130.36,56.29c-.17.03-.33.07-.5.09-.05,0-.22-.11-.19-.12.12-.05.28-.08.43-.12.07.04.14.09.25.16ZM135.66,35.89c-.35.05-.69.1-1.39.2.57-.3.85-.48,1.39-.2ZM138.55,37.38c-.68.19-1.25.28-1.62-.15.7.07,1.16.11,1.62.15ZM140.01,53.05c.06-.08.11-.16.17-.24.09.02.18.04.27.05-.13.07-.27.14-.4.2-.07.1-.13.2-.26.37-.39-.12-.64-.2-1.14-.36.68-.02,1.02-.02,1.36-.03ZM140.77,39.42c-.12.05-.28.08-.43.12-.07-.04-.14-.09-.25-.16.17-.03.33-.07.5-.09.05,0,.22.11.19.12ZM143.69,42.64c-.42-.07-.73-.13-1.05-.18,0,.37-.78.4-1.6.51-.43-.28-1.16-.51-.96-.91.91.14,1.73.27,2.55.4-.06-.15-.12-.3-.2-.51.47.04.85.07,1.25.11v.59ZM144.33,44.27c-.35.09-.58.15-.81.21h0c-.19.05-.38.1-.76.2v-.85c.59.17,1.03.29,1.57.44ZM144.49,44.63q-.48.54-1.39.3c.38-.08.72-.16,1.39-.3ZM149.18,40.93c.02-.05,0-.12.07-.16.11-.06.27-.1.44-.13.04,0,.27.08.25.1-.07.06-.19.13-.33.17-.1.03-.27.02-.4.03.1.26.2.51.3.79-1.53-.25-1.55-.32-.33-.8ZM148.65,56.02c-.1.02-.2.05-.3.07-.59-.17-1.18-.33-1.97-.55.77-.02,1.23-.03,1.85-.04.12.15.27.33.42.52ZM148.34,61.47c.1-.04.19-.07.29-.11.13.07.26.13.39.2-.07.02-.15.05-.22.07-.15-.05-.3-.11-.46-.16ZM147.94,58.24c.17-.03.33-.07.5-.09.05,0,.22.11.19.12-.12.05-.28.08-.43.12-.07-.04-.14-.09-.25-.16ZM146.23,63.88c.39-.02.58-.03.78-.04-.03.01-.05.02-.11.05.06-.02.09-.03.12-.04-.05.09-.11.18-.21.35-.26-.14-.39-.21-.58-.31ZM146.23,41.13c1.19-.04,1.31.13.65.46-.19-.14-.39-.27-.65-.46ZM146,37.75c.29.01.55.02.88.03q-.6.24-.88-.03ZM144.83,64.17c-.06-.15-.12-.3-.21-.55.43.11.7.17,1.12.28-.39.12-.64.19-.9.27,0,0,0,0,0,0-.01,0-.01,0-.02,0,0,0,.01,0,.02,0ZM145.58,60.42c-.07-.04-.14-.09-.25-.16.17-.03.33-.07.5-.08.05,0,.22.11.19.12-.12.05-.29.08-.43.12ZM144.39,59.62c-.01-.32.56-.39,1.2-.43.66.19.62.36.35.43h-1.55ZM143.73,59.74c-.61-.12-.77-.34-.88-.57,1.36-.17.86.39,1.54.46-.22.04-.52.14-.66.11ZM142.7,63.21c.35.12.58.2.82.29-1.06.28-.79-.02-.82-.29ZM141.13,56.27c.51.06.74.09.82.1v1.43c-.54-.09-.98-.16-1.35-.22-.24.07-.45.13-.59.17-.35-.12-.61-.22-.86-.31-.18-.1-.36-.19-.68-.37-.09.18-.14.28-.19.37h.87c-.46.21-.91.42-1.4.64-.41-.07-.72-.13-1.1-.2.17-.15.32-.27.32-.27.61-.08.95-.12,1.29-.17-.75-.26-1.08-.56-.74-.9.67.02,1.23.04,1.84.06-.21-.53.67-.46,1.29-.46-.16-.26-.47-.52-.44-.78.04-.27-.46-.64.5-.83.49.39.95.75,1.42,1.12.41.05.83.09,1.56.17-1.01.18-1.68.3-2.57.46ZM141.04,63.09c.11-.03.22-.07.33-.1.12.07.25.14.37.2-.07.02-.14.05-.21.07-.16-.06-.32-.11-.48-.17ZM139.72,59.9c.43-.28.82-.35,1.18,0h-1.18ZM138.36,62.72s.02-.1.04-.15h1.07c-.01.07-.02.14-.04.21l-1.07-.07ZM136.66,62.25l.39-.38c.1.01.21.02.31.03l-.14.38c-.18-.01-.37-.02-.55-.03ZM136.27,59.85c.34-.17.69-.31,1.66-.09-.59.12-1.01.2-1.44.28-.08-.07-.15-.13-.23-.2ZM131.43,53.96c1.69-.33,2.18-1,3.96-1.02.17.03.43.07.7.12.18-.15.35-.31.65-.57.34.22.51.33.76.5-.59.03-.99.06-1.39.08.05.33.81.67,0,1,.61.22,1.22.44,1.97.71.46-.14.94-.28,1.61-.47-.3.43-.54.76-.75,1.06-1.18.15-.91-.3-1.37-.4-.51-.11-1.13-.15-1.77-.24-.04-.16-.09-.33-.13-.49-1.28-.09-2.57-.17-4.22-.28ZM132.9,57.05c-1.2.13-1.55-.28-2.24-.42,1.26-.23,1.48.22,2.24.42ZM129.64,60.2c.11-.26.21-.49.33-.79.31.21.53.36.73.49.74-.04,1.42-.08,2.2-.12.05.18.08.29.11.43-.79.08-1.54.15-2.33.23-.35-.08-.72-.16-1.05-.24ZM125.59,54.35c.29-.31.5-.54.73-.77.85.06,1.6.11,2.36.16.05-.09.1-.18.2-.35.26.14.38.21.57.31-.38.02-.58.03-.77.04-.31.22-.62.44-.96.69-.65-.02-1.33-.05-2.13-.08ZM124.43,56.69c.49-.4,1.01-.83,1.67-1.37.38.39.64.66.89.91-.36.2-.64.36-.96.54.16.24.26.41.41.63-.75-.27-1.33-.47-2.02-.72ZM124.09,53.9c.14-.29.25-.54.46-.98q.72.64-.46.98ZM120.52,57.71c.43-.28.82-.35,1.19,0h-1.19ZM119.96,55.96c.28-.28.56-.55.89-.88.53.13.89.23,1.48.38-.67.02-1.04.04-1.86.06,1,.26,1.65.47.73.83-.38-.12-.78-.25-1.24-.39ZM116.09,55.12c.21-.31.39-.58.73-1.06.55.67,2.36.44,2.93.98-.73-.05-1.36-.09-1.98-.13h0c.15.21.92.42-.07.66-.54-.15-1.09-.31-1.61-.45ZM128.2,74.63c-.28-.18-.48-.31-.86-.56q1.13.24.86.56ZM132.73,70.18c-.71-.13-1.4-.27-2.09-.4.07-.08.15-.15.22-.23.58.06,1.2.09,1.74.18.58.1.59.27.13.44ZM128.8,71.12c.58-.3,1.06-.55,1.6-.83.37.01.9.04,1.4.06.36.24.68.47,1.13.78h-4.13ZM127.1,69.84c.07-.04.14-.07.2-.11.25.07.51.15.76.22l-.2.11-.76-.22ZM115.47,66.92c-.05.14-.11.28-.16.42-.13,0-.26,0-.39-.01v-.41h.55ZM117.79,64.42l-.15.15c-.5.01-1,.03-1.67.05.13-.2.21-.32.35-.53.6.13,1.04.23,1.47.33ZM122.69,65.04c-.61.12-1.07.21-1.7.33q.47-.43,1.7-.33ZM124.2,70.45c-.11.03-.23.05-.41.1-.08-.07-.19-.13-.23-.19,0-.02.28-.08.31-.07.13.05.22.11.32.17ZM119.39,66.48c-1.47,0-2.46-.24-3.47-.69,1.03-.02,1.9.2,2.8-.14-.41-.2-.8-.38-1.08-.52.52-.31.95-.56,1.37-.81.12.02.23.03.35.05v.91c.39.07.7.12,1.05.18-.14.24-.25.44-.48.86,1.59-.61,2.91-.51,4.14-.23.34.27.65.51,1.04.82.23-.19.35-.29.48-.39h.9c.1.31-.97.43-.97.58.01.36-.23.51-1.17.52-.25-.11-.51-.23-.73-.33-.33.02-.59.03-.95.05.24-.17.4-.29.57-.41-1.13-.37-2.51-.45-3.86-.45ZM117.45,67.32s.28-.08.31-.07c.13.05.22.11.32.17-.11.03-.23.05-.41.1-.08-.07-.19-.13-.22-.19ZM114.73,68.17c.05-.22.07-.38.15-.53.01-.03.22-.05.39-.09.5.14,1.02.28,1.53.42-.12.19-.23.38-.34.56-.22-.13-.44-.26-.69-.4-.24,0-.56.02-1.04.03ZM113.94,72.88c.16-.02.33-.06.49-.06.05,0,.18.08.16.12-.02.07-.13.13-.29.29-.24-.22-.3-.28-.37-.34ZM95.92,65.53c-.27.19-.58.4-.9.62-.37-.12-.63-.2-.93-.29-.54.06-1.08.12-1.7.19-.23-.17-.42-.31-.64-.48-.96-.04-1.96-.11-2.29-.57.68-.47.69-.46,1.44-.54.78-.09,1.34.04,1.97.19.83.2,1.75.35,2.63.53.12.1.24.2.42.35ZM89.76,46.39c-.16.26-.17.51-1.14.6.07-.25.12-.45.18-.67.35.03.61.05.96.07ZM90.09,50.32c-.51.07-1.08.15-1.6.22-.4-.24.57-.56-.46-.64-.61.39-1.18.76-1.85,1.19-.48-.21-.89-.4-1.35-.61-.47.15-.83.26-1.12.35-.75-.15-1.38-.28-2-.41v-1.05c.57-.28,1.75-.37,1.77-.9.01-.22.92-.56,1.98-.48q.45-.39,1.31-.07c-.5.03-.91.05-1.31.07.13.12.27.25.51.48-.29.02-.65.05-1.3.1,1.1.23,1.6.33,2.1.43.33-.51,1.49-.14,2.16-.3.05-.01.23.05.42.1-.23.22-.46.44-.68.65.62.27,1.61.39,1.43.86ZM84.48,54.36c-.37.02-.57.05-.77.05-.22,0-.44-.04-.83-.07.64-.26,1.06-.32,1.61.03ZM84.9,51.76c.17,0,.33.05.5.08-.11.07-.17.12-.24.16-.15-.04-.32-.07-.44-.12-.02,0,.14-.12.19-.12ZM88.91,50.95c-.04.34-.06.51-.09.73-.64-.11-1.12-.19-1.83-.31.69-.15,1.1-.24,1.92-.42ZM91.99,46.82v-.78c.48-.14.95-.27,1.85-.52-.16.63-1.31.98-.49,1.52-.7-.11-1.02-.16-1.34-.21-.51.33-1.34.5-1.72.34.22-.19.44-.39.65-.58-.25-.11-.45-.2-.83-.38h1.33c.05.13.05.25.14.35.09.1.27.18.41.27ZM92.49,47.63l.89-.28c.12.06.24.12.36.17-.52.31-1.27.47-2.46.46-.04-.14-.07-.26-.12-.46.56.05.95.08,1.33.11ZM94.55,37.48c-.52.06-1.03.12-1.85.22.54-.39.98-.54,1.85-.22ZM97.08,36.99c-.15.06-.29.12-.44.19-.09-.04-.18-.08-.27-.12.17-.05.35-.09.52-.14.06.03.12.05.19.08ZM98.6,45.42c-.4.31-.75.6-1.28,1.01-.67-.77-.42-.94,1.28-1.01ZM97.62,47.75l.29-.02,1.08.95c-.55-.02-1.09-.04-1.64-.05.11-.34.19-.61.28-.88ZM100.02,35.83c.62-.5-2.15-.32-1.2-.91.55.09,1.09.12,1.48.24.63.19.6.42-.27.67ZM99.58,49.12c-.21-.16-.4-.3-.58-.43q.77.12.58.43ZM100.92,46.69c-.29-.31-.48-.52-.67-.73,1.08.11,1.02.35.67.73ZM109.97,51.58c-.88.27-.03.72-1.19.99-.14-.34-.26-.6-.37-.88-.42-.05-.77-.1-1.15-.14.04-.16.06-.3.13-.6.62.2.9.32,1.24.4.34.08.74.13,1.34.23ZM114.21,49.49c-.11.07-.17.12-.24.16-.15-.04-.32-.07-.44-.12-.02,0,.14-.12.19-.12.17,0,.33.05.5.08ZM109.02,58.39c.71.05,1.05.21,1.47.32.45.11.99.17,1.71.29-.89.1-1.61.17-2.58.28-.23-.34-.42-.61-.61-.89ZM111.92,69.65l.34-.24c.49.01.98.02,1.83.04-.5.22-.76.33-1.28.55-.36-.14-.62-.25-.89-.35ZM110.9,63.83c.12-.05.29-.08.44-.12.07.04.14.09.25.16-.17.03-.33.07-.5.09-.05,0-.22-.11-.19-.12ZM108.81,71.33c.22-.37.28-.8,1.75-.74-.17.42-.68.67-1.75.74ZM108.67,65.92c.62.22.93.33,1.24.44-.97.12-1.21-.01-1.24-.44ZM107.86,62.69c.36.01.68.02,1,.03.29-.16.58-.31.86-.47-.33-.11-.65-.21-1.08-.35.4-.08.7-.14.87-.18.89.13,1.67.25,2.45.37.54.37.56.36,1.64.56.41.08.89.21,1.02.36.22.25-.29.4-.87.49-.2.03-.39.07-.56.09-1.08-.12-1.76-.38-2.21-.76-.06-.05-.31-.07-.46-.1-.2.21-.37.39-.72.75-.2-.3-.26-.4-.33-.5h-.02c-.42.02-.94.01-.72.28.24.28-.13.35-.88.35v-.93ZM103.06,56.59h-1.45c-.23-.1-.46-.21-.79-.35.18-.26.42-.58.65-.9-.22-.01-.42-.02-.61-.04.02-.76.49-.92,2.39-.84.16,0,.32-.02.59-.03-.35-.2-.62-.36-.84-.49.25-.39.47-.74.68-1.06-.37-.21-.7-.39-1.24-.69.78.05,1.18.07,1.59.09q.48-.7,1.75-.6v1.03c.91.17,1.84.34,3.02.56-1.59.39-.88.85-.72,1.19-.78.47-1.32.05-1.98.02-.09.41-.17.82-.24,1.18.23.11.38.2.61.31-.46.07-1.05.11-1.06.17-.05.2-.17.31-.73.28-.17-.05-.34-.11-.51-.16-.05.04-.09.07-.14.11.22.02.43.04.65.05.09.13.18.26.29.41,1.19.08,2.49-.28,3.36.22,1.09-.51,2.46-.37,3.87-.42.38.39.74.74,1.08,1.09.62.05,1.22.1,1.91.15-.15.29-.26.51-.39.76-1.31-.07-2.03-.69-3.23-.45-.67-.25-1.17-.43-1.7-.63-.64.13-1.14.23-1.59.32.02.16.04.28.07.48-1.23-.22-2.52-.18-3.06-.67.1-.09.19-.16.27-.24.29,0,.58,0,.87,0h0c-.29-.2-.59-.19-.88,0-.52-.03-1.03-.05-1.65-.09.03-.1.06-.2.09-.3-.07.03-.14.07-.21.1-.25-.2-.5-.39-.71-.56ZM101.61,56.59c-.05.09-.1.18-.2.35-.26-.14-.39-.21-.58-.31.38-.02.58-.03.77-.04ZM102.05,58.61s0,0,0,0c0,0,0,0,0,0,.26-.03.52-.07.77-.1.35.18,1.22.26.53.67-.5-.22-.9-.39-1.3-.57ZM100.16,63.32q.74-.31,1.47-.08c-.58.03-1.03.05-1.47.08ZM99.58,54.1c.89.26.85.5.32.84-.68-.29-.5-.53-.32-.84ZM97.24,51.84c-.24.1-.61.25-1.1.45-.6-.21-1.11-.38-1.68-.58-1.05.03-2.15.06-3.23.09-.06-.11-.09-.16-.13-.21-.02-.03-.04-.05-.09-.07-.04-.02-.1-.02-.2-.04-.09.22-.17.43-.29.71-.85-.43-.1-.75-.15-1.03.76-.23,1.37-.42,2.06-.63.9.46,2.9.15,3.32.84.47-.05.8-.09.91-.1.4.12.7.22,1.17.36.25-.42.43-.75.64-1.1.55.14.96.25,1.38.36.14-.15.29-.15.44,0,.43-.05.87-.11,1.3-.17-.14.34-.29.67-.43,1.01l.65.05s-.09.07-.14.11c-.17-.05-.34-.11-.52-.16-.4-.07-.8-.15-1.13-.21-.39.17-.77.33-1.15.5-.56-.06-1.05-.1-1.65-.17ZM94.8,52.27c.09.04.18.08.27.12l-.52.14c-.06-.03-.12-.05-.18-.08.14-.06.29-.12.44-.18ZM96.37,55.08c-.47-.11-.62-.23,0-.44v.44ZM97.37,56.87c-.18-.1-.35-.21-.53-.31.09-.02.19-.05.28-.07.18.1.36.21.53.31-.1.02-.19.05-.29.07ZM96.37,58.61c.24.02.47.05.79.08-.23.15-.39.25-.79.5v-.58ZM96.12,58.16c.77.04.87.13.25.29-.08-.09-.16-.18-.25-.29ZM95.06,57.1c.14,0,.28,0,.42,0,.06-.25.12-.5.19-.79.92.21.72.54,1.04.93-.6-.06-.9-.1-1.2-.13-.16.14-.31.14-.45,0ZM94.79,55.86s.21-.07.31-.06c.18,0,.35.05.78.11-.61.1-.77.12-.93.15-.06-.06-.14-.13-.15-.19ZM88.31,56.98c.58.08,1.32.13.33.46-.15-.22-.24-.34-.33-.46ZM85.07,54.95c.08-.32.15-.6.22-.89.55.03.94.05,1.88.09-1.1-.27-1.55-.51-1.18-.8.41-.06.76-.12,1.18-.18-.42-.25-.74-.44-1.05-.62.62-.25,1.52.22,1.96-.17.86.09,1.74.27,2.57.24,1.03-.04,1.57.17,2.27.35.75.2,1.59.35,2.37.52.31-.07.59-.14,1-.24v.57c-.99.12-1.94.23-3.07.36.2.26.37.49.55.72q1.22.17,1.02.65c-.33.01-.67.02-1.01.03-.18.04-.37.07-.56.11-.02-.02-.04-.05-.06-.07l.6-.04c.57-.22-.04-.44,0-.67-.56.29-1.11.58-1.74.91-.4-.44-.83-.92-1.25-1.39-.99.1-1.93.21-2.24.65.49.02.98.03,1.46.07.07,0,.11.09.21.18-.5.07-.99.13-1.67.23v-.47c-1.08-.04-2.16-.08-3.44-.13ZM76.02,57.02c.05-.32.1-.6.17-.97.39-.22.9-.51,1.42-.8.15-.15.29-.15.44,0,.58.44.66,1,1.95,1.27,1.19-.34-.32-.69-.02-1.09,1.11.03,2.19-.16,3.13.18-.17.1-.31.18-.39.22.19.15.36.27.53.4.34-.04.68-.08,1.04-.12.84.2.91.46.48.81-.39-.06-.71-.11-1.04-.15.02,0,.04-.02.09-.04-.04.02-.07.02-.09.03-.29-.03-.66-.11-.84-.07-.48.11-.88.27-1.3.41-.48-.04-.89-.07-1.26-.1-.35.15-.66.28-.99.42-.93-.45-2.32-.21-3.3-.41ZM76.12,58.17c.74.17.29.34-.14.61-.18-.28-.8-.47.14-.61ZM63.97,58c-.06.14-.12.28-.18.41-.13,0-.25-.01-.38-.02v-.41c.19,0,.37,0,.56.01ZM67.12,51.54c.56.05,1.29-.12,1.97.36-.92-.17-1.45-.26-1.97-.36ZM67.86,57.89c-.48.15,0,.59-1.17.55h0c-.18.05-.36.11-.67.19-.14-.26-.24-.44-.31-.58-.3-.03-.51-.06-.71-.08.96-.22,1.84-.53,2.87-.08ZM68,56.51c-.46.08-.77.13-1.27.22.08-.18.13-.31.22-.54.44.13.68.21,1.05.32ZM61.4,47.82s-.09.09-.14.14c-.32-.04-.63-.08-.95-.12.06-.06.12-.12.18-.18.3.05.6.1.9.15ZM64.2,37.19c-.19-.2-.35-.36-.56-.58.44-.02.71-.03,1.02-.04.4.26.34.45-.46.62ZM65.4,43.38c-.71.06-1.29.2-1.77-.09-.51.04-1.02.09-1.55.14-.01-.11-.07-.19-.02-.2.4-.1.81-.18,1.35-.29.1.16.16.26.23.36.56-.06,1.18-.36,1.76.09ZM64.94,47.17c.29.06.58.11.87.17l.15-.25.28.05c-.14.07-.27.13-.41.2q-.67.21-.88-.17ZM63.3,45.04q2.47-.08,2.88.46c-.48.26-.93.5-1.46.78-.48-.42-.94-.82-1.42-1.24ZM62.46,49.91c.03-.07.13-.13.21-.19.19.04.3.07.42.09-.1.06-.19.12-.32.17-.03,0-.32-.05-.31-.07ZM61.97,47.46c.2-.15.38-.28.56-.41.35.07.59.11,1.03.2-.3.17-.51.3-.76.45-.33-.09-.54-.15-.83-.24ZM60.16,43.46c.1-.04.19-.07.29-.11.13.07.26.13.39.2-.07.03-.15.05-.22.08-.15-.05-.31-.11-.46-.16ZM58.43,37.01c.28-.11.39-.2.55-.21.19-.02.42.02.63.03,0,.06-.02.13-.03.19h-1.16ZM56.54,46.26c.53-.29.97-.43,1.94-.38-.5.29-.95.42-1.94.38ZM55.07,39.53c0-.23,0-.46,0-.69,0-.02.09-.04.25-.11.39-.04.91-.1,1.6-.17.05.25.08.42.12.65-.45-.09-.75-.15-1.05-.22-.33.17.56.63-.93.54ZM54.9,35.29c.11,0,.22,0,.32,0v.36c-.11,0-.22,0-.32,0v-.36ZM53.78,41.32c.71.22.95.44,0,.64v-.64ZM48.88,41.82c.38-.02.58-.04.77-.05,1.09-.26,1.35-.24,1.76.17h0s.99-.31.99-.31c.09.03.18.05.28.08-.17.16-.34.33-.47.45-.73.12-1.35.22-1.94.31-.18-.21-.38-.45-.59-.7-.05.09-.11.18-.21.35-.26-.14-.39-.21-.58-.31ZM43.74,55.33c.08-.03.16-.06.24-.09.1-.16.19-.33.29-.49.1,0,.2.01.31.02.02.14.04.29.06.44-.24.02-.45.03-.65.04-.08.03-.15.06-.23.09h-.02ZM32.08,55.42c-.22-.15-.41-.28-.78-.53q1.39.17.78.53ZM35.18,53.8c.14-.22.25-.39.37-.56,1.3.14.54.51.78.77-.3-.06-.61-.11-1.15-.21ZM37.8,52.67c-.39.12-.81.26-1.29.41-.31-.21-.53-.37-.82-.57-.48.11-.86.2-1.27.29-.64-.24-.59-.46.33-.5.58-.03.46-.14.51-.26q1.85-.12,2.54.62ZM38.69,51.22c.28.05.6.1.93.15-.02,0-.03.01-.06.02.03-.01.04-.02.06-.02.13.13.25.25.43.42-.71.08-1.35.15-2,.22-.27-.37-.25-.62.64-.79ZM40.8,50.9c-1.08.18-1.09.18-2.35.04.75-.55.82-.55,2.35-.04ZM41.47,53.2c-.26.25-.55.45-.67.66-.12.22-.09.45-.14.74-.56-.07-1.01-.13-1.47-.19-.02.28-.29.46-1.11.45-.28-.58-.28-.58.31-.93.26.16.52.31.77.46.29-.22.64-.42.85-.65.19-.21.24-.44.37-.72.39.06.68.11,1.08.17ZM42.58,49.19c-.26.06-.51.11-.77.17,0-.11,0-.22,0-.33l.77.17ZM43.55,51.71c.08-.04.14-.1.25-.12.1-.02.25.01.78.06-.62.04-.82.05-1.02.07-.4.15-.73.36-1.21.45-.57.11-1.29.14-1.4-.3.24-.07.51-.15.79-.22.33-.09.67-.18.92-.24.38.13.64.22.9.31ZM44.61,49.9c-1.1.16-1.28-.02-1.56-.4.67.17,1.02.26,1.56.4ZM49.23,46.33c-.03.26-.05.51-.08.83-.55-.12-.85-.18-1.18-.25.23-.28.28-.58,1.26-.57ZM47.04,48.68c.21-.23.42-.45.7-.74.77.13,1.34.23,1.85.32.15.46.13.83-.95,1.12-.57-.25-1.08-.47-1.59-.7ZM46.71,50.29c-.5.36-.94.73-1.41,1.09-.81-.27-.33-.6-.02-.81.42-.22.83-.45,1.23-.66-.02-.12-.03-.23-.05-.34.75.23.61.47.26.72ZM47.48,51.54c-.44.22-.88.44-1.32.67-.36-.2-.73-.41-1.09-.61.08-.07.15-.15.23-.22.44-.11.87-.11,1.31,0,0,0-.01,0-.03.01.01,0,.02,0,.03,0l.87.17ZM34.67,43.04c.8-.08,1.3-.13,2.04-.2-.24.25-.38.4-.64.67-.56-.19-.88-.3-1.4-.47ZM29.59,44.79c.09-.03.18-.05.28-.08.19.1.38.2.57.29-.09.03-.18.05-.27.08l-.57-.29ZM26.95,35.84c-.03.11-.06.21-.09.34q-.64-.23.09-.34ZM15.95,34.61c-.14.17-.28.35-.42.52-.14-.02-.28-.05-.42-.07l.38-.5c.15.02.3.03.45.05ZM17.09,36.03c-2,.06-1.09.87-2.45,1.21-.33-.18-.66-.35-1.04-.55.59-.28-.74-.82.68-1.09.45.1.9.21,1.4.32.25-.19.42-.32.65-.49.25.2.44.34.77.6ZM14.62,49.87c.03.24.05.41.07.63q-.73-.29-.07-.63ZM16.92,36.56s0,0,0,0c-.24.08-.47.17-.76.27-.07-.26-.29-.54.76-.27ZM14.22,53.67c.54-.17.86-.27,1.27-.4.19.38-.12.49-1.27.4ZM13.4,51.48c.61.01,1.07.02,1.63.03v-.54c-.54,0-.95,0-1.35,0-.05,0-.08-.09-.17-.19,1.06-.06,2.1-.15,3.13-.14.2,0,1.33.04,1.15.4h-1.48c.64.22,1.35.3,2.05.39.1.01.15.08.31.18-.53-.02-.98-.03-1.4-.05-.3.15-.56.28-.79.4-.82.03-1.58.06-2.39.09-.24-.2-.44-.36-.69-.56ZM11.03,45.72h1.99c-.24.22-.42.38-.67.61-.44-.2-.77-.36-1.32-.61ZM9.87,48.95v.44c-.73-.27-.87-.39,0-.44ZM6.13,47s.14-.12.19-.12c.17,0,.33.05.5.08-.11.07-.18.12-.24.16-.15-.04-.32-.07-.45-.12ZM4.77,15.46q1.88.15,1.95.74c-.79-.13-1.38-.23-1.95-.33v-.41ZM2.05,38.16c.29-.22.52-.4.77-.59.69.1,1.25.19,1.94.29-.69.49-1.58.42-2.71.3Z"/>
      <path class="cls-1" d="M151.4,60.36c.03-.1.06-.21.1-.31.1,0,.19,0,.29.01-.03.1-.06.21-.09.31-.1,0-.2,0-.29-.01Z"/>
      <path class="cls-1" d="M136.07,36.08c-.09.02-.18.04-.27.05-.05-.08-.09-.17-.14-.25.14.06.28.13.41.19Z"/>
      <path class="cls-1" d="M137.16,37.99c.17.05.34.1.51.14-.08.03-.15.06-.23.1-.14-.06-.28-.12-.4-.18-.01,0,.11-.06.12-.06Z"/>
      <path class="cls-1" d="M141.05,39.99c.08.03.16.06.25.09-.15.05-.3.11-.47.15-.01,0-.16-.04-.15-.05.12-.07.25-.13.37-.2Z"/>
      <path class="cls-1" d="M148.46,54.32c-.05-.08-.09-.17-.14-.25,0,0,0,0,.01,0,.13.06.27.13.4.19-.09.02-.18.04-.27.05Z"/>
      <path class="cls-1" d="M147.5,36.68c.07-.02.15-.04.22-.07l.42.19c-.09.03-.17.05-.26.08-.13-.07-.26-.14-.39-.2Z"/>
      <path class="cls-1" d="M150.63,42.48c.07-.06.18-.13.32-.17.09-.03.26-.02.4-.03.06-.08.13-.16.19-.24l.27.06c-.13.07-.26.14-.4.21-.03.05-.01.12-.09.15-.11.05-.28.1-.44.12-.05,0-.27-.08-.25-.09Z"/>
      <path class="cls-1" d="M147.17,63.44c-.14-.06-.28-.13-.42-.19.09-.03.18-.05.27-.08.13.07.26.14.38.2-.08.02-.15.04-.23.06Z"/>
      <path class="cls-1" d="M143.52,63.5c.02-.05-.01-.12.06-.16.11-.06.27-.1.44-.13.04,0,.27.08.25.1-.08.06-.19.13-.34.17-.1.03-.27.02-.41.02Z"/>
      <path class="cls-1" d="M134.96,55.46c.14-.05.29-.1.43-.16.05.02.11.05.16.07-.15.05-.3.1-.45.15-.05-.02-.1-.04-.15-.06Z"/>
      <path class="cls-1" d="M130.42,62.65c.02-.05-.01-.12.06-.16.11-.06.27-.1.44-.13.04,0,.27.08.25.1-.08.06-.19.13-.34.17-.1.03-.27.02-.41.02Z"/>
      <path class="cls-1" d="M123.08,58.93s.11-.06.12-.06c.17.05.34.1.51.14-.08.03-.15.06-.23.09-.14-.06-.27-.12-.4-.18Z"/>
      <path class="cls-1" d="M129.5,69.44c-.07.02-.15.04-.22.07l-.42-.19c.09-.03.17-.05.26-.08.13.07.26.14.39.2Z"/>
      <path class="cls-1" d="M130.82,68.38c-.18.05-.35.1-.53.15-.06-.03-.11-.06-.17-.09.17-.05.33-.11.5-.16.07.03.13.07.2.1Z"/>
      <path class="cls-1" d="M125.92,64.89c-.06.02-.11.04-.17.06-.14-.06-.27-.11-.41-.17.06-.02.12-.04.18-.06l.39.17Z"/>
      <path class="cls-1" d="M95.26,69.59s-.01.06-.02.1c-.25,0-.49-.02-.74-.02,0-.03.01-.06.02-.09l.74.02Z"/>
      <path class="cls-1" d="M94.92,48.09c.05.09.1.17.14.26l-.41-.19c.09-.02.18-.04.27-.06Z"/>
      <path class="cls-1" d="M95.48,48.54c-.09.02-.18.04-.27.06-.05-.09-.1-.17-.14-.26l.41.19Z"/>
      <path class="cls-1" d="M103.87,47.86c.07.03.14.06.2.08-.16.06-.31.11-.47.17l-.21-.09c.16-.06.31-.11.47-.17Z"/>
      <path class="cls-1" d="M104.93,47.24c-.09.03-.18.05-.27.08-.13-.07-.26-.14-.39-.21.08-.02.15-.04.23-.07l.42.19Z"/>
      <path class="cls-1" d="M115.07,34.74s-.12.06-.12.06c-.18-.05-.35-.1-.52-.15.08-.03.15-.07.23-.1.14.06.28.12.41.19Z"/>
      <path class="cls-1" d="M110,66.99c-.13-.06-.26-.12-.39-.17.06-.02.11-.04.17-.06.14.06.27.11.41.17-.06.02-.12.04-.18.06Z"/>
      <path class="cls-1" d="M102.16,70.43c.05-.05.09-.13.16-.13.16,0,.34.02.53.03-.08.08-.14.16-.17.16-.17,0-.34-.04-.51-.06Z"/>
      <path class="cls-1" d="M101.31,64.59c.06,0,.12,0,.18,0v.33c-.06,0-.12,0-.18,0v-.33Z"/>
      <path class="cls-1" d="M96.37,58.45v.17c-.38-.06-.38-.11,0-.17Z"/>
      <path class="cls-1" d="M93.05,58.04s.22-.04.35-.06c.06.06.15.13.17.19,0,.01-.22.04-.41.07-.04-.07-.12-.14-.1-.2Z"/>
      <path class="cls-1" d="M79.06,59.01c.15-.05.3-.1.44-.15.06.04.2.1.18.11-.11.05-.26.09-.39.13-.07-.03-.15-.06-.22-.09Z"/>
      <path class="cls-1" d="M77.34,58.87c.07-.02.15-.05.22-.07.15.05.3.11.46.16l-.29.11c-.13-.06-.26-.13-.39-.19Z"/>
      <path class="cls-1" d="M68.17,52.81c.09-.03.18-.05.26-.08.13.07.26.14.39.2l-.23.06c-.14-.06-.28-.13-.42-.19Z"/>
      <path class="cls-1" d="M62.19,41.19c-.06,0-.12,0-.18,0v-.33h.18s0,.33,0,.33Z"/>
      <path class="cls-1" d="M64.33,37.97c.15.06.3.12.44.18-.08.03-.15.05-.23.08-.15-.06-.29-.12-.44-.18.07-.03.15-.05.22-.08Z"/>
      <path class="cls-1" d="M66.03,37.65c-.12.07-.25.13-.37.2-.08-.03-.17-.06-.25-.09.16-.05.31-.11.47-.15.01,0,.16.04.15.05Z"/>
      <path class="cls-1" d="M64.52,46.97c.09-.02.19-.04.28-.06.05.08.09.17.14.25-.14-.07-.28-.13-.42-.2Z"/>
      <path class="cls-1" d="M58.39,49.69s0,0,0,0c-.17.05-.33.1-.5.16-.05-.03-.11-.07-.16-.1.22-.02.44-.04.67-.06Z"/>
      <path class="cls-1" d="M60.19,46.11c.07-.02.15-.04.22-.07l.42.19c-.09.03-.17.05-.26.08l-.39-.2Z"/>
      <path class="cls-1" d="M58.99,44.41c.06-.02.12-.04.18-.06l.39.17c-.06.02-.11.04-.17.06-.14-.06-.27-.11-.41-.17Z"/>
      <path class="cls-1" d="M51.94,42.76c.17-.02.33-.06.51-.07.04,0,.1.09.19.16-.19.02-.37.05-.54.04-.06,0-.11-.09-.16-.13Z"/>
      <path class="cls-1" d="M50.56,47.19c.14-.06.28-.13.41-.19-.05.08-.09.17-.14.25-.09-.02-.18-.04-.27-.05Z"/>
      <path class="cls-1" d="M37.23,49.47c-.22.02-.44.04-.67.06-.02,0-.04.02-.05.02.01,0,.03-.01.06-.03.17-.05.33-.11.5-.16.05.03.11.07.16.1Z"/>
      <path class="cls-1" d="M41.81,54.74c.05-.08.09-.17.14-.25.09.02.18.04.28.05-.14.07-.28.13-.42.2Z"/>
      <path class="cls-1" d="M30.71,31.59c-.11.02-.29.07-.33.05-.13-.04-.21-.11-.3-.16.09-.02.17-.05.26-.07.13.06.25.12.38.18Z"/>
      <path class="cls-1" d="M14.66,33.89s-.11.06-.12.06c-.18-.05-.34-.1-.51-.14l.23-.09c.14.06.28.12.4.18Z"/>
      <path class="cls-1" d="M4.97,36.29c-.08.03-.16.06-.23.09-.13-.06-.27-.12-.4-.18-.01,0,.11-.06.12-.06.17.05.34.1.51.14Z"/>
      <path class="cls-1" d="M1.35,49.44l.28.05c-.14.07-.28.13-.41.2.05-.08.09-.17.14-.25Z"/>
      <path class="cls-1" d="M150.57,62.95c.1,0,.2,0,.29,0-.05.04-.09.09-.14.13l-.15-.13Z"/>
      <path class="cls-1" d="M60.21,48.65c.1,0,.2,0,.29,0-.05.04-.09.09-.14.13-.05-.04-.1-.09-.15-.13Z"/>
      <path class="cls-1" d="M57.3,44.72c.05.04.1.09.15.13-.1,0-.2,0-.29,0,.05-.04.09-.09.14-.13Z"/>
      <path class="cls-1" d="M87.57,51.84s-.09.09-.14.14c-.05-.04-.11-.09-.16-.13.1,0,.2,0,.3,0Z"/>
      <path class="cls-1" d="M103.29,44.77s-.09.09-.14.13c-.05-.04-.1-.09-.16-.13.1,0,.2,0,.3,0Z"/>
      <path class="cls-1" d="M103.89,49.21s0,.08,0,.11c-.12-.02-.23-.04-.35-.05.11-.02.23-.04.34-.06Z"/>
      <path class="cls-1" d="M144.46,42.16s.09-.09.14-.13l.16.13c-.1,0-.2,0-.29,0Z"/>
      <path class="cls-1" d="M148.97,36.64c.05.04.1.09.16.13-.1,0-.2,0-.29,0,.05-.04.09-.09.14-.13Z"/>
      <path class="cls-1" d="M145.89,61.73c.11-.02.23-.04.34-.06v.11c-.11-.02-.22-.04-.34-.05Z"/>
      <path class="cls-1" d="M139.66,64.21s.09-.09.14-.14l.16.13c-.1,0-.2,0-.3,0Z"/>
      <path class="cls-1" d="M134.54,61.73l.34-.06s0,.08,0,.12c-.12-.02-.23-.04-.35-.05Z"/>
      <path class="cls-1" d="M72.55,33.28c.12-.02.23-.04.35-.06v.12c-.11-.02-.23-.04-.35-.06Z"/>
      <path class="cls-1" d="M45.93,45.23c.11-.02.23-.04.34-.06,0,.04,0,.08,0,.11-.12-.02-.23-.04-.35-.05Z"/>
      <path class="cls-1" d="M37.2,31.93l.34-.06s0,.08,0,.11c-.12-.02-.23-.04-.35-.05Z"/>
      <path class="cls-1" d="M5.77,35.81l.34-.06s0,.08,0,.11c-.12-.02-.23-.04-.35-.05Z"/>
      <path class="cls-1" d="M4.77,39.63s.09-.09.14-.14c.05.04.11.09.16.13-.1,0-.2,0-.3,0Z"/>
      <polygon class="cls-1" points="85.02 67.2 85.02 67.2 85.02 67.2 85.02 67.2"/>
      <path class="cls-1" d="M82.11,73.21c.43-.11.79-.19,1.11-.27,1.15-.04,2.14.45,3.43.06-.53-.08-1.02-.14-1.51-.21l.41-.18c-.79-.01-1.58-.03-2.35-.04-.47-.62-.53-1.74-.06-2.12-.38,0-.69.01-1.01.02q-.04-.55,1.91-1.34-.39-.38-3.15-1.15c.12-.23.23-.46.37-.73.89.07,1.71.13,2.54.2.39-.08.8-.16,1.22-.24-.44-.11-.87-.22-1.31-.34-.24-.1-.43-.22-.72-.29-.6-.16-1.25-.29-1.91-.44-.87.23-.01.41.16.55-.52.33-1.1.61-1.41.92-.28.28-.69.48-1.36.61h0c-.24.64-.16,1.31-1.16,1.88.49.45.99.92,1.52,1.4h.44c.05.27.1.54.15.83.63.03,1.22.06,1.79.09.33.29.61.54.91.8ZM82.89,67.05s-.04-.01-.05-.02c.29-.06.58-.11.87-.17-.2.37-.21.38-.82.19Z"/>
      <path class="cls-1" d="M.33,53.9c.1.16.19.32.37.63.38-.28.55-.4.76-.55.42.22.79.41,1.24.65.71-.2,1.37-.38,1.99-.55.37.07.62.11.88.16h0c.29.03.6.05.87.1.31.06.59.14.8.19-.77.28-1.41.51-1.99.72-.23-.24-.5-.5-.86-.87-.36.28-.58.46-.81.63-.35-.08-.61-.14-1.03-.24.14.26.23.41.31.56-.94.21-1.79.39-2.67.59-.09-.06-.15-.13-.19-.19v-1.84c.11,0,.22,0,.33.01h0Z"/>
      <path class="cls-1" d="M97.33,81.19c-.33.17-.64.32-.96.48h0q-.7.43,0,1.03c.82-.19,1.75-.3,2.22-.73.29.07.56.14.83.2h0c.52-.04,1.04-.08,1.51-.12.03-.48-.95-.84-.23-1.25-.35-.19-.67-.37-1-.56-.39.06-.78.11-1.58.23.52-.34.82-.55,1.26-.84h-2.58c-.16-.39-.5-.74-1.31-1.01h0c-.38.05-.76.1-1.06.15v1.17c.8-.1,1.58-.2,2.36-.3-.14.15-.38.27.03.45.26.11.26.32.5.65-.78-.21-1.13-.3-1.47-.39-.52.21-.03.47,1.48.83ZM96.37,81.68h0s.05.02.07.03c-.02,0-.04-.02-.07-.03ZM96.41,81.69c.05.02.08.03,0,0h0ZM97.37,81.11c.52-.22.71-.3,1.01-.43.2.18.32.29.53.49-.48-.02-.79-.03-1.54-.06Z"/>
      <path class="cls-1" d="M140.45,67.53c-.19.01-.39.03-.76.05.19.1.31.17.56.3.11-.16.17-.25.22-.34.46.03.93.05,1.63.09-.39-.49-.72-.9-1.05-1.32.29-.13.62-.27.95-.41.39.08.7.15,1.12.24-.11.31-.21.61-.34.99.16.27,1.12.57.54,1-.43-.08-.84-.16-1.35-.27-.16.25-.27.43-.39.62-.8.06-1.53.12-2.25.18-.04-.04-.09-.08-.13-.12.35-.09.7-.18,1.19-.31-.56-.11-1.05-.2-1.63-.32-.27-.24-.58-.51-.92-.81.61-.1,1.05-.17,1.62-.26.37.25.68.46.99.68Z"/>
      <path class="cls-1" d="M106.42,78.99c-.28.07-.56.14-1,.25v.76c.3-.08.77-.15.75-.21-.08-.35.7-.42,1.1-.6.64.11.32.56,1.32.48.14.15.29.14.44,0,.29,0,.57-.01,1.02-.02.21-.23.44-.47.65-.69-.92-.31-1.15.11-1.82.17-.7-.37.25-1.06-1.41-1.25-.98.18-1.98.36-3.09.56.67.19,1.34.37,2.01.56.18-.04.37-.07.55-.11.02.02.04.05.06.07l-.6.04ZM108.34,79.38c.21-.02.34-.06.46-.05.17,0,.32.05.48.07-.11.1-.19.18-.26.25-.14,0-.29,0-.43,0-.08-.09-.17-.19-.25-.28Z"/>
      <path class="cls-1" d="M15.36,57.84c-.14,0-.31.1-.42.13-.12.21,1.08.34-.1.61-1.17-.58-2.27-1.19-3.02-1.94.61-.05,1.18-.09,1.84-.14-.06.22-.09.35-.15.59,1.35.03,2.5.06,3.75.09-.19.42-.59.72-1.89.66Z"/>
      <path class="cls-1" d="M10.61,64.48c.24-.26.35-.52.7-.72.42-.24,1.05-.43,1.59-.64-.31-.11-.51-.19-.72-.27,1.28-.37,3.08-.28,3.7-.97.75.44-.02.81.05,1.17h-2.11c.33.19.53.31.89.53h-1.95c-.41.17-.75.3-1.04.42.05.18.09.33.13.48h-1.23Z"/>
      <path class="cls-1" d="M4.84,63.21c1.23-.12,1.68-.67,2.97-.72.22.23.59.44.57.63-.05.36-.94.33-1.6.42-.35.05-.61.2-.91.31-.72-.18-1.34-.34-1.82-.47-.15-.25-.25-.42-.38-.63.28-.03.53-.05.84-.08.13.21.23.38.32.53Z"/>
      <path class="cls-1" d="M115.76,69.57c.84.11,1.41.19,1.92.26.36-.16.6-.27.99-.45.3.43.54.76.78,1.11-.32.14-.6.27-.88.39-.87-.17-1.57-.31-2.42-.47-.13-.28-.24-.51-.39-.84Z"/>
      <path class="cls-1" d="M39.34,57.17c-.04.09-.08.19-.14.33.31.04.57.07.83.1.26.03.53.06.94.1-.33.17-.57.29-.9.46.55.08,1.05.14,1.59.22.06-.11.1-.19.14-.27h0c.28-.2.56-.4.91-.64q-.67-.42-3.38-.29ZM41.8,58.11h0c-.14-.06-.07-.03,0,0Z"/>
      <path class="cls-1" d="M61.74,64.08c.4-.16.75-.31,1.2-.5.88.23,1.61.42,2.55.66-.59.07-.86.1-1.26.15-.11.2-.2.36-.29.54-.71-.07-1.36-.13-2.26-.22.53-.11.78-.15,1.05-.21-.31-.14-.58-.26-.98-.43Z"/>
      <path class="cls-1" d="M101.43,82.28c.59-.12,1.17-.23,1.87-.38.12.5,2.18.6,1.47,1.39-.23-.19-.31-.27-.55-.47-.69.05-1.44.12-2.2.16-.22,0-.47-.09-.71-.15.22-.17.39-.3.54-.42-.2-.07-.31-.1-.42-.14Z"/>
      <path class="cls-1" d="M8.17,55.74c-.07.33-.13.65-.2.99h-1.42c.03-.16.05-.28.08-.4-.35-.06-.7-.13-1.19-.22.46-.09.71-.13,1.2-.22-.56-.09-.88-.13-1.37-.21,1.12-.19,2.03-.22,2.91.06Z"/>
      <path class="cls-1" d="M68.98,65.09c.72.09,1.39.18,2.07.26h0c-.01.22-.02.45-.06.67,0,.03-.19.05-.35.09-.32-.18-.64-.36-.92-.52-1.03-.01-2.66-.13-2.99-.26.83-.09,1.56-.17,2.24-.25Z"/>
      <path class="cls-1" d="M81.4,61.43c.06.02.09.04.12.05-.45.41-.33.61.53.65.76.04,1.54,0,2.84,0-1.17-.4-1.96-.67-2.83-.96-.22.13-.38.21-.53.3-.03-.01-.07-.03-.13-.05ZM81.57,61.49s.06.02,0,0h0Z"/>
      <path class="cls-1" d="M124.59,76.72c.49.1.92.18,1.29.26-.03.18-.06.31-.08.43-1.53.11-2.25-.31-3.23-.65.78-.15,1.39-.26,2.02-.38v.34Z"/>
      <path class="cls-1" d="M108.8,81.77c.95.08.89-.3,1.55-.36.23.08.48.18.82.3-.67.18-1.21.32-1.68.44.42.22.6.31.94.49-.69.02-1.1.03-1.31.03-.32-.17-.56-.28-.76-.4-.38-.24-.07-.55.44-.5Z"/>
      <path class="cls-1" d="M51.24,66.46c-.57.07-1.16.14-1.53.18-.69-.26-1.2-.45-1.7-.64,3-.24,3.07-.23,3.23.46Z"/>
      <path class="cls-1" d="M2.73,58.71c-.17-.19-.38-.43-.57-.64h3.64c-.44.33-.78.59-1.11.84-.11-.02-.22-.03-.33-.05.09-.17.17-.33.31-.61-1.05.1-.67.67-1.94.46Z"/>
      <path class="cls-1" d="M92.15,83.64c.21-.22.4-.41.57-.59q1.19,0,2.1.17l-.63.47c-.38.09-.76.17-1.2.27-.04-.12-.07-.19-.1-.27-.03,0-.05.01-.09.03.06-.03.09-.05.11-.06-.01,0-.03.01-.05.02-.2-.01-.4-.03-.72-.05Z"/>
      <path class="cls-1" d="M112.3,81.66c1.08.18,2.04.29,2.5.91-.71-.35-1.35.15-1.83-.21.1-.08.21-.16.31-.23-.16-.02-.31-.05-.6-.09.13.15.21.24.28.33-.5.05-.94.29-1.53.07.16-.12.34-.23.48-.35.14-.13.25-.26.39-.41Z"/>
      <path class="cls-1" d="M9.03,61.3c1.18.41.43.78.1,1.35-.62-.36-.99-.57-1.5-.86.55-.19.95-.33,1.39-.48Z"/>
      <path class="cls-1" d="M2.28,60.03c.07-.06.62-.02,1.02-.03.04.2.06.33.09.47h0c-.39-.02-.79-.05-1.31-.08v.42c-.58.11-1.16.23-1.74.34h0c-.11-.57,1.44-.7,1.95-1.11Z"/>
      <path class="cls-1" d="M29.03,54.87v.79q-1.04.15-1.94-.03c.25-.18.5-.37.75-.55.4-.07.8-.14,1.19-.2Z"/>
      <polygon class="cls-1" points="27.84 55.08 27.84 55.08 27.83 55.08 27.84 55.08"/>
      <path class="cls-1" d="M103.02,75.22c.43.51.79.94,1.26,1.5-.7-.22-1.23-.39-1.78-.56.1-.29-.27-.6.52-.94Z"/>
      <path class="cls-1" d="M98.25,78.48c-.86-.08-1.66-.15-2.46-.24-.08,0-.11-.09-.18-.14.45-.11.9-.22,1.48-.36.29.25,1.34.31,1.15.74Z"/>
      <path class="cls-1" d="M87.23,61.12c-.58-.28-1.15-.57-1.85-.91,1.4.02,1.75.16,1.85.91Z"/>
      <path class="cls-1" d="M113.48,78.74h0s0-.01,0,0Z"/>
      <path class="cls-1" d="M113.48,78.74c.71.2,1.53.42,2.35.65-.06.03-.12.07-.17.1-.76-.15-1.53-.3-2.3-.46.06-.16.11-.27.12-.3Z"/>
      <path class="cls-1" d="M3.39,60.47h0c.26.08.51.17.82.27q1.17-.07,2.66.23c-1.31,0-2.62,0-3.93,0q-.66.2-.87-.17c.29.06.58.11.87.17.15-.17.29-.34.44-.5Z"/>
      <path class="cls-1" d="M9.96,58.27c.46.05.96.07,1.37.16.15.03.11.2.16.3-.11.02-.23.05-.34.07l-1.21-.52c-.26.03-.52.06-.94.11-.26-.24-.5-.47-.85-.79,1.27.1,1.91.25,1.82.67Z"/>
      <path class="cls-1" d="M47.28,54.02c-.93.08-1.18-.05-1.02-.33.26-.03.49-.05.78-.08-.26-.14-.48-.25-.76-.39q1.21.02,1,.8Z"/>
      <path class="cls-1" d="M25.45,52.92c.22.18.42.34.64.53-1.22.02-1.85-.19-2.19-.56h0c.5,0,.99.02,1.54.03Z"/>
      <path class="cls-1" d="M99.75,77.43c-.37.13-.67.23-1.09.37-.24-.19-.42-.32-.7-.54.58-.11.92-.17,1.31-.25.2.17.33.29.48.42Z"/>
      <path class="cls-1" d="M11.01,73.99c-.27.12-.45.2-.64.28.14.06.28.13.41.19-.09.02-.18.04-.26.06l-.15-.25c-.29-.06-.58-.11-.87-.17h0c-.05-.16-.1-.31-.16-.46,1.02-.11,1.55.02,1.67.34Z"/>
      <path class="cls-1" d="M141.32,71.43c-1.51.15-1.62.12-1.45-.5.79.04,1.16.24,1.45.5Z"/>
      <path class="cls-1" d="M11.93,62.41c.1-.07.2-.14.3-.21.05,0,.1.01.16.02-.15.06-.3.13-.46.19Z"/>
      <path class="cls-1" d="M12.35,61.56c.08-.03.42.06.64.09h0s0,0,0,0c0,0,0,0,0,0-.26.18-.51.37-.77.55-.38-.05-.77-.11-1.1-.15.35-.14.76-.33,1.23-.49Z"/>
      <path class="cls-1" d="M19.86,58.45c-.44-.16-.75-.27-1.48-.53.95-.06,1.42-.08,2.21-.13-.32.29-.5.45-.74.66Z"/>
      <path class="cls-1" d="M5.01,51.48c-.5.17-.96.33-1.54.53-.57-.56-.33-.63,1.54-.53Z"/>
      <path class="cls-1" d="M78.15,83.43c-.02-.09-.04-.19-.08-.4.66.02,1.08.04,1.54.05-.28.3-.52.54-1.46.35Z"/>
      <path class="cls-1" d="M86.14,62.41c-.07-.39.49-.61.98-.98.25.26.39.41.52.55h0c-.92-.13-.66.4-1.5.43Z"/>
      <path class="cls-1" d="M56.68,55.58c-.35.15-.71.3-1.16.49-.23-.21-.36-.32-.59-.52.63-.04,1.09-.08,1.55-.11.06.05.13.09.19.14Z"/>
      <polygon class="cls-1" points="66.25 67.54 66.25 67.54 66.25 67.54 66.25 67.54"/>
      <path class="cls-1" d="M69.1,67.4l-.04.13h-2.81c.21-.11.43-.21.66-.33.77.07,1.48.13,2.19.2Z"/>
      <path class="cls-1" d="M20.26,53.54c.41.09.82.12,1.01.22.37.2.61.43.9.64,1.3.03.7.43.87.68-.29-.11-.58-.22-.86-.33h-.02c0-.12,0-.23,0-.34-.34,0-.69-.01-.83-.02-.38-.3-.68-.55-1.07-.86Z"/>
      <path class="cls-1" d="M77.68,62.37c.42-.15.67-.24.95-.34.29.28.54.52.81.78-.99.04-1.09-.32-1.76-.44Z"/>
      <path class="cls-1" d="M111.91,76.1c.26.21.46.37.66.53-.1.04-.19.08-.29.11-.44-.12-.89-.25-1.46-.41.39-.08.67-.14,1.08-.23Z"/>
      <path class="cls-1" d="M103.81,78.81c-.59-.03-.9-.04-1.38-.06.19-.22.33-.38.6-.68.33.32.51.49.78.75Z"/>
      <path class="cls-1" d="M8.52,53.41c-.17.16-.25.24-.33.32.27.06.54.12.8.17-.08.04-.16.07-.24.11-.19-.09-.38-.19-.57-.28-.67-.06-1.34-.12-2.1-.19.88-.41,1.6.01,2.43-.13Z"/>
      <path class="cls-1" d="M140.44,69.79c-.38.19-.6.31-.83.43-.13-.01-.26-.02-.39-.04-.02-.26-.04-.53-.06-.79h0c-.38-.06-.37-.11,0-.17,0,.06,0,.11,0,.17.42.13.85.27,1.29.41Z"/>
      <path class="cls-1" d="M116.68,75.11c-.03.2-.04.33-.08.61-.62-.16-.97-.25-1.62-.42.79-.09,1.22-.13,1.7-.19Z"/>
      <path class="cls-1" d="M30.25,57.65c.27.17.34.35-.32.43-.27-.17-.52-.32-.76-.47-.06.08-.11.16-.17.24-.09-.02-.18-.03-.26-.05.13-.07.26-.13.39-.2.45-.26.85-.12,1.12.05Z"/>
      <path class="cls-1" d="M119.25,79.64c-.06.02-.25-.03-.38-.04v-.58c.53.19.78.28,1.03.38-.21.08-.41.17-.65.24Z"/>
      <path class="cls-1" d="M88.1,75.34c.17.36.26.54.41.85-.62-.14-.89-.2-1.24-.28.24-.16.41-.29.83-.57Z"/>
      <path class="cls-1" d="M77.6,66.53c.66.02,1.32.04,2.06.07-1.39.37-1.42.37-2.06-.07Z"/>
      <polygon class="cls-1" points="77.6 66.53 77.6 66.53 77.6 66.53 77.6 66.53 77.6 66.53 77.6 66.53"/>
      <polygon class="cls-1" points="145.7 80.5 145.7 80.5 145.7 80.5 145.7 80.5"/>
      <path class="cls-1" d="M146.84,80.98c-.47-.03-.93-.07-1.47-.1.16-.18.24-.28.33-.37.43.11.86.22,1.29.33-.05.05-.1.1-.15.15Z"/>
      <path class="cls-1" d="M91.04,79.59c-.17,0-.35,0-.52,0-.35-.2-.39-.39.43-.71.05.33.07.52.1.71Z"/>
      <path class="cls-1" d="M114.48,80.39l.02.17c-.51.04-1.02.07-1.53.11-.08-.09-.16-.19-.29-.34.71.02,1.26.04,1.81.06Z"/>
      <path class="cls-1" d="M33.27,78.7c.35.22.87.41-.01.56-.67-.18-.73-.35.01-.56Z"/>
      <path class="cls-1" d="M143.17,72.49c-.5.11-.8.17-1.36.3.05-.24.08-.36.13-.56.46.1.74.16,1.24.27Z"/>
      <path class="cls-1" d="M36.53,58.4s-.11-.02-.17-.03q.25-.32,1.44-.39c-.51.17-.89.3-1.27.42Z"/>
      <path class="cls-1" d="M12.59,73.87c.67-.07,1.34-.13,2.02-.2.03.05.07.1.1.15-.67.07-1.34.13-2.02.2-.03-.05-.07-.1-.1-.15Z"/>
      <path class="cls-1" d="M73.98,65.07c-.09.04-.19.08-.28.12-.41-.07-.82-.14-1.36-.23.32-.12.5-.18.74-.27.34.14.62.26.9.37Z"/>
      <path class="cls-1" d="M46.43,56.1c-.25.19-.44.33-.74.55-.52-.38-.49-.55.74-.55Z"/>
      <path class="cls-1" d="M150.5,77.39c.51.01.87.02,1.76.04-.79.25-1.27.4-1.74.55-.12.1-.23.21-.35.31-.11,0-.22-.02-.33-.02-.03-.12-.06-.25-.11-.4.37.05.57.08.77.1v-.58Z"/>
      <path class="cls-1" d="M45.3,57.1c.55.11.43.26.05.37-.19.06-.52.03-1.1.06.51-.21.78-.32,1.05-.44h0Z"/>
      <path class="cls-1" d="M82.01,82.47c-.23.18-.42.32-.73.57q-.35-.37.73-.57Z"/>
      <path class="cls-1" d="M88.29,63.64c.21.22.33.35.53.56-.55-.05-.82-.08-1.25-.12.25-.15.42-.26.72-.44Z"/>
      <path class="cls-1" d="M117.33,77.64q-.48.38-1.3.07c.5-.03.9-.05,1.3-.07h0Z"/>
      <path class="cls-1" d="M48.1,53.77c.34.02.68.04,1.02.06-.04.07-.08.14-.12.22l-1-.11c.03-.05.07-.1.1-.16Z"/>
      <path class="cls-1" d="M13.28,74.79c-.49-.16-.81-.27-1.12-.37.9-.09,1.19.03,1.12.37Z"/>
      <path class="cls-1" d="M57.16,62.77c-.67-.07-1.13-.12-1.91-.2.68-.09,1.03-.14,1.43-.2.17.14.27.22.48.4Z"/>
      <path class="cls-1" d="M55.87,56.89c.54.24.88.4,1.21.55-.4-.02-.8-.04-1.21-.06v-.49Z"/>
      <polygon class="cls-1" points="57.08 57.44 57.08 57.44 57.09 57.44 57.08 57.44 57.08 57.44"/>
      <path class="cls-1" d="M3,64.13c-.24.12-.43.22-.69.35q-.13-.38.69-.35Z"/>
      <path class="cls-1" d="M70.85,63.3c.31-.02.62-.04.92-.07,0,.06.01.12.02.19h-.93s-.01-.08-.02-.12Z"/>
      <path class="cls-1" d="M63.72,60.95c.49.18.78.29,1.43.52-1.15-.06-1.43-.18-1.43-.52Z"/>
      <path class="cls-1" d="M16.67,59.51c.31.04.63.08.94.11-.06.06-.12.12-.18.17-.3-.05-.6-.1-.89-.15.04-.05.09-.09.13-.14Z"/>
      <path class="cls-1" d="M28.13,51.83c-.19,0-.38-.01-.57-.02.12-.12.23-.25.35-.37.1,0,.21.02.31.03-.03.12-.06.24-.09.36Z"/>
      <path class="cls-1" d="M33.14,56.56l.96-.09.11.12c-.27.05-.54.11-.81.16-.09-.06-.17-.13-.26-.19Z"/>
      <path class="cls-1" d="M114.84,81.06c.19,0,.38.01.57.02-.11.13-.22.25-.33.38-.1,0-.21-.02-.31-.03.03-.12.05-.24.08-.36Z"/>
      <path class="cls-1" d="M36.57,78.31c.35.02.69.04,1.04.06-.03.04-.07.08-.1.12-.32-.06-.63-.12-.95-.17-.72-.01-1.03-.13-.59-.53.26.23.43.38.6.53Z"/>
      <path class="cls-1" d="M5.64,77c-.48.09-.84.15-1.21.22-.04-.03-.08-.06-.12-.08.27-.11.55-.23.82-.34.13.05.26.11.51.21Z"/>
      <path class="cls-1" d="M144.99,74.71c.3-.03.6-.06.9-.09.04.04.07.07.11.11-.27.06-.55.12-.82.17-.06-.07-.13-.13-.19-.2Z"/>
      <path class="cls-1" d="M33.52,74.1c.43.11.85.21,1.28.32-.78.06-1.28,0-1.29-.32h.01Z"/>
      <path class="cls-1" d="M7.55,52.95c-.89-.03-1.43-.04-1.97-.06h0c.59-.29,1.12-.19,1.98.06Z"/>
      <path class="cls-1" d="M79.71,73.03c1.04-.17,1.36-.05,1.39.23.26.08.52.15,1.1.33-.66.02-.94.03-1.21.04.03-.12.07-.25.1-.37-.39-.06-.77-.13-1.39-.23Z"/>
      <path class="cls-1" d="M19.5,57.09c.09.03.18.06.27.09-.06.04-.09.12-.17.13-.22.03-.47.03-.71.04.21-.09.41-.18.62-.27Z"/>
      <path class="cls-1" d="M87.92,66.63c-.16-.24-.22-.34-.28-.44h0c.24.04.49.07.73.11-.09.07-.19.14-.45.32Z"/>
      <path class="cls-1" d="M14.96,59.18l.86.18s-.08.07-.13.1c-.3-.05-.6-.1-.89-.15.05-.04.11-.09.16-.13Z"/>
      <path class="cls-1" d="M46.69,59.67c.06.06.15.12.17.19,0,.01-.22.04-.41.07-.04-.07-.12-.14-.1-.2,0-.02.22-.04.34-.06Z"/>
      <path class="cls-1" d="M48.52,59.35c.13-.1.25-.2.49-.38.22.28.37.47-.49.38Z"/>
      <path class="cls-1" d="M63.77,60.68c.03-.06.13-.12.21-.19.18.04.3.07.41.09-.1.06-.18.12-.31.17-.03,0-.32-.05-.31-.07Z"/>
      <path class="cls-1" d="M4.26,53.56c.39-.02.79-.04,1.43-.08-.59.29-.98.3-1.43.08Z"/>
      <path class="cls-1" d="M12.99,62.13v-.48c.26.08.51.15.86.25-.3.08-.49.13-.86.23Z"/>
      <path class="cls-1" d="M45.37,60.68c.06.06.14.12.17.19,0,.01-.22.04-.4.07-.04-.07-.11-.14-.1-.2,0-.02.22-.04.34-.06Z"/>
      <path class="cls-1" d="M140.04,72.56h-1.42c.45-.14.64-.24.74-.23.19.02.34.11.68.23Z"/>
      <path class="cls-1" d="M89.35,60.33c-.09.02-.19.05-.28.07l-.53-.31.28-.07c.18.1.35.2.53.31Z"/>
      <path class="cls-1" d="M92.16,74c.16-.11.31-.22.47-.33.09.02.17.03.26.05-.11.12-.23.24-.34.36-.13-.03-.26-.06-.39-.08Z"/>
      <polygon class="cls-1" points="25.22 54.91 25.22 54.91 25.22 54.91 25.22 54.91"/>
      <path class="cls-1" d="M24.81,54.93c.1-.03.27-.02.4-.02-.02.05,0,.12-.06.16-.11.06-.27.1-.43.13-.04,0-.27-.08-.25-.1.08-.06.19-.13.34-.17Z"/>
      <path class="cls-1" d="M141.76,75.07c-.05.1-.1.19-.15.29-.16-.03-.46-.07-.46-.1,0-.08.14-.17.22-.25.13.02.26.04.39.06Z"/>
      <path class="cls-1" d="M96.97,75.6c-.3,0-.55,0-.87-.02q.53-.25.87.02Z"/>
      <path class="cls-1" d="M129.78,76.71c-.21.09-.41.18-.62.27-.09-.03-.18-.06-.27-.09.05-.04.08-.12.17-.13.23-.03.47-.03.71-.04Z"/>
      <path class="cls-1" d="M131.48,77.66c0,.08-.13.17-.21.25l-.4-.06c.05-.1.1-.19.15-.29.16.03.46.07.46.1Z"/>
      <path class="cls-1" d="M145.98,80.21c-.13.13-.21.21-.28.29-.24-.08-.49-.15-1.13-.35.8.04,1.08.05,1.41.07Z"/>
      <polygon class="cls-1" points="145.7 80.5 145.7 80.5 145.7 80.5 145.7 80.5"/>
      <path class="cls-1" d="M57.09,57.44c.29.12.58.23.87.35-.13.03-.26.07-.38.1-.16-.15-.32-.3-.48-.44Z"/>
      <path class="cls-1" d="M64.7,51.26c-.4.2-.6.29-.92.45-.09-.18-.12-.25-.16-.33h.01c.24-.03.48-.06,1.06-.12Z"/>
      <path class="cls-1" d="M74.61,64.98c.17-.03.32-.07.49-.08.04,0,.21.11.19.12-.11.05-.28.08-.42.12-.07-.04-.14-.09-.25-.15Z"/>
      <path class="cls-1" d="M80.4,65.17l.87-.1s.07.07.1.11c-.27.05-.53.11-.8.16-.06-.06-.11-.11-.17-.17Z"/>
      <path class="cls-1" d="M75.4,86.87c-.19.1-.37.19-.56.29-.09-.02-.18-.05-.26-.07.19-.1.37-.2.56-.29.09.03.18.05.27.08Z"/>
      <path class="cls-1" d="M29.58,53.9c.29-.06.58-.11.87-.17h0c.08.09.15.19.32.4-.56-.11-.88-.17-1.2-.23Z"/>
      <polygon class="cls-1" points="29.58 53.9 29.58 53.9 29.58 53.9 29.58 53.9"/>
      <path class="cls-1" d="M18.61,56.73c-.14.06-.28.12-.41.18-.07-.03-.15-.05-.22-.08.14-.06.28-.12.43-.18.07.02.14.05.21.07Z"/>
      <path class="cls-1" d="M55.59,56.5c-.11.02-.29.07-.33.05-.12-.04-.2-.11-.29-.16.08-.02.17-.05.25-.07.12.06.24.12.37.18Z"/>
      <path class="cls-1" d="M142.73,69.41c.06.03.12.05.18.08-.14.06-.29.12-.43.18-.09-.04-.18-.08-.27-.12.17-.05.34-.09.51-.14Z"/>
      <path class="cls-1" d="M11.86,59.57l.22-.09c.13.06.27.11.39.17.01,0-.11.06-.11.06-.17-.04-.34-.09-.5-.14Z"/>
      <path class="cls-1" d="M90.76,72.12c.14-.06.28-.12.42-.19.08.03.15.05.23.08-.14.06-.29.12-.43.18-.07-.02-.14-.05-.21-.07Z"/>
      <path class="cls-1" d="M78.74,72.46c-.08,0-.15,0-.23,0,.01-.09.03-.19.04-.28.08,0,.16,0,.25,0-.02.09-.04.19-.06.28Z"/>
      <path class="cls-1" d="M90.51,73.84c-.07.02-.14.05-.21.07-.15-.05-.3-.11-.44-.16l.28-.1c.13.06.25.13.38.19Z"/>
      <path class="cls-1" d="M79.96,73.66c.05.02.11.05.16.07-.15.05-.3.1-.45.15-.05-.02-.09-.04-.14-.06.14-.05.29-.1.43-.15Z"/>
      <path class="cls-1" d="M99.82,75.76c-.15.06-.31.11-.46.17-.07-.03-.14-.06-.2-.08l.46-.17c.07.03.14.06.21.08Z"/>
      <path class="cls-1" d="M59.1,60.9c-.15.06-.29.12-.44.18l-.22-.07c.14-.06.29-.12.43-.19.08.03.15.05.23.08Z"/>
      <path class="cls-1" d="M118.46,77.06c-.14.06-.28.12-.42.18-.09-.04-.17-.08-.26-.12.17-.05.34-.09.51-.14.06.03.12.05.18.08Z"/>
      <path class="cls-1" d="M113.02,77.08c.07-.02.15-.04.22-.06.14.06.27.13.41.19l-.26.07c-.13-.07-.25-.13-.38-.2Z"/>
      <path class="cls-1" d="M87.48,77.58c-.31-.05-.51-.08-.71-.11h0c.22-.04.44-.07.66-.1.02.06.03.13.06.21Z"/>
      <polygon class="cls-1" points="2.08 60.8 2.08 60.8 2.08 60.8 2.08 60.8 2.08 60.8"/>
      <path class="cls-1" d="M99.58,78.59l-.39-.17c.1-.02.25-.08.28-.07.13.04.23.1.34.15-.08.03-.16.06-.23.09Z"/>
      <path class="cls-1" d="M144.28,79.85c-.11.05-.27.08-.41.11-.06-.03-.12-.06-.17-.1.15-.05.3-.09.45-.14.05.04.17.11.14.12Z"/>
      <path class="cls-1" d="M10.71,80.11c-.38.02-.57.04-.76.05,0,0,0,0,0,0,.05-.09.11-.18.21-.35.25.14.38.2.56.3Z"/>
      <path class="cls-1" d="M102.22,81.4c.05.02.1.05.16.07-.15.05-.3.1-.44.15-.05-.02-.1-.04-.14-.06.14-.05.29-.1.43-.15Z"/>
      <path class="cls-1" d="M106.81,81.66c-.13.06-.27.12-.4.17-.09-.04-.19-.07-.28-.11.16-.05.33-.1.49-.15.06.03.13.05.19.08Z"/>
      <path class="cls-1" d="M114.56,82.9c-.05.02-.11.04-.16.06-.13-.06-.27-.11-.4-.17.06-.02.12-.04.18-.06.13.06.26.11.39.17Z"/>
      <polygon class="cls-1" points="30.45 49.52 30.45 49.52 30.45 49.52 30.45 49.52"/>
      <path class="cls-1" d="M56.41,61.22c-.06-.04-.12-.09-.19-.13.29-.04.57-.08.86-.12.22-.03.44-.06.67-.09.01.06.03.12.05.2-.31-.05-.51-.08-.71-.11-.22.08-.45.17-.67.25Z"/>
      <path class="cls-1" d="M76.57,86.83c-.16.06-.31.11-.47.17-.07-.03-.13-.06-.2-.09.16-.06.31-.11.47-.17.07.03.13.06.2.08Z"/>
      <path class="cls-1" d="M26.44,50.44c-.08,0-.16,0-.24,0,.02-.09.03-.19.05-.28.07,0,.15,0,.22,0-.01.09-.02.19-.04.28Z"/>
      <path class="cls-1" d="M9.02,52.22c-.17.05-.35.1-.52.15-.05-.03-.11-.06-.16-.08.16-.05.33-.11.49-.16l.2.1Z"/>
      <path class="cls-1" d="M53.43,61.71c-.06.02-.12.04-.18.06-.13-.06-.26-.11-.39-.17.06-.02.11-.04.16-.06.13.06.27.11.4.16Z"/>
      <path class="cls-1" d="M16.85,61.68c-.08.02-.17.05-.25.07-.12-.06-.25-.12-.37-.17.11-.02.28-.06.32-.05.13.04.2.1.29.16Z"/>
      <polygon class="cls-1" points="26.53 48.68 26.53 48.68 26.53 48.68 26.53 48.68"/>
      <path class="cls-1" d="M22.98,57.6c-.17.05-.35.1-.52.15-.06-.03-.11-.06-.17-.08l.49-.16c.07.03.13.07.2.1Z"/>
      <path class="cls-1" d="M37.33,57.5c.12.06.24.12.36.17-.11.02-.28.07-.32.05-.12-.04-.2-.11-.29-.16.08-.02.16-.04.25-.07Z"/>
      <polygon class="cls-1" points="15.61 60.13 15.61 60.13 15.61 60.13 15.61 60.13 15.61 60.13"/>
      <path class="cls-1" d="M15.61,60.13c-.08-.09-.16-.18-.29-.34.76.11.83.21.29.34Z"/>
      <path class="cls-1" d="M26.09,48.68s0,0,0,0c-.2.04-.5.13-.58.11-.38-.11-.2-.21.15-.28,0,0,0,0,0,0h0q.66-.2.87.17c-.15,0-.29,0-.44,0h0Z"/>
      <path class="cls-1" d="M37.75,62.55c.12.06.25.12.37.17-.11.02-.28.07-.33.05-.13-.04-.2-.1-.29-.16.08-.02.16-.04.25-.07Z"/>
      <path class="cls-1" d="M87.18,85.41c-.09.02-.18.04-.27.05-.05-.08-.09-.17-.14-.25h0c.14.06.27.13.41.19Z"/>
      <polygon class="cls-1" points="94.19 83.7 94.19 83.7 94.19 83.7 94.19 83.7 94.19 83.7 94.19 83.7 94.19 83.7 94.19 83.7 94.19 83.7"/>
      <path class="cls-1" d="M94.7,83.85c-.17-.05-.34-.1-.5-.16.21.02.43.03.64.05-.05.03-.09.07-.14.1Z"/>
      <path class="cls-1" d="M77.1,81.86c.17.05.33.1.5.16-.21-.02-.43-.04-.64-.05.05-.03.09-.07.14-.1Z"/>
      <polygon class="cls-1" points="77.6 82.01 77.6 82.01 77.6 82.01 77.6 82.01"/>
      <polygon class="cls-1" points="112.96 80.84 112.96 80.84 112.96 80.84 112.96 80.84"/>
      <path class="cls-1" d="M111.88,80.74c.68-.04.88-.06,1.08-.07,0,.06,0,.11,0,.17-.21-.02-.43-.04-1.08-.1Z"/>
      <polygon class="cls-1" points="112.96 80.67 112.96 80.67 112.96 80.67 112.96 80.67 112.96 80.67"/>
      <path class="cls-1" d="M139.59,73.43c.41-.04.92-.24,1.09.19-.44-.08-.77-.13-1.1-.19-.21-.02-.42-.04-.64-.06.05-.03.09-.07.14-.1.17.05.34.11.51.16Z"/>
      <path class="cls-1" d="M106.43,72.78c.14-.06.28-.13.41-.19-.05.08-.09.17-.14.25-.09-.02-.18-.04-.27-.05Z"/>
      <path class="cls-1" d="M77.46,66.28c.05.08.09.17.14.25-.14-.06-.28-.13-.41-.19.09-.02.18-.04.27-.05Z"/>
      <path class="cls-1" d="M52.72,63.66c-.17.05-.34.11-.51.16-.05-.03-.09-.07-.14-.1.22-.02.43-.04.65-.05h0Z"/>
      <path class="cls-1" d="M49.89,62.71c.21-.02.42-.04.63-.06h.03c-.18.06-.35.11-.53.16-.04-.03-.09-.07-.13-.1Z"/>
      <path class="cls-1" d="M10.84,62.46c.09-.02.18-.04.27-.05.05.08.09.17.14.25-.14-.07-.27-.13-.41-.2Z"/>
      <polygon class="cls-1" points="11.25 62.65 11.25 62.65 11.25 62.65 11.25 62.65"/>
      <polygon class="cls-1" points="6.88 60.97 6.88 60.97 6.88 60.97 6.88 60.97 6.88 60.97"/>
      <path class="cls-1" d="M7.39,61.13c-.17-.05-.33-.11-.5-.16.21.02.43.04.64.05-.05.04-.09.07-.14.11Z"/>
      <path class="cls-1" d="M15.6,60.47c-.48-.12-.51-.23.01-.34,0,.11,0,.22.01.33h-.03Z"/>
      <path class="cls-1" d="M54.9,57.94l-.14.25c-.09-.02-.18-.04-.27-.05.14-.07.27-.13.41-.2h0Z"/>
      <path class="cls-1" d="M46.75,57.19l.27.05c-.14.07-.27.13-.41.2l-.15.25c-.09-.02-.18-.04-.27-.05.14-.07.27-.13.41-.2.05-.08.1-.16.15-.25Z"/>
      <path class="cls-1" d="M51,54.08c-.06.08-.12.16-.18.24-.09-.02-.18-.04-.26-.05.14-.07.27-.14.41-.2h.04Z"/>
      <path class="cls-1" d="M6.42,53.87c-.13.07-.27.14-.4.21h-.04c.06-.1.11-.18.17-.26.09.02.18.03.27.05Z"/>
      <path class="cls-1" d="M3.75,53.4c.17.05.34.11.51.16-.22-.02-.43-.04-.65-.05.04-.04.09-.07.13-.1Z"/>
      <polygon class="cls-1" points="4.26 53.56 4.26 53.56 4.26 53.56 4.26 53.56 4.26 53.56"/>
      <path class="cls-1" d="M63.12,51.22c.17.05.35.1.52.15h-.01c-.21-.01-.43-.03-.64-.05.04-.03.09-.07.13-.1Z"/>
      <path class="cls-1" d="M12.53,50.17c-.13.07-.27.13-.4.2h-.02c.05-.09.1-.17.15-.25.09.02.18.04.27.05Z"/>
      <path class="cls-1" d="M30.6,49.95c-.05-.08-.09-.17-.14-.25.14.06.27.13.41.19-.09.02-.18.04-.27.06Z"/>
      <polygon class="cls-1" points="30.46 49.69 30.45 49.69 30.45 49.69 30.45 49.69 30.46 49.69"/>
      <path class="cls-1" d="M28.93,49.47s.07-.06.1-.1c.2.04.4.08.59.12-.02.01-.03.02-.05.03.29,0,.58,0,.87,0v.17c-.48.09-.93.16-.87-.17,0,0-.01.01-.02.02l-.63-.07Z"/>
      <path class="cls-1" d="M51.84,52.22c-.14.15-.29.14-.44,0h0c.15,0,.29,0,.44,0Z"/>
      <polygon class="cls-1" points="51.85 52.22 51.84 52.22 51.84 52.22 51.85 52.22"/>
      <path class="cls-1" d="M23.37,55.13c-.07.03-.15.06-.22.09-.08-.03-.15-.06-.22-.09.04-.01.07-.03.11-.04.04-.01.08-.03.12-.04.07.03.15.06.22.09Z"/>
      <polygon class="cls-1" points="139.15 69.22 139.15 69.22 139.15 69.22 139.15 69.22"/>
      <path class="cls-1" d="M5.13,76.63h0c0,.06,0,.11,0,.17-.38-.06-.37-.11,0-.17Z"/>
      <polygon class="cls-1" points="5.14 76.79 5.14 76.8 5.14 76.8 5.14 76.8 5.14 76.79"/>
      <path class="cls-1" d="M123,64.17c-.56-.04-1.28.1-1.74-.21.92-.22,1.39-.08,1.74.21Z"/>
      <polygon class="cls-1" points="123 64.17 123 64.17 123 64.17 123 64.17"/>
      <path class="cls-1" d="M123,62.15c-.15.17-.29.34-.44.5-.38-.09-.77-.17-1.61-.36,1.02-.07,1.53-.11,2.05-.15Z"/>
      <path class="cls-1" d="M123.87,62.92v.57c-.24-.02-.47-.05-.78-.07.23-.15.38-.25.78-.5Z"/>
      <path class="cls-1" d="M122.56,62.65c.27,0,.55.01.82.02-.3.21-.57.15-.82-.02Z"/>
      <path class="cls-1" d="M112.97,60.29c.21.02.42.04.64.07-.04.03-.09.07-.13.1-.18-.05-.35-.1-.53-.16h.03Z"/>
      <path class="cls-1" d="M105.81,54.14c-.07.03-.15.05-.22.08-.15-.06-.29-.12-.44-.18.07-.03.14-.05.22-.08.15.06.29.12.44.18Z"/>
      <path class="cls-1" d="M93.7,53.59c-.64.13-1.28.26-2.37.48.69-.5,1.35-.62,2.37-.48Z"/>
      <polygon class="cls-1" points="86.77 49.02 86.77 49.02 86.77 49.02 86.77 49.02"/>
      <path class="cls-1" d="M88.06,49.21c-.34.2-.59.35-.88.53-.6-.11-1.08-.2-1.65-.31.5-.17.87-.29,1.24-.41.38.06.76.11,1.29.19Z"/>
      <path class="cls-1" d="M77.6,55.25c.14,0,.29,0,.43,0-.14.14-.29.15-.43,0Z"/>
      <path class="cls-1" d="M99.86,50.87c.14,0,.29,0,.43,0-.15.15-.29.14-.43,0Z"/>
    </g>
  </g>
</svg>
